<mxfile>
    <diagram id="e9_1R2_G-0GwaMYQqC3O" name="Page-1">
        <mxGraphModel dx="1041" dy="790" grid="1" gridSize="10" guides="1" tooltips="1" connect="1" arrows="1" fold="1" page="1" pageScale="1" pageWidth="1169" pageHeight="827" background="#ffffff" math="0" shadow="0">
            <root>
                <mxCell id="0"/>
                <mxCell id="1" parent="0"/>
                <mxCell id="2" value="" style="shape=image;verticalLabelPosition=bottom;labelBackgroundColor=#ffffff;verticalAlign=top;aspect=fixed;imageAspect=0;image=data:image/png,iVBORw0KGgoAAAANSUhEUgAAAjIAAAGVCAYAAADkPRuSAAAgAElEQVR4Aey9CZRVxbX/71r+En/v/Z6+xCTmJdHEIe+ZqIniEKfEMUGTqDhAjPOIcUBBUZxwAAdQUMQJB0BlUMEZUEEEGbqB7qbnpumG7oZmcooaY957ee/9f7/6r8/uu0/XqXtu97mXe/ve2113rbPOuXXqVO3atWvvb+2adjB95Lf14y9NRcNmM2NulZn08kq5Rjz0trlk5KzgOm/Ei+bAMyf4y/PAy4CXAS8DXgYKVgYGXj8tsFvYsKtGvRbYNewbtq5ty2d9xLobs0NvK+nf//t/TEnVBqnU6+5/0yg4OemKZ82Ft75o7n78HTNu8kK5Xpq7yixYWhNci0vrzIfbtvnL88DLgJcBLwNeBgpWBkrLGwO7hQ2b+35lYNewb9i6066eKkBMQQ8AZ3FZi/nr3/7e28x+8QMZBS4TZ5QIaPnF2Y+ZwXfOlkp9fX6F8eDEAzMPTr0MeBnwMtBXZUBBDwDn6tGvmqPPf8IAbh6Y8kGvATZF6ZEBvLy7vEncaQpcHnl+kQctvgdVsD2ovqpEfbk9gPAyUHgyALiZNHNJAGwYuZg9v7ZovTVFBWRqm7eZe55635xwydNm2Jg3xJ3mG0nhNRJfJ75OvAx4GfAyUDwywMjF7Y/ME9vK3FGmZxTTr+CBDN6X6XMqzYAhz5tzbpxhJs9aZlpa233P23tfvAx4GfAy4GXAy0AWZaB902bD3FGmZ+AweGT6cvPpF38reExTsECGCUlPvrRCmMkE3fLqJi+wWRRY31sqnt6SrytfV14GvAz0tAysaWo1E59fZFgow3waVv4W6q/ggAzoD6aBBsdPed97Xzx48QDWy4CXAS8DXgbyJAN4aSa9uFQAzchH5xckoCkYIIMHBjcW6A+mwbyeRqA+P9/r8TLgZcDLgJcBLwPRMjDt9VKx0cxVLaQhp4IAMqxAOu2a58zEFxZ7AJMn1O0bbnTD9XzxfPEy4GXAy0BYBibPXi42m/mrhfDLK5Bh50F2JWQFEuNxXljCwuL54fnhZcDLgJcBLwOFKAMsumH+KnvSsKI4n7+8ABlWIjGMdNawF2R3wkKsJE+TVx5eBrwMeBnwMuBloGsZYE8aVhQz3JSvXYN7HMgw8xkvjB9G6lo4fOPx/PEy4GXAy4CXgWKRAYab2Fivqe2THnfO9CiQWbRqvRk47AW/A6+fB+OHEb0MeBnwMuBloJfJANuknHvjDDPr3ZoeBTM9AmQYSmJJNec8+M3sfA+jWHoYnk4vq14GvAx4GUhPBlhxPPKReeam8fN6bKgp60Dmvz780HzxwQeGOz8dSpo6frppffXV0LVx4cJeicg319RIObdt2BAqX+3gwaZ0jz3Mkh12CK764cNDcfhvvy875BBTNWBAKM7WpibTNGFCwEvf0NJraLnklyvj/EcecpmnT7vn6p+6LD/qqODStrqprCxUx9rOV+6/fxCXNtsb6goeoKfcC71kl69t7lzDZYf5556T1Xzz+uW5q3psqCkrQKbu5JNNyTe+ETLAHz73nICYi29/WYaSqs8+O/QeBVB2xOFm64b1wdXy0gxTuvsPTPmRR0jjrx8yRBqL20DyXUFu/gCWhttuM6vhw267BeVcP3VqqBGjyLTxN0+aJEDEVYD8b5k5M4hH/MZRo0LptC9bFuShipS7CwwV7LjhLv3Z+E8doeCX7rRTiDYMuZ0+cWyaUfTwzo4DvfBOQYH9Ll/P1At1UXH88VJOLYNbfxpu310Dpm0BY6dGEZBrlw1+avm590Qd2vln63nrxjaztaXRbG6qNZvqVnR7bW6slLjE37KuIdAN2zb3zLEkGF7aG50H2jKXzQvqRduw3mmvbqeFdJBrjcNdjTplQe/VXXmFtIVVB/7cVJxwjKm96jLTNOlhs7FyidlYvjC42lcvDvGtgzf1ZtvG7K/0RNagVeWS9kwbhQfbtmwWujd8sMAs23lnU3bYwXKtOrSfWXXIgab13VkBzdBf8r3vBm192c7/JHEa7rxJ4rRXLQuVCdnY0lQT1L3aBbeM6D5tF3a98Jwq3I2Xtf+JelRa9b5t65aQzGQtvyIchmKo6aLbXsr5qqaMgMz//fu/m//6/EO5/vOTdrPxgdFm/fBrzUevzTAfzX7BfF72vmkoWWyuHnKvqVw4JyTcdgN1n9fPnmpqBl8g1+pT+ovg0xiCeJVLRPi1AdHw64ZcadZNm2I2liwKGgENnQsFqsLV1R2Fqd90dd/ats5saWowAC47PRobRgkjh/KiQWULfJG25NW2LkTjpoYK4cX62S+Y5imPm8YHR5uNpe+ZTTXLA34t/9augSLBsC7d6esSzzYofKvXuucmCS9b3pgdygvern3gPlM39FpTcewxZlW/gwSwBDzY2CYNFwWIEVCFEsUHDDLha8eODZS8C/jgoQ0EeAbgBvltWG/ay0tM7ZArg6v+5hukHMKDCINpG0i3jjcuW2zWjntAyld93jkCpGsuvDCkjFCgKHfAKuWEfsrhGjBbaWG4iON6ZEhLyn/DDZJn3dAhpnHM6A6eN5RLva4Ze3cSD+BD0BYShg4DgiGhTazCsPziUNP87JOB7G/b1AGy1TDh4SMdwJRNK2DL5Tn/7Tg8a5xlu+wSGDsMucbDSG9YMM80P/eUWffi5CR6XfrT/p/QAZsbyoVfW9bVB3KhNMS9Uw92XDoXlI+y0ZapZ+rPjpPOM213S8vaUL3a5UXfrbn3NtF35ccebVYe8FPD3Y6zbsZTpuzIwwK92DjubtM0aXwoDu1Z9N2G9V3Sqm2PcgGckQm3k8R/witPPdXUXXuVqbv+WrNuxrMGMGXTFfcZ+qG39prLTPVFfzRrJ94fSqfu+qtEz1edc2aojHb6fLP0618PZE9lUNux6gUNt+/UqV1n2oGkXuPqaMC42oj2upWmvaYkVAab1qhndLLo3IaKDlnANiU68DZthfqM3KAf0Fm0b3RKOrQynQQws7yyLWfzZjICMgjKthefNV+1VUdeZe8vMMNvfMCsXf5uWhUeJQRRYYCdiv7HSwMA6UOP20BoNAqKuNffMtSgOKLSa3lrhjQ2Glzz1EdDcdoWvSHpYDBK9+wcFqKBRqUVhCUUrg0a4j67PbIgTauXlk4Y5VJl4tINH+2GzzNltdOHt4SrooWf9Kw2lLwdimd/k61nVYRuvdD7EyN+yIEhJefWsd0r1HJCv00f/7V8pIlSRcFKHKseUWKqPNVwqEJKeXcAKGkgB3b+3T3b8unGhXb3cusY41dzxcXS46+9erCAv6bHJwTKlJ42YAvl7l6uwuK9DULrrx9mWue+YQCK9LKhD8OrvNY77dGmHRrVKFM++932PqvhULBDXW14f4GAxspTTzEr9tlb6APU2eXDsLngxn7vPgd13tYscoFHQerW8ahsT3ngE+DG1T9umspn+06Hy/ZoAMJ5j5cJsAJYpxMhnaVEGcRQVyzKan24tNr/kQHam7Zl7oAeOw7yQXtUPZZK7xCucZqfmSjy3jb/NbOpblXQbvF+2TziufqPg4L3yAodubUTx0nHqOWV50K02HRl8xm5sfWLyFaig+jKXU/8p3OCjCivlu2ysyk/+nDhBZ3odGlg3gwHUb65qCEnYCbrQGbxnDnmlpvH5QzExBWeyjNPCRqHeiZcZUrj0IrSe8gDVL7QAGRoXBh8DAYNL9uKN26ZfLxOd3tcXgCAVLnp3ddfCj5aoE1Bt4IBNdIaHqdXqvwG9NJu7DqL2/ZckMZ/t/5In3DbINJxsfPDOKIH1LvhtmN3qCNO+ez08/2svLbv6C6lyx2eEsCVYcdI0yzmOzIEr+ikcbfLgqyoPdB7lF1A5vR7Nw07vWw8a7vb3FjVAZoTw642UI0LLgDreFjwzDGEylQOAD7gST2IeOGqLz5XPIZue4OWdAC/TdeIcW+Zya+WZR3MZAxktjz3RJI3RkHM+pULQoKRjYrMRRoqzNr47Yafi/x8mikMaB9WqH1dJuw26IIP2+tm99hdj5MNYBiSxsC4wKmv89mXP33dY3t4dG6P8hHPr3aQFexwd42+jhwogEY2XdBDWmqD9O7KOLZJ39l31ztFB0FA/aDTgzlMax8Z2zG0lRhyrz7vDwLU8LDTrojvlk/LGXWvGjjAuN5MG6x09zzmmffMky+tyCqYyRjIbHxwVAjILH/nbXPHbQ+ZYgExURXkw9Jv7J5nnmdeBrwM9GUZsEFGFLAAxNhA3AUNgG8bDPFMfJungBc3TlfAie8ZlYgCTna6mTzX33q9zCPrDrB09R7PTDaHmbICZJjYm8s5MZkw23/jlauXAS8DXga8DHgZyK4MMFwPiMp0eEkBDvvKsUluNn6ZA5mH7hOPTNvqElmdlKuJvV4IsyuEnp+en14GvAx4GfAykKkM4HUCyLirTRWgxL3rBOCKhs3bjWUyBjLtE8YYQMyNNz6Q1hLrTJnnv/MNz8uAlwEvA14GvAzkXwbYDoPJwnFBS6p4ujR7e89nyhjIbJo+2QwbNtaUzns9NJaXSsi2julvto7Yz1+eB14GsikDY/rHan+p2qUPz79R8HXg66DYZIAVTqnASbrhNfXrzcDrp23XcQYZA5nJQ+8yL0yaEluJAmJS7Tvjw6P34/F88XzpTgZoV8WmBD293nB7GShuGcgmkAH4vL5gtbnu/jczHmJKG8j854YNMj429sIb0lKgHsh4o9ydUfbv05cRD2SK2yB4g+7rrxhlINtABjAz6vF3zPQ5lRmBmbSBTHv9OjNz95+YhpemeyCTYmdjb5DTN8ieZ5nxzAMZbwiL0RB6motbbnMBZJj8m+m5TGkBmb//9/+YS0bOkkMg2co5HWH0HpnMDJU38J5vXcmABzLFbRDS0aE+rq/rQpGBqoFnyhEG6c6H6S5+pvNl0gIyj0xfbia+sFgm+Xgg4w1sVwbWv+sZ+fBAxhu3QjFuno6+I4u5AjIAnZfnrjI3jZ+X1hBTbCDD8qhzb5xhcP+QGaeBpiO43iPTM4bNA4i+xWcPZPqO8UhH3/q4Xi5yKQNVAwcaDiHtzsOS6XsOmCyp2hAbzMQGMueNeFGGlDaVlZm2uXPN1pZGD2T8HBm/Ei3PMuCBjDdYuTRYPm0vX1EyUHHccab67LNzBmQYYjrtmucM01ni/GIBGc5EuGncW0I0m+CU7rFHEQCZOeaZ43Y0+x43wjRmzdjkIs2+5UHIjsfoCXPrrjuaQffN6fNAygMZb2iiDI0P83KRSxkoP+ooUzt4cM6ADJ6c8VPej324ZLdA5q9/+7sgozVNrUI0xHPyZa49Mo339TP77rpj55U2IMkF6MhFmh7IpA9uPJBRnnkg4w1WLg2WT9vLV5IMVC4xa8eONa2vvppTIMM0FrwyWz/+slunTLdA5p6n3jeTZy8PCMadVHH88TkFMh0gpp95ZmmnkScsvR64Bx1q7Hrf3QMZrVMPZLyhSTI05Z4nnie5k4H2qmUBHsh0Dkzc716fXxFro7wugcynX/zNnHTFs8EEXzIHxABmcueR6TBS+17+xHYOG3ggo8au9909kNE69UAmdwrbG0PPWy8DyTKwqW5FjwEZMMdZw14w3Z3F1CWQeWDKB2bSi0tDRDM2Vj9kSO6BTJyhpBmDOoeeGIYKgZ8UQKbLbxIeoJRxUqS5dIQZZA+D7bqjuXVGpzcJoyNeJilTAqgl4kd5mRZcbg2pRcwF6fBYDTILrHyj0iFfSYt8rbgM2Sl9dl6RaaTkRUf5uqWlm+/t/KGrexrw1KUAMk4Z7XKq4e9tdw9kkhWtNz6eJ14GcicDmxsrQ5ggrncl03hxvDIpgUyUN8YmZMu6+pytWgqMWwiYhIHBVwkDqQb5q4QR6zSEEaCj22+qTVK6CTDQkU/qNDvzjU6jw+ADUAaZBYnJxxoWlCGRV/y0wsNvUUY64KWVb2dYJ6CJKndSWBKPEwBNQFkELS6/Q7zsAFndlTUVDUmgJ5FXt+llbeK3I495StcDmdwpbG8MPW+9DCTLQPOzT4ozw8YDuX7uziuTEshEeWNsYnO9IZ5tbJNXHiUAhQN0Au+AGBUXdKTxjZNuJ0CIlybxhX7Lq9RBm2vsU3gWQkYx4cGxaFIAFDLaoW86jWwHHzvBk5Qlyui3ufnE4VcnkEmmJfr7Tl520tgZFo+GlKDV4pGm6daDhveWuwcyyYrWGx/PEy8DuZOB+htvkJXLNh7I9XN3XplIIMNKpRMueTo0N8YldEtTTc48Mp1GJmEM3WGYhGfA9mTIN2KgFSw4oCPONxEeh05aMLzRaSYbcTXwSov+dwCFphdhgDvzTQYE0aAoChgkAJXljZF0I3nh5BMZR71Nbrk6/wd0d8vLKHodGhLgKpm/DgDsIq90eBXQngIUFuJ7D2Ryp7C9MfS89TKQLAM1550rc2VdTJDr/8zXTbWCKRLIcALl3Y+/0+U42KaGih4AMmrsEj31XRMGM2G4GF5IvtSoRoOO5PikEU43CSAFhi06zcj4IVCVDpBJ5OGWzQI76RjnSI9MJEhxQEQsHmu5lOdaX9VGvSaRvHH5maqsKQFKNJCJzMuph0IEI9tDkwcyyYrWGx/PEy8DuZOBsoP75XwPmShQxHxdRoqifpFA5uQ/TTbsrOcmxq6+S3bYQdaP9yyQUU9AYk5HpCG2jKgYyjRAhxrWlIZT045OM9ljkGzgO8BHdx4ZJ327HHkCMpHgQPmlk5gVCFrhCmSieNNhuOOU1QEsQfpOeBf1lg7o2x5Aka9vPZDJncL2xtDz1stAWAbaKxaZZbvsIvvIuPgg1//ZV+bo85+I3O03CchUNGw2F976YhKIgUgFMu3LlhmWYKVTySjc7VH2YYPkGLLAwCng4O4ayjjfdMQJr37qKs1EHhbI0DK6czNiAZlIg5ycR5gXNn3Jzxl7ZFIO64TzSE1LN7yMVdbksgt/k75NES9irpLWT2+5eyATVrTp6CQf1/POy0CaMrDqfTljaePChZEYIddghhMG3lq8JskpkwRkRj4630x7vTSSSM5YwiMDoMkZkJGhAMdzkTBcNsDoMKDWqhvADN8GE2wTxi34r16Srr6JjgMY6PAsxEsziraOMKdcCrYCIJRs/DuASHhpeWrwEAYZGOvMgUw0L8I81jgRQ0uBtybM705eplNWKw2VBWepdmqeW99GAt5knhUTyPFAJk1F7DeLS6sD6g29ly9bBtrrVkZig1wDGE1/wdIac8nIWV0DGQ5ownWjJ1zrx3pnS2KAzNamJrOxcklaDSItj4yAmfD8l8ghCjeeBVqSPTIJg9XlNx1x1CgG82kCoJEMZMTouWlGDLXEAzKdc0s0b8otYCSgoWvw4Brh7QEykWUL8bh7WlLzMl5ZoSGcBmCwox6SZCJGPbj8Kfb/Hsh4Q2MbGv/s5SGXMtDTe8go9rDvUZN+Qx4ZXDZ6OKT9oT4rkOF/ToFML+w5F7vB9PQXpufGAxlvuHJpuHzaXr5sGWDbFcUD+bqPn7zQTHp5ZcgrEwIyuGxw3aQiEE+MHhRlFy7Oc1oeGQ9ktms+kQcdhQk6clEvHsh4QxNH//o4Xk6yIQPNkx4zzJFNhRF6IpyFSCxIsn8BkGHvGIaV4hCybcvmtIaVYKAHMn3HuObCYPs0o+XHAxlvoLJhoHwaXo7iyED5Mb+Ssxbj4IRcxnF3+g2AzOKyFnP16JjHcm9u90DGe42816gAZMADGW+A4hggH8fLSTZkYFW/g3r8eIIoQMQ+dzPmVgVOmQDIyJEEM5fE88hsbPVApgCMmPdSRHsp+hJfPJDxBiobBsqn4eUojgyU7r67aRw1KhZOiAIg2QpzjywIgMzA66eZ0vLGLglk2XX98OFm64b1Hsh4IOM9MgUgAx7IeAMUxwD5OF5OsiEDAJmmCRO6xAnZAitdpdPS2i5TYdQlI0Am7vwYXbW0qarcA5kCMGJ9yfPgyxrtffJAxhuobBgon4aXozgyUChABpBjz5MRIBN3fgy7+bGPzMYl6Vc6Ctcbo2hj5Pni+ZKpDHggk74uiqOwfRzPVy8DyTLAaExXnpKefGfPkxEgE3d+jB5R0PLGbO+R8R4ZD0wLQAY8kElWtt4AeZ54GciNDBQSkLHnyQiQuWrUa2bu+5XdIq3NNTXikVk3bYoHMgVgxDLtxfvveo8HyAOZ3Chsbwg9X70MJMvA1pau59H2pEemvLrJDBjyvEyTESCT6rTrKKLKjzrKeI9M7zGEHtQUd116IJOsbL0B8jzxMpAbGSgkIAM+OfDMCR1AhvOVfnH2Y916Y2xQwzbF6QrK1pGHyqZ4KF5/eR54GciSDIw8NO22mG7b9fFzYxQ8Xz1fi00GSn/wfVm5bOOBfD6fdvVU07blM7NDU9snMvs3HWIyATLFVmGeXq9kvAx4GfAy4GXAy0CnDKw67OCC2BBP8Qqb+LJYaYe4K5b0Q+4eyHRWrBdyzwsvA14GvAx4GegLMlB+1C8K4ogCxSO6cmmHKa+Vm/ufXhB7aIkJv41jRnt3drlvuH2h4foyejn3MuBlwMtAhwysPqW/WX3SSbHxggKOXN0nz1pm7nnqfbPDyEfnm2mvl8YmrGXmTFm51PruLA9mPJjxMuBlwMuAlwEvA31EBmoGX2BW7LN3bLyQKwCj6bLamlXXaQMZXYLdPPVRL7x9RHh9b8T3SL0MeBnwMuBlAAdGy6xpBQNkFiytMZeMnGV2uO7+Nw0byyjCiXNfutNOpuHOmzyQ8UDGy4CXAS8DXga8DPQhGWivW5kWXoiDKTKNw/mQnBO5A2gGVJNOQiv23svgYvII3SN0LwNeBrwMeBnwMtCHZKBySVp4IR1skW7cmvr1hn3wdjhvxItmcWldWoSt/s2Jhkk/Xnj7kPD2oR6Hl2sv114GvAx4GUgtA9u2bE4LM6QLUOLGX9PUak645GmzQzq7+mri7O7nKzl1JXveeN54GfAy4GXAy0BvlIGqc840DSNvKwggAyZhd9/MgEzbOg9kvIfCy4CXAS8DXga8DPQxGajof7xZ/esTCgvIgGbU0xL3zgmYvRFp+jL5HpSXgXgysHVMf3/UiD9upXBkYIyf6tBTukuWYO+9Z9q4IS6+SDeeeGQyATLbNramDWS84svS2TpeeRaO8iyEusiTAuesLH/gaHEfONqb6g957ClD3tfzqb9lqFm609eLH8hsWlkqm+I1TRofW3i84vNKrzcpzkIpS74UuG/Pvj0XShuAjny1g74IahrH3S32f2tTU0GAmYw9Mh7IeCVWSEqsL9OSLwXugYzXAYXU7vLVDvoikGl5a4apvepy44FMm1cChaQEPC3FK4/5UuAeyBSvzPTG9p6vdtAXgQxl3lS3oiC8Mcynydgjs61lnR9a8mDMz5EoABnIlwL3QMYDmUICRPlqBx7IbMs7oMkYyHy4ud0DmQIwYoWkSDwt+TFs+VLgHsjkp759O4vme77agQcyRQ5kmOjbtugNP9nXAxrvmcmjDORLgXsgE21QPdDID1/y1Q76KpCpv/l6s3Hhwrx7Y7ZraAmPTLoV6BVffhq4V6y9m+/5UuC+PfduuSo2vZGvdpCuHewt8Ut+8H3TNCH9PejS3SMmTvztGlpKt0K84vOKr9iUYzHQmy8F3vPteY555rgdzb7HjTCNWfOA5SLNXtTOZwwy++66o7l1xvaW6Qlz6647mkH3zcmZ9zZf7SBdO9hb4pd6ILO9jSLu97lQUrlIM2558huv8b5+otQCQ7J0hBm0az/zzNL80lUMYCOXNOZLgacLZAL52XXHsBzFBiW5aHu5SLO3tIcO3mQHfHgg01sAjJZj+Xe+XfwemY3z3zWrDjnQtL47K/YQk1d8xazgOhQRPTMxSJc/Yb4SIDPILIhtiIq5/IVLezEAmQ4QEwa9hKVnJD3oyCUgdtOWOsua98sDGQUAveW+ZIcdTPOkScU9R6Z19ixZtbSh5O2cABmv+ArNcKKI1BAlDEqOXcWuYvX/o2Wi8IFMhxHbF/C7XaDXA5nt41+0/PRMmh7I9BYAo+UoP/KI4p/s2/TweAEyWqg49/geGa/4eka55FOx+byzVcdFA2Ti9O4TczKYlyFXCPykADJdfpOQs5RxUqQp3sYEDQla3HkinR6LhL5KxIvyMi24PJyWG6ej4zbILLDydeOovKST71cpy93Bl9T5Zs4XoTOULx2gFEDGKq/WuctnLXd393y1gzi2rzfGiTMJt6fiZDzZt/GuO03J974b2xtDRaYNZLzi61DmEZ6P1AooGiB0p0iTlU/EpMq4SiekxHY0yT3xhJJUY7WrH57qTkl39T5fCjx+e642gfyFgIkjqwm5CQxZQt46DXqEce32m2qjxjxIt62Dno7/qdPszDc6jY42CEDplF8Nc/OKn5Z6PR3eWJ4szWPfwEPaSV+X+STxMzFMLO3QzTdzviTx29IbUfRFhdn860r27Xf5age9EaR0W6bKJQUxpKRAKWMgU3/N1aZ0zz1yBGS84uuucUcqM0vZ2Q0cI9JdeknKJ6TsYypK8u/WsCQUpG3Q+Mb+n6Icdpn8c6ehy5cCTwfIUF8BmMFwJnVSIuSiTQ2tAgXXuKbxTUr5ipdmQL9Fd0cbdAFACs9DSKaTPc7ankPtNPRNZ31rXNfYC38D+uLwRvnr6AfJN1O+ROfbMZ/OzidFPJWToByd5e6uzeerHXRr9MsXpmUniyG99rqVvQPIND/9pGm486a0KsgrPlb99LziS1YAriJNrVQ6vk39Pn3lGUfRx1deyWXre9/mS4Gn255DsuQOwyR67a5x7gDG2mYScqhGLs43EV6IsMxEpxkFKFzg0vFfQZbKXeq20plvchw37c64mm7nPTpfBSUJXsXhTQAUlb+deXzVlilfUrVvJ7yLekmHFzaf8tUOigF4ZJvGDQvnms01NQUDZjL2yGzdsD4tEAMjveIDyPS84rMbe8ezo0i7UCoSv4v3IaUTS3km8o4YLkum01as/jkVf/KlwDNrz1qPCalM40gAACAASURBVDCtwD4hOzpPInxXQxttXMNxdS5KNwY98HZEp5kEqIgv3kalRYFDnPbcKfMhWi0vUagdBbQpr8L3dIBMKL9gKNctQ+f/ThnLkC8pdUU0kInD506awnxww/PVDrINEoohvdorLjUr99/fAxlXCLv/7xWfPfySjuILeleBIksoe1WkqQCIKtSu3tvKPZYx6lBGoWGGJHDXtcLqXlb61vf5UuDbB2QUGCQ2W+tKxlQOU3gJIo2hfpNIN8rD0iFH0QY7Kr7b5qIBRSI9bVsuzUKXG0dBURSgSJbl6Hw1jQSwisVP/SYq30z54gAWrYc2J7yLenH5HLe956sdFAPwyDaNlaf+3qw++WQPZOIKZyiePf8iVkONbox9S/E5PIhSpF0oFeF/F+9DSidWnTiKOfFNsqfKiRcoRB8eahNt1eLpzLaiipPe9gKZkOy4hi6yvl1Zdoxj5DeJDlAALFz5cdNM/I+IHx5GVRDQjUcmsu0k5xHmhUtj+H+quGH64vBGyxADyCgg65YvyWWL1iEp4vk5MmmPdMRpq9mOs6pfP1M7eHDxA5m6odeadTOeSovpXvHFGFrKtuKLlV5MZd+tEounPF1D7Lrsk95HGqiwcu/L3+SrJxq7PUsHxDH4CmAtmeow0M52+Hyrc2LUmAb/1RB39U10HIx+h9clYVC7STOKto4wp1xKY1Cu5LYVeCODOEpjFKBIlnOlJTTfzu7kJdqLxgt13EL87Crf7eWLVSda185wchR9UWFx23a+2kG2QUIxpFey23fM2rFjixvIbNuwQfaQWTvx/twAGa/4Qqt4tk/xpaNILeWT6Bmpiz1KwcQNE6CihsJRpMGwl773oCXtTePypcBjAxnqNGFo7TkbKlshQ+XGC8lFsnGVb7v8pgMIqKwG+QcgImaaOpfHks+ONLsDMtWJHbB17k4HgJI2HdDQFaBIBWTCe85QrhBgUTq74U1HGaIAVOZ8oU7C/IZHHekl1blLXwSfQ/Kh5Yq456sdFAPwyCaNbUvmif1vmTmzuIHMprIyKUhOPTJJAq49KKdhu/G84ks2hFaPCIWHMnEVabLyiVgi6/I6ldJx44XqxFVyEflEKKm4yqwvxsuXAk8LyPg6TW6XGfIkGkA5ejHDtIu5/eSrHWQTJBRDWiy93trUJJfu45Lve0arllpffVWATDrnLFFBXvEVg7Lp8OBE9u76oHIsBsWeLwXu23N+2rMHMtF8z1c7KAbwkU0aNzdWFYwnRgFURkCGg6I4MCpd5njFF90AC81YRnlrCo1GT0+nLOVLgfv23FkHPSmPHshE8z1f7SBdO1js8besa+gdQIaxscpTfueBTC/zUARzcVKNt/ey8vak8cllXvlS4B7IRBvUXNa1Tzs1z/PVDoodmKRL/9aWxt4BZHDnbG6q9UDGG/asjft7BZ1aQXfHm3wpcA9kMq+z7urUv0+ft/lqB+kCgWKPXzXwTFNz4YUFBWYyGlryQCb9RuYVk+dZrmQgXwrcAxkv07mS6UzSzVc7KHZgki79VQMHmuqzz/ZAJhMh9d94pellIFoG8qXAPZCJrg8vp/nhS77aQbpAoNjjVw8a1DuAzMaFC03rO2/6oSU/tOSHlgpABvKlwD2QyY/B9kApmu/5agfFDkzSpZ+jCXqFR6b8qKNM5RkDPJApACPmlVq0UutLfMmXAvdAxsteIbWzfLWDdIFAscfH/nsg442/92J4GciqDORLgXsg44GMBzIL0+7QFzuQWfvweLN+6tTinyPjPTJegRWSAuvrtHgg49tjX28DlD9f7aDYgUm69H+4ub2gQAyLjzJatZQxkBl5qAgbAucvzwMvA1mSgZGH5qVXuNW3Z6/HCkmX56kdpAsEij3+tk0b+jaQKfYK9PT3PTeqr3Nf514GvAx4GeiUga0b1vcOIJPpqiUvDJ3C4HnheeFlwMuAlwEvA8UmAy0znzeNo0YVFJjJaGgp0w3xuq2wyiVmU92KWNfGyiV5cad3W4Zy3zA9j7wMeBnwMuBloHfKwJp77jDLdtmlbwGZ9tWLBZhsbiiXYw04cArXlLinsjxpiLE7TVvuLY2S5+bGSqGhvWpZrwI/7RWLQqCPU0k5OqLbq7Eq+M4rm+wom6ZJ4w1X3fVXmZrBF5iGO28KyVrLWzMknHf1twyVuMTfUPJ2KF6c+kCOXcDfXlOSdjpx8irUOM1THw3xG742jrs7xIO1E+83qw45UA645ZBbrpLvfTcUh3rRd6V77iHx+WbdjKdC8ahPLq1n932h8snTlZ32nS8+ImfINfKtlyvnre/OErnsKRrXPjpW2sy2DYUzVyYrHpm2RW+YpmceMRsWzxUjurWt2Wzd2CZLtOqHDzf21TRhQgjJtc2da5g87F54fezLTkOfGeKy47S++qpxLzcO8bdt2dwBeNqahd4tTTUdhqFmeUh59ZRgxMqncolpvPdOUzvkSlM39FpTf8MNwrOG224L8YADPV1e8t/mE892nKoBA0zdsKFm4/IlhgPBAEKbGirM+tkvSL2q8s7E6MYqm+PFIh/Nc/3sqaE60UbLe4xZJuln+5uqc84MjCFGceUBPzWE2fmgkDCQvFPDyZ22Y8erveYyUzP4QrN20gSzbtoUs6WpwWzP5LoN78w1LS/NMI33jjb1t94UgNz2upUi8+umhQ22TUuPP1se2faKJaZ5yuNm7SNjTe1Vl5m2+a8F4A0AX3bkYcLHpV//egA+4J1NMzxX5a8gxJUZ+K9x7DsAx07LrTfqjvh2HPKALk2H/25+dvztfYZGbSd6LwaApe1bDTRtJQo8uiAUnq8+pX8Szwknrl4V/Y8PxaGO6WD0JI/CnY1VQbtzO5lsLLv2oQdM7RWXmrJfHGrWz5oeiksY5bOv1aeeHCofcma/X/6tXYUXrnxRflefunHi/EfGyG9TWVmSXXHtTE/9zwjIbG1qMiv3CytkCuaCFDbNIdw2mrWDB4cKD9Cw3+uzywANt+8YbTue5mdXKvHtOAAd3pfusUcoXzsOy8sAC3XXXi3Aoeaqy0SZukoCodDGoXdXUGzDq3FchYvwaCOkx6j0N44ZLYAL4AV9AI6V++8fottdzw8/FejZd7t8IGmbj/rsgj7ClRa9V505IAA6eAWanhgf0K5l4G43iLCxuFB4iXHasOCtcKM94vCk/NyNl5AxpUXvpbv/IPDEoSjay0sMvFs/bXLYAK5eHKLLprG7Z4wGnpTyY49OMmDUsWv4ukuP98iDxttU16Hsyo843JTstluojM2TJoVkmDq365ZnVw6i+MSOnLYcbK6pCfIhz/IjjzB1V/3JbFz2QahebO8PIEJpjnW3wIl6ZakjPKaAtJZXZodoQja1XvW+4sc/lg6KTXuUEt22dUsgB+qZdQ2HAji7THGebW/nptpyAZnwSfPhDlgsO+JwuZBJ6LdlE2/0hkXvhspX8oPviwHbWLIoxHPCtfx6p83YtPJf3+m97LCDje15Ri7tdqkga8Py+aG07HS7e8bD7fI16j9AXIz0kCtD8eGf0rts538y0Fx+9BHScSJvlSv0repMvbv6FaCoZdI7oEXT4A4PND/7brc/4gGoNA3uvE/ZrlWuGyqkbHQAkYF0libb7Ry9jq5zdbAt86meaQstL78oHZaGO24X29Uw8rYQz125gw8l3/9epOfR5gHPzU89HJKVmssuEH5iS1PR1NPhGQEZiHQ9H/xHMfZ0AbrKjwp2BaN92bIkI4AhcNNR444SVeFXoKbKi92N9Z3eU/UY9L3eaTg67IZy7fC0DDH11w8zGK5C4if1qvUN/2xe2cCJhih8O+LwkIJvL18RCziRluaDp87OJ+qZOMTXetE40Kh81jtKw6Z928ZWQ6OvH3GjGCWULlfr/NeDRstwDaCTIQfSofcPkFlz720hRWkrzTjPWu8Yxy0taw0GWGm379BL+eg42OF0BlQ+9e7KsF1n9rfus/Kc7znRlvRckACAJpz3xOOCLjut9g8WiyLF+9My6yV577Y99b6itLVeuLvlU/l36bDzK9ZngBq8Wzt2bMBL+OnyQGWbuHp1xQ/eEc/lOeFaZxXHHx/Ijaur6dhRF3ZHyW1XUQDajUPn0q5bTdMtn90W49Sl6lz7HgWe6BAkATHL067eIECK6w2t+sMZAqoAVgAsaEcvk8+WdfWi0/BcEy7APzGSQPuwywBvaS+unLtlhnfUmf1tLp9V9siTNoZcuDIVpVvcib18Tz27dZpL2rtLO2Mg013C/v02GRKwGx7G0/MlPGSYS35ow6XRRRkLVd624iWeTRPKpn7IEGm42za3hwCa1i1gJEqpyhBrYj4YcdPprdk05PsZRaZgpuyQQ0SRu3yK4w3FyCoYUiXuKvd8l7Wv5g9wssEV9eR6vBnGVuCsd9fDjmEkHsauN9Yt5ROdYE2ZcA09Bp72oRfv4UchGf7eJuceyDhzcXpbBfvy9Bxw8rz2vPYy4GXAy0DPy4AHMh7IhDwQvhH2fCP0PPc89zLgZcDLQOYy4IGMBzIeyHgZ8DLgZcDLgJeBopUBD2S88Bat8PoeTOY9GM87zzsvA14GeosMeCDjgYwHMl4GvAx4GfAy4GWgaGXAAxkvvEUrvL2lN+HL4XvGXga8DHgZyFwGPJDxQMYDGS8DeZMBlqSyNJWLZbvuvhYs4dX3LBH2yj5zZZ8P3ul+Rr7uiqve8iEr25Nn1oGMvXeHuzmTuw+BbipkF4BvdI8CNnDStfh2nGJ+pnwoZnsvAp7tMkVtKsVeJ3YcnnX/E/b2UJ65ez+4m1ixV4RbL266ffK/tUcMm19F7QuTKmxr27pgf5lUm9u5PHXrBTl35QAj7xp2N51i+Y9ecGlV+dU7B9HRNux4UfvTRO1QzHfuJm92Ov45u4ZU92aiLtA96HJXfqPqjrh2Xai+Z58i2gD6ibqMkhf7u2J5tvW82jJ3F27auL7TzSDddlAs5c0XnVkDMhXHHWeW7rRTYFxRTvUjhoa2y9azNewtkDknQndDZcdTzlRh6212V+ScCb0CY7GxTRqC5sXOuzQOGk2hGGjthQDcXJrYaMpW3NAetamUNmgEWi9XSOwNrLQhuPnZ4FE3gHOVCekrTfCV924c8tY8dIMnvisW46HnaykY0d0/kTmVv6zeyxabxgdHm6ozTjPLdtlZdhG2N8Sz60X57cqBXS/Ujx6rYW+sxTlMckYWG++1resSgOkGfvZdj79wZSsb/6ETRY6xg36bbtJXue5KhjizTelte3uO7B687vkpQRjv2KFZ5Zc7xwRUDTxTznvLRjlSpWF7i9x2ZxsnbTfcXR6kSruQwqkfF1igd7nszqbLA5s/WtduHPiETtQ2oPXo5ocMKR9Jq1A8PNCBjOuOuF2BOe1w0vbt+gUUUn7AoJafux2HZ+WRbiqJHu6q7bjf9+b/GQMZdqnVwxYxBpxDo6f66vkU7057zFQtmJ2Tq3zcXaZ85I1m5cXnmpUDB5iSfgeZ1c88bmpWLjU1FSvlKj3uGNlWvuTQQ03p0UebVVdeaSoQutpauWpqqoO4+k1NeampKV3ceS2bb6qXzJOravEcKUvly88Y8q+aOzNUtpJDDwoJoijVG66Rb2uWzZc0q159sSPtlUuS8la6ury7NJOOTW/Uc4IfUsbV5UH5NZ+akhJTOWWK8AYe6aXv9Q4fl33726Eylo8eHUpv5YDkYxsI0zS484022OV77WVIl8uOw7PSwZ1voLF60aKkePZ3QZ2uWiZ8oe6qFr4eqqdcyaSmu+KM35slX/+alHH5PnuaVVdeZFZPeyKgQeRp2YKOeqNuKpPrhDJRVsosdfPAA2bVFYPNqsGXmurlC0314reC9DSvZd/9jin5+f5mRf/jTMWTDwbvla7u7tULXwtkXWhcvrBTthx5ra2pTlkPyNOKk08OOjbUbfnIkYZwu66C56rVphY+lC7uKBt19v4badFf+dpz0iZXXTfYrDx/kPDALu/qyR1ndC395jdMyYEHmNITjhHdUTVvVqLMb0v+6JDVjz9sykeNNKsuvUj4XTlzWqitrjzrjEB+VY5d+a2aPTuQa5Vv7q78Lt155w4ddcjBpuSQg83Kc842bn7VUW26dFG4rhI6SnVV9XuvpsU/m1c8Vzxyn1l59ulm+T57SVkrHhkTzk/lN5I2S39uz3vacEJ3rej/G+HP0sTRAfC94tEJwXviVYx7wJTfN9qsfuoJuVw+alrZutu0SN2ddUZS3XWbVxz9neAh8rjy9FNNycH9hBfwgLLaeSA/0FJ65BFm1eDLRGfYNi9ocwkb2LP/68y8t+ckATQAFoB2df/fhM4pc0cXugJiGQEZ0DJMtL0pUb3ZukWvm6/aqvN2fTzvZdMy8kbTPPRPpqb/8abyiEPN+hHXhejZ+OCoJKW0Yvfvh+J8tuztpDiU/6PXpoXikVb7xLFm24vPms/L3g+9yycfUuX971ubzX98uN78/c+bzX99/qH57y8/Nf/ff34l1//7f//XZPL797VrzRcffBC6CLN/X1VXmw133ZV02XF4rjnuOLngtV6fvvGGRPu///2fQmfLzcNN1dFHmqqjDjfrhl0ldb35qYd7hPdfri2LrGvkALlDblLxPir8P7Y2SX1QJ/ZFPUXFJ0xp2PLcE1L2tZeeJ3KO7NvfIP+r9tlT3tUPPG27+UTZkHOutntuN1/WloRorj/9FLPxgdHmy9oVofBQuTavDdFo05vt57/ULDPKI/RB9bFHCS/cdkrbV1lTflGfNj122d3v7XhxnuEfOgmaqBd0FGH2t7wnvOnKSyQe5fh04RuhOHb87X1WHpR+51tCEzoN/m1vutn8Hvl2aYJ/Wnd6pz3Y+cI7eGlfdaeeFIpDnep7eKBpuW2KenLD7Lzy8YysIktKf/l++4rc2LTQXpft9PUgDnFpr3bb/Kq50qwffq356LUZoetvGxtC8T6Z90roPfG/KF8SioMeQD9zLUscisyBlRsrlwTecD3cVA/uXLrT12WYsSvwYr/LCMiQAOPZ7imjLpgB2dsMLMRnhBaBtJUcRsimVY0F8fRyG5Edvzc9/21jXSCUCngAPf/z1WcB6AH8ZAp8XPCiAEUBFXnp9R8fthiMvc1fbbgKVCv6/UyUrxsHZYRS0gbuKi/qEwXgXi4YUWOjyo27qyztvAvlGbmlbBhDeACfeLbpQ+7tchHH5RP8sOPwjFLMpWG1aeyLz8i4yp0aVv7bvFADTX2pDLt6DBnXdJCB5bvsLHWJbNhpkV+hGWibvjjPyCPlctsvZVMdoHdXxl1dQMeItHqLzocnCp6RlTXnDYzVzmnrLj8V9No6gTTtOoLn5EE43lIO3eXUchcv2P/XTXsq0nNjgxf7OWMgs2KfveXIcztz97kYgIzNcP+cHe+ZDX5slB/57ACTXNQBYNUGqjQoV3lFGWgap6vk+ZYLI8G73mTA4QFl4lJF5xpDF9Rvr0ciF/XdF9OkztQw692VcfU0AGZUjjEyvcVA98V6L7YygwlcnBD1n+kqNlDp7jljIFN+5BFm9Sn9uyTKA5nsAINiE1ZPr693LwNeBrwMeBlwZSAukAHcbNvcHhvMZAxkqv8wyJQfe7QHMnmcA+QKif/vFYeXAS8DXga8DBSqDKQFZDa25h7IsBa+u3Eu1yPzZUulaVw6JzR+pgz/sG65aVk537SvXhT5nnifNq5M+Y73a5a8ZUiHZ/L5qL4kiL+pcrHh0vzSvf+1tcrUL37DMIH544ZSs7Gi8CfzpltGH98rQC8DXga8DHgZyJUMxAUy62dPlVWPrGbqbliJ9xl7ZPjYnnUcNc7lApm/rF9tFsx4QgDLqrkzBGwQtvrdl83bz080ZfNmmqbl8wSALH/9OdO6aoGAD8IBOK8//aBZV/qOhPMeQEGc6vdeEYBS8c5LhnAq4a3JD5mtNUtN5fxZprnkbQEh5AmY+aypTO6AHk2bbwAr5A89gKaGD940te+/ZqCRb6D9vZlPmsWznpG8c1XZuUy3rew988L4O0LXjAl3G3gXN9/Pm8sN34y/+UpZ4sl3sx6/T/6XvvlC7HS6y4/6oM6hl7ruLr79nm9feXKMeXXSWPnu4VuvNqcduZ/Upx2vEJ7ffHa8mTL2VpE3m55ttcuk7M+PGxkAdPu9Ppe88byZ+sBt2wXUNa1c3Gln1OEbz4yTNqZ5bChfKHQvfHGShF951q/Nef0PT7uuNb04d9r7qUf81Dx1T3hCf5xvNc7SV6eY5x68XfSLhnFHNxA+7aE7g4tyU3/oKTtutp/Ra8iA6r846T9y+xDhhaun43ybaRw6gpPH3GJWzpke8OP9l54S3UEb/WB2eOIx+aDLH7zpCjNx5LWir+28aee851vaEDJlv/fPhQXK4gKZtkVvyER09gzKOZBpr1qW1tASgAAlgOACMJa9NlX+84yCwQgCNgAKAIot1UsEVGDM+I4Lr8iil58WcMJ/lAdgA4FVsAGwIT0MAeADQScPFD7heGrIG/BEGvOee0TACvQR/tpTD0hDI5wGh+EmfTxG5P3OC49K/jSiYmso8GvfXXdMun767a+ZmY+El5mmKtsdV54j3//kW/9LFM/T994UpIfSTvUd4bOfuN9ccPKRQZ3B04t//0vz7P03J333xboKc/je35K08bZ1la77jrr52b/8gzlsz2/Kd8POO0XSQbbcuHH/P3rHdULr5qoPMk4jKq8hZ58stF09qH8oXYwidXX0v323S2/k9eefKvGyCSKj6Mw0DOOl5cArq+nQNgk/59eHGcKPP2APqbOuvLJ0SpAXeKPppHOn7ZLnTRefkdH35AXgIg06PHbeZ/zyZxLOO/ciXztutp/RbeQ5/MIBsfPRNgGQzDY9Uemhg4/88XeEzruvOV/yVF1i8+v+6y+Vd7T/P515YhIvAWykz/vBpx8fev+rn3wv6NhG0eDD8gts4gIZHCMstnA3GEwFarbLI8PuqFGeGA1zkT5AASAA6qaHXf72i4ZGBBABYAAqUMbEoQeDQgNMAC6WvDLZrHhrmqlZ+KoAHd4Tj3C7t8739LYANaRJXihMwrnIQ9MAyBAGnRg+DBRhfEM4xhNQgxeDBgCgIRwwQJoArWJrGPAMpXH60QeY+dMfl+uuq8+TsN8e+q9SHvhuGxM8W/AbxUGP54h9vm0O+sE/CS8YYvv1gXsagBB1Cd+VJ/AVUKnGi575DRecJnnhwQFosmki9Fx66jHCf/2WO/md+PMfyXsMGF4ygA/vyBcvkg4l6nfQSb7ERakdt//ukj/h1BsyqHEpCzKIl0/DuFN20raHQanrQcf1E1qQjz+vXRV8g5xg1Gx5sGklH+jkG6Xfzg+Zggf9dt85xIM/nniohD9259AgL2iCNnto89bLB0k85B1eU1Z4Sx7INXHt+iTcrRubHmiHJ/bQLOmuX/FukC71Ae9sOuw07Gf4Q/lOPuTHQTl4T1sk/JJTfiXhGDp4od/CT8pqg1g6JXyDgbP5Da3UAR0d/V7LjvxCPzQjn8gBPNJ4hJE3PFFZ5R3hhHHZOkaBI+GaBnfKg7544MbBQXnxCALe4RN0qMdAadF8yB8PsKan9fjJmhUis7y3+aDxAInIBHUBX0b+6Y9BGhqHOx4b4tgyrW2CvGzZJC58t/lLGtACj9Gfdto8o8Oh0W4Xdhzq9Rd77So0QifeFeLzjD6Bb3gmf7nvv0gYefCf9785aC/Ry3S0aCP7fefrQhvf8L5/v73le9UtF/72qCT6bFr8c/7ADG1G8UF39x4BMoxdcYxA67uzUhLmNnQaDMqQBoSSoFGjIPDCcNHYaUQofZQCcVVhAib4v3bZXFGyvEdZkwZpqXDyLQ2E/7yn4dHYVZGg6GhUKHbikq8CFYycNkho5DvS0vRRRKQJTbaB1ryL4a5A5rLTjg14psaBnjFloGd5ws9+GJSbnhsKhDITjvLAG/Pz7/2j9KD5zwWYgX/wTo0+4QzpwOMxN1wm8TQ+BuzA7/+fIOykg/cJaIIOG8jA9xcnjpb4A489SPInHXrx1BPxcS/jhdHwQ374z6IEeUcvj96gysZDt1wVxCU+PXRk8fYrzpZyKI0ALOrf7RkyTAJ91/7xtwH95PfMfSOEFgwYZfvD8QfLe4YYrhr4G7P/bjsJwIYmvTC48Ig81SuG0YKflKetfKHInM1T0qYMpHHb4D/Ityh/5Jq6os54B+3w6JTDfyL/kd2zTzgkoJlhFuWf0kM7O3iPXcyAo/YPDDtetwO++78Ndww1xkR5dN+w8H40mo7eFcgAeJENZIH2CI9IQ2UR+VMZwEhh4DQPZIVOjf7nrmWyDSDhePzIh/zhK2AWYweQolOEHIwb0bHXBXqEcE2XZ+jFg6JGlXfwUL15qYCMllcNNHRoGHe8JYf+6BvSvkgTHgA+MdSaP+VE1tFNeOLgB3nzHv4/cff1kibvbW8EnRDi4OGw8+QZ2cMzqXlg6JELhmvgBd7vuVMniLyedcyBIqPEpSMAfaRBB0/p4B2yAY9pM1eccUKQNnHgqU0D8k25+O7c3/xC7k+OukHAB2HX/KFzQzr17k4aPVzADu+hU9NTWUc+8GDyns4Q72mP6vGhTPqNv3fqmnzzouCADGc8CGKaND42kMk3E33+1eLFovFjJPGqKJBAwaqRB6xgyOiZwzNVmBi8x+8aJsYVo33v0IsFIKAkUbKjhlwQgBgMHXNUUJAYVowUQ4rqfseoM89mxCVnijLCgKiS1nqygQyKG4UM7SgrQAtp8h/lB208kxdzdxR4kC7pqdeCXq8CN5TuhNuuEbDB8A5KmTvlwFul5cZ7xPCmKnIMEsaOeOR50e+OFlChxgLlr3nAl6Hn/l4MAgofntMz1jLqHQBEWmr86LHyn2+IA4AHyOBWJ22MDO/xIiodABmAPeGXDzhOvsNgUVfQDj8BgdQ9ZQIY8O73v9hX3ikt3PmedBiy4D9AAFDF/A/CmcuCwcLIwG/7zzH+ZQAAIABJREFUW/cZXgHg+C7qUlrJA3rwBBz1r7tJXeL5xKNBbxsgfd05v5M0MNzMtQA4I2vQBjhR44bhpONEmuQJYIPHeHD5f891Fxm8OOolGH3thQJiAVuAPfjDENacKQ8bjC7fwDvKpj1/t6Om5QYsEV87BhqutB3z0+9LneEdoR6RZ4AT7YHvaBO0PWRF/wMWeSY+6QFi+U+5eP7dYf8m/10gQ7uBPwzR4jElD4AYvMF7Qxp07pBvnuE/6SHT/IengGM6LcjN2OGXCyAjP8IV1MFbPF3IGeUBjGm5uVNWPJkAddJFvpFXnqk7wDH5At4Ioxxzn5sgz9QR8eEB9PGeZ9Ul1JfmhVzyXkGnhvt7YYCZdIBM3XXXJJ1VmJOhJYAMu/SlchGlauheqPInVOqRQSGgaLlQPigTQAp1g/KnN6xABtCBcqCnznuMDGBH6xGwABDiP8aGuChrjBzKSY0uhgOwwns8YcTX3jpAQ9PTeyogA0AijpaF3hsGnnR1/Jz3lIGy8axKG8OnRlp7m5ofd3p6eFnw0OiQm/be6TmShyppDA1KGzr5Fi8N71GyOmRmTyqFn/TC7fz0GS8FxgKDj2LGaJIWQJA45AHoYn4G3iWMLO8pjxo5DAPpE048vgPIYMQweOopoD60bvBWEF9BrNKD0SMckKR1hNECUBGOcQToASaUH/qte+d7jCCgGQMJ7QANhjdJS4EMxhFaAZRa/jN/9XMxngx1kC7l5Rvqhv8K+NQTRhjAjDgYTwAPaWK4eQf44h281PkyOl+D91qX0IxMAojJA2PKMCdxbrzodEkjlX5LBWRUfigD6bzyxBhJ57Qj9pN2gjGn/mmL5I88KHgiPrIMWKYsgFp4qkNFyDLlcoeWkDnAGe/4BllWDxzeR8IB9yq72n40PUAqnlDiMTkYOrigARANDXR6kEnaOnJGXDw4Gte+MxeO93hnCaczRBqEcSkgow3iIacToO+Ih67hP8AzCsho5wbQZOfrn/Nnc2zepwNktrY0xproC7jZrjkynJfQ1TEFqRq6FozGgHHE9Yjy0vFVehH859K4Xd35LlVcFBPp8T09PXofXPQmukrTfkf6SpOmZb8vpmc1/mrooB1eoCTwZmCUUCYobi2XTkbVuSQYbwUIxME1DjDiGYCCokHhYrRQLChwwBCuaBQj73UuhMZPB8jQeyQvLQseGe0104NWugFcGGr+K5DB2CsIUGCm8ZmDBW2UD2Ol7nq8P8RRDw1DjMyXgmc2oFMjifFXI4kXSdPv7q7DVAy14MkBcGibwIhAG8YIjwDGmf8YJRvIqEcGfmt+CmTUOFE38MCuGwCoxueOEaGOGV5R7xY9bt4xAR5QA3+hAeOVqv0RX4EQ/LTzYIUN3+vQEnKHHJE3cohh1zqAH4At7cWr5wEDShoAUE1bh/Mw0HwPH6OAjHrNACr6rd7VIGNIqXeAm9KfKZBRjwz8IB/1wBy73w+krTDsgseJ9KkPAA11pDTRzhSUQR/yp/pIAZ4LZPgWcIuMMEwFr2jngGWVGxvI4HHjG22XgBP1hOo7pYf2DA0ALjyJ0Irc0d5TAQkFMuSt6QCOaTvILvUKjfZwEjLOe/SUdkIA+NpeGFokLebwoLegSXWV5uHvRQhk2tb1DJBZ+bP9ujymIArI0EOkIWMIUIi4txEyntVFiIIDbDAxEvCBgKPAMH4oJMY/tRdII1VggjKlUZAHc20QfL6nh0QePGNgyJN3Oh+HBqB5kwbPqpgxdjQi8sYQ0AMiPg2F9EgXGriKobGo8Ucpo6C4dNwZw0TZmHuAMgAw0LPCsDMnRpUDng4FCJQZBUuvDAME3/DOYCzhGUafuRDUH3F1GAQFSY8OGUFxYXy01618BITqnBwUtipU0iOOeg0AMTpkAO24lVGYlAHaiKtAhvpT0IOBQjboHaKkX37sXqFFe4vTH75L/kMraagShQ4ABsob2nmPjKgXgeEQ+MY77eHyPfFIQ+dkEWZfAAW+0ctW9gqiFADqvATXIwNP+R6PGO0IjxB8ULBB3VFXvKNuAACuN0ZpUu8Z6cFH6pf2RW8Y44I8qMGnzTBcgxFT46rpKJDBkNJp0XCVReYhEYZMIjd8D+ClrdJO4QM0UD+aFkYTmWK4knf01LXe+Y8coAfwojBcoSsPqSfeA5IwxDwj39QXvKAtkAc8AwBBFzKN8cezwf/tBTLoK9JR8AHt5EndMfSic/Foc0z4Ji4X+cMfnvEYQjt3ZFiHuxTg6TfwgHqBT/BS2zpDp3hnSMMGMrrqUEE9bYG6Jh7AFhmFRtoT9aRzuwAW0I1uhceav3tXIAMA5R2dEPjJd1rPeKWgCVnBY3PnVefKey0zeor6pNMCXQBBVrFpm9DhWDdv/z+sb/LBj7Q8MhvW9wyQqTp3oGkcd3fsoSWED+XFuDsXzwAYGApIAFnTCOgp0XjoFfDMhF2Nj9JFCYP4YQrKjjAuwvgGQ0HjxuARhzCtNBSGKhIMNcoEw8MFDShDLr4nX+68g07ekx40Qjv58T3DCChCBUOaVyHeXWOJIuCiV6VGV4dU9B1KnWctHz1F22ODoUDpAoIoM3Wmc280DYwf75h7oGF4YVC0pEUY6dpGECCDkeEd4ewTwTMGjbRQxvxXpcgkRv5zQQ93NUaqBJmfgrv9/JOOCOISDyCFzKGs+Y9yVK8H8wLIDyDCOy6GMuCHDs1ouC5/1bkAKGq+RSnr+D8AjDD3on3Y6Sn4Ix48pR7wDGDQ8FCQJ/KHoucZ+SQfdbkTpnVHeUgHOcUoK73cXeOndGmPmzgsPSdceU4YMsMd7wzGnmcuaNI0uNPeCLc9I4TTrghnXgP/4T1p0nnQ4RAtJ+9o1xhLnScBYKZjg2xp3tyRGQV8GH7Kq0CGNksc9QAynGp/yzPfaprIgC0T0KmeAPQD/91LQTX1YL8DsJG+zR8bLCodyDftgv8ABU0DA059UmZ4ak9Gpu0Qn/k1Gp87dahyrLwEONGedGgJudeJ1wANvkPfkt7Nl54l/9XzpTRCB6AWvaueOX0H6LZpsJ+1E0GHhnDtHOi31Jd619AnOkyo75FjBUrwQQGcvmdYHB1v5+mfk2U0XzxJB8g03nWn6ZF9ZGquuNhw7HbcOTIoO5QXTAQIoHjVOKI8+I+iovfAM0aHRqb/abwACxo570kL7wyeG8AEAIe06SmSPhdCr2CJd7hsaXw0AhorXhmMK2G8Iz7pQw9p0ph4p+kAinimLIRjGFDu0OMOVeRLWLrKl14f4I8L2rlDv934UfooE4w1yppyEk+HOagPeKv5oLipC3iqYSg5PBfMoVCe6jt6UihMnfSKweY/xloNDnExyhge8sYbAH95RjnzXsuiwBTgA92kRRj5Kp3kwbfIF99CK//xWDA/gPoknLQBTHhjkAfiKG+QC2TF3rwOGggDsGhemg7fqnwThkxhpOwyEm5fCs4/mJU8xk8vmflA1BveK9JHPmkjPKuXkp43vKeXSj3AQy7NB5p4D5/cutE4eqdNkTbzmzSMNkc5MMLannkHSKZzQL1pXO4AR9IgLztc64+2QzjvNT3KRTkxfC89eo+0U/0WeVR50bygE3lluAYPLnF5R6eEelHZpP6hxQYTpEedwhOta76lLMgH+sPmobYHmydKG3fNg/qyw5F38lZZ03ekRzvBG4J+gVZkGf2DzGg8aAAEa1mQVb4BNFOnpI3Many9Ixd4TKgvJk6rnKh8Qw8eZb5XrytxXD7BB+ikbWg88uBbaKANQJ9bPqWDu9KpbZY2xTfUHe1I27Z+A+DCW8N72qm2X33PnTrmPXPn7I6QHcc/h/VMvviRDpAp3WN3Uz98eCyvzHbNkVl96slm1SEHxgYyME+VAAoDAKJudgRbFRBKhiEA3IvEpwGjPAExNASUHY0KoScNvqNhYXQxsnyLAkC5oeRVOZE/8UgDZUBD5o6CIW0aCXmjeKGHuChnFCFp6EUcGiv/yRtAhAKiUeZLQHy+hdFQfT34evAy4GXAy0C0DKQHZPYwa8eOLUwgQwVrjyJOZWuPi7j6rPeo79NJ2/4+1Xdd5RXnezuOf44Wbs8XzxcvA14GvAz0fhmIDWQql/Tczr6VGXhkvLD2fmH1dezr2MuAlwEvA14GXBmIC2Q4/qhHdvZl7XbN4AvSGlrCu6FjnAzfMBzDWLBdWMbLmbeiYcwF0DFdhnN0noa+93ffWLwMeBnwMuBlwMtA4ctAXCDD8UflRx1lWmbOzO3Q0rbN7abhzptiT/ZlqTJLCVn2CDBhBj97JrDvABO0ADmsJGBFACtKmH/CxE2W3/ENc2lYNWKDHC+4hS+4vo5yW0dMUmXiLRN8AfpMambiZXd8Zz4Xkz/tjgHDq6wcZBUSbc1+Z6dHZ4S5aXZYV8/kxaTdOHPImNBpT5rWdJnUak/Q1XD7zmRRJkPbYTwz4ZnJ4kzc1c0U3Tj+f27l1PPX8xcZiAtkNjeUxwIwutNvxpN9t23akHKSr65igmgVYCbNssQVRcOlu0SyDI89PFixwIZRxEeZAWpQpsz8Z3Mk4rE6RtPzd98w+pIMsGKLSekYZCa6A/xpG7QdAD+bqdFmWOHD3i6suNF9eYgLrwA4unIIsMBmbzYPARp0LtjDhX1jdD8d4gCQAAqACfJhWTCdCzyoAClWIAFwaKOABSbp8x0rUljNwrJyOjDkTzqs+AF8QQd0svKFJcBs+Ee7V7rIl3CWQKND6BCx0ywT9pnUr+CGyf2sWKLcpAsf8PjyzLfs5Mt7Fg7gBYZmJviTD4sEWEAAH1lRxjeUgTSVd0qPv3u942UgcxmIDWQaq3oGyGzdsD4tIEPls+wWJcW+F6z0IYwlluzTQc+SHhNhrEbCU4OiQqnyDfsYoFhYlplKkFA69EqJw9CVvzwPsiUDGN58yRWGF4MPQMEAs2cGBhujz/447PXBrrh4Mlkay341HAGAAcfwY5z5jn1NCAcA4eUEEAAgAAVaNm1bABk2TKNNsXqPvVvYAJAlyuwTwp4wrAokbw4QZHde8mBPIHZ0BuiwRBoAQ3z298AzgseVvUEATCwPZ48X9qhhM0H2FCE+3hvyBcSwsR+6gL1KADTsOYM3l/Tx1gLgAHiUH4B137BLJB7hfAsN7LfCpmt4mjhJfNi5p0hZKCPLkeEb3mLKhJeKXY/ZUA+9A1/wTGVLjtx00Fdcbrj/73XX9sgAcovO2p40MvmWfN3pIqpTuMcFMlvW1fcQkGlrThvIoIjoGaGAADAUjF4iYSgU3XiMJdMoXGUAm1ahsFEyAJtUjMI1DiP1O3/PHDl73oV5h1ylWtnWE7wib3azZXdcPJuAFMA93ko8nJwXRPsC8AAciE9cHYplOwE8MBhnwAtAgnds4MdJ2Vo2Og8AHgCHhqHQ8IiSLp0NOh3s7IoXBprYQBEwA2jgOAs8O5ywDZ3qeeU9HhVAArvL8p72TLvGk8OmbfCRDd3QBzyjE/RYAPQBO9Sy8RsgDNCDt4dNEEmbYwbY4wQww2Z20AtQYW8ijlhAgQJybrlsYLBJIkdP4AUGhOGVgVb4iE7iCA/d6C+X9Quv4gy55ZIGn3a4rfcGftB2C9EWxgUy7SuXx94Mb7vOWuJAp9Z3Z5mmNE6/RkGgjPDG0AtiPJ6eED0qlCrKDfcuPTCUEgLFN7iiUV64sVF09GCihI3KQ+ny7qO3ppn199xo1o+8druudXcONe1P3G/+am32FpW3D+t9ysCuU+RKDbsd3pPPGGgOqqQd4JVhGId2gREHFGD0ATUYYXpjeEEUyEAn7Y4hKoZ3dAdYlJ0qPNoVAIm0ASikyXcAHzwvhAEK6ITgIWHICLDADrGACdosbRdggocFwINXhLaOx4S2TfqkRbsnfcAVfMW7hBdF0yVfPEHEB/yw4ysbowFgAFQAFeJQdugFVGmHB9CDB4bjCaAVsEQYxyeQJ2DnrGMOlN2DAVd4mvD20klil2PiUA5ot/lHftm+cgFkPlvxrvnz8nnmM38VHA+oly8SR9tkW5bs9GxbaIfn+zkukFk77gFZtaRzYLq7ZzxHZnNTrUz2ZYmUzolx7xBtM47xbHqMhOEapyfHrrIahzFtwnSrfCoDRcN73Mz0JnVISr+x73bl1Z3zO1Nx4qFm7ZALtutquHyQKd33X8yX3tMT1JPN877yXAhAhmEivJXwnDkozJdhGJa5KtDHPA+Gidg8krZAmyGOW0e0QybTu+F4OgFJtEN2S9X5J6RFODu9ApD4Dm8Im0HSxtmEks0rmVuiE2v1WwACaSndDGuhA/D8AJCIT3qUDdDBfBkbPFAWdrjFY8IQGYafeHR++A4QpvNx4AUXQIpvoBlwBsiBXmjgHd/xXr8jnHjwke8BUICmntipO9tA5q/rV5tVB+1lFu+6o1nkr8Ljwbe/ZpqGXiwyiBzm6rJtYa7yyCTduECm4ZabTcluu8UeXsoYyGxpqjFrJ94vqGlDyduRYMYFMpkUPJ1v7MqrP/9UszlxSnI6aUTFrTyun/lL7bKcCV1Unj4sd408E94WApDJhG7/TWHJkVsfuQAyJT/6hqnsf7hpf/QefxUQDzZOHG2Wfvd/mzWD/5BzW2LbQlfm8vk/LpCpHzLErPjxj3MPZDY1VMiwEh6ZlrdmFCSQ2Tjh7tgCEwwdOUNIuAFXH3uQ+Uvd8thp5VNQfN65MVweyGTG1y/XrjJfOW0qHRnFw/BlzKM/aMNfphh2TifPnoybCyCz/Pv/x6y97iKvr3Lo8chURkp/9A2z5rKBOa+bogYylUtM9dlnyz4y3Q0p6fuMPTLtdSt7FZBpHn65qfj1Yabqt0eZyt/8wvw54Xr3QCYzA5ZpQy/U7/o6kPl43kzzYWKlYTp11Mzk/BTezE/ef81sTQwdp0qTfFsTJ4inivPX5gqz6ekHxWva/uSYnBuJVHRkEp4TILP7zmbNlecUFR8y4V2xfQPQLvnhP5s1lw/Ked0UM5DZVLPcVBx/vKkaMKAHPDI1y3sVkPmi6gNTedIRZtvsZ03tH38bKFgPZDyQQWH2JJBp54Ts1e/LJHMM+ScLXzVNwy4xH8+fZT5+92XT/vh9MmdrzZ/+aD7ktPaSt03b2FslbMNDd4qS/LK53Ky/c6goza2znhFD/9d1FWbrS0+ZD19/zqy77RqDx5K01l57YUca40aa5usvNR/NnSF50atH6W5jTstV55paJvK+OMk0Xn2eabzyHNMy6gZTf+EAmVAJIFk77JIO2hpKJX77pLGm+cbBhrbVwuZ7S+eYDePvME3XXyqgqPmWq0zliYcKnX+pWWo+W7XAUPZtr0yWtHDFf/zWNNM66gazdcYT8p7yb3t1inxPfsT56K3pZkW/vc2WFx41m6c8LICGfKH947kzzEdvvmDWDr3YNFx6lpRdDeDmqRMMc+Dg2acfvCnlWnPF2eaz0nfMtlnPCBig3NDecNHpkr9+m627BzJ9R794IBNv+TVOEvW0xL1n7JHZWLkkcjjJnvCb7zky6QwtoZha77nRVJ56jHhlMA6EeSDTdxRNV8apJ4HMxkdGmbYHbzMNFw4wLXcOFUPa9sBtYvABD3Xn/t5smHC3abrhMgkDHNQMOM5sfPQeAReUo/2pBwzeEADC5+ULzdqrzzN/bS43reNGmg0P32UaLj5DAAaT4be+/LTBk8G8MrlfOECAEe3h47dfNAAOjP6mZ8YJUGkbf4dpGzfStI65RYAH9OIRWXf39abuj7+VFYN1550igAIAVvX7XwYgg0n4ABzKwJ20+BZAQjkII6/1ibR4Jk7r6OHmUybrznxS4m2Z9pjEqTnjBINnR8HYuluuEg/OhofvNJ+vXiTzEVi5CI2AEwAO/AE0QSMg6/OK903jn/5oPnrjefPRnOmmefhlksamyQ+Z9SOHCE/wCsHTrmQkk3e9Fch82Vwm4FiHBRmaR6cGQ/jdDPt8Ubk4JXD8vOw987G1kIThx4/ff818ldj4Uf7Pn2VIQ+vki9WLzF8SE9U1rKfvHsjEAzJMW4kLYDRe5kCmfGHRARkEvKuG9OmStwyKccvzEw09WgTdAxkPZJCDngQyyFz5ET8VTwFeETwhzDOpPftk8YQA0MsO+zdRzI3XnG/qzztFwACrVfB6AF4w3OtuH2KYo8JEdTwNGGxACYChecSfRL4BQ4QTH08ksr9l+uMCdjY9O95gNNaNvNZsfu4RMegAHbwyAAzi4sEkTbwfH741zQBU8OAQBt8ANpUnHykgAJBSO6h/Rx7k8/xEs/6O6wztsvbMEyUuwIJvPnzzBVMP2HlyjGkde6tpvft6AUh4kAAmkt+bL5jas37dAWSuPk8MJUCm5a5hArCYL0O5yQM6ATy8JxxQBHBjNSL8Yt7Cx++8ZD5ZMNs0XX+JADn+AxihhS0YoCXbxq+3Ahm8h4v+5R8COWPyceleu4o8dsdD5HHZnt80q4/rl8TvzZMfMqU/+6FZ0W8vAfqA1cpfH2ZKf/4jU3PqMSLL1b//pVlx8D5m5UF7iWeRul+65zdzUn/dlcV+74FMPCDDQiIFKHHvGQEZzlmyPS+pngvNI0OvoPYPJ0lPDvexLWQ8N1x8hhgNFCmubMI8kPFABjnoSSBDfs03XCagBK8AHgnC8KTgvaBny/AMYSj2tgdvN3+pXSrbDBCG9wa5XXfr1WLIGX4ClGD8GSrhP4CAuHhx2HcE4w5AaB55rQzFfPT6czKEQ68WAEKeDCnJcM/8WWLcGbLB2OMdEQ/N6OECnhgKC9KfcLdM1gVUffzuS+L1JA+Gj6CRIRs8RpQBuqGp9b4RMpwE6MBLQvrkRVyGtABS6n1ibhvtmrh8v4ljBlYvMk0Mi1020Hz42lTxOOFZogwAMgAUPXp4x9AStGN4GaoD+Px5yRyzddpjMtyEHqA8eHMY0oK+bF69FsjMmylLwMsO/VfD8OjSXXc0K376fZl7CI8BNgKaWUrf/3DTev/NAV/XXHKmKTv6ABl2dHn952VzZY8c6qtkz2+KzFf86ucCRlcduKfIEfnxXfnRB8jwYP0Fp5klu+8ssuum15P/PZCJCWTS3NUXsJMZkIlxzhLgptCADEKLYltxwB5m6Q//WdzRuNtVmHEflx21n6k84RAZ9yfcA5nsKm7ldbHdexrIZIs/zIvRtOxnDXPvOhTghsv/hOs+8l1bdezVRUl5RKxqSorTVi2eGztvN47rbcXTY8ePeo4TJ+q7bIX1ViDDxHBATNXvjjalB+xhqk89RjwsH8+dLkN6LKggjLlaFcf1M58lDiEFNC8HoFxzvlmx/+4CPl1eA7pX//owAa/M6aJzSpyqk48MPIF48QA2OpyFTleg7KbXU/89kIkHZNoWvC3burTNnRvbM5MRkNFzltjVN50N8XItMPZMbdzGSXNkWqukl4ar/OOFr0pjYaxc6aK3W37iodIz+zIxnuqBjAcyyEexAhmVbX8vTDnurUBm2+xnZGM+dDCb8zG/CGCDB62s394y8Rowg2fRXo7MZO/KU34lceW7J8cEE8iRYTxzdEKX/+gbZgvztp4db0p//B3T+sBtpnTvb4nXbM2lZ5n3dt3RrBlygfmUuTNt1TIU293qt1y3EQ9k4gGZlpdmCK7YVFaWYyDT0ihDS8UEZBgHb7j4dJlkyPyAtjGdrkwVYNzIGx6/T8ZcOeKAcA9kCtMAaJ311N0DGS8HuZC13gpkPl38hgz7MMeKYUM8LkzIliG8ywaaxiEXBBOqGTJ1ecvqNCZmo7dL9/m2zG8iDh6bygHHmdpzfifTANDPeFoYnmKe15eNKyUcL03VwN9IGN8133SFDEm6+fTkfw9k4gGZ5scmCpCJOz8m46ElTqZk6KiYgAxuaFY8MA+m8rdHmboLBsiEP1uQZfLhPTea8l/+TMbweeeBjDdgyIEHMl4ObF2RrefeCmSyxR+ACRPL4wyLZivPXKXjgUw8INN4152mdI89YntjMgYynLNUbEAG4WQFB+Oo6+8aZsqO+KnsGwPiV8HFHYqLksmEuhupBzLegCEfHsh4OVA9kc27BzJ9R648kIkHZOqvH2ZW7r9/7oEM67yLEciwrG/18QfLqqXqU34lLkhdvdQ84gpTf+lZsvEYS1518lkcIPNh3fLgED4On3MP5OMgPw7ky1QBMveHQ/Y4gE9PKnbT4kA9NyzqPwfidUXLX1ur5NA8+1vy5DA9O8x+5sDATdaeDbyDHujWww3t+HGfOezPTTfOtxyUSDk1LgcYcqCh/ufeFb+g+c9srW+tUPFApu8YHLvec/2cDyCDTmOrCS0b3mqWoTMcxPJ9wpkky74sTIZ2J1Xrd/Zd5hR2Mxmc+KxQ02MrmLSradjPGsadxRi6FYYdbj/jtQlobK0KHScDeJD8rLZsfxv3maX7ui8N8ypt/mFXeN/dxHEBMnvsIisH4+abaTx7vmimaeTiuzhnLTE3ZuPChbkHMuy8B5BpW/SGDC/xHHUV4qolllHWXXqW7HDKeK16XjiSgLFc9ryQIwqWz5NGFgfIcKLu43cNk5N5OWX3taceEMOJAcWoznr8PgE322qXGUAPYIdThDmdGIHjf/V7rxjeIzwYUkCLGlPevzX5IfPqpLHmxYmjg8YPuADgACReYDOx1YvkP0acdLmTLulgiEmXeJzyW7/4DTm9GFBDGgoalrwy2bz06D1BHoCwuVMnyInDlAWaKS8nH0MreXL6ccvK+cHJy9BLPsRdys6zTWVy8jCnCQOUSJN30EVaPCtA4w7NhHPCMbRQPvIijDIQhzIQpic/c4Kxgh7eT3voTvkenq6cM11OMoZfnLZMvUAfdEKLAk/4xfXB7GflHXwhLryEVu7kmY8L1zrKvk9dnDgfwzjmoz6ylWdPAxnkh40Om2+9Wpbys1yduSuyt9DtQ8QbzfJ8lv+3PzXWbHnukU5g0FIpz4AGWSTRWiU7JW+d/rjsHQRPMOouKGF5P0acibcNl5wp817YoG4+ACMTAAAgAElEQVT1sQcKSPlk/ixZjk0c5tToMBIb2LEA4+M50wXQkD5gAuBCPsyJATywKzObP/Ke5fXs/YOnnf2T6KjyX0BGApgJnWXvBeCHfNlWgDSxB9BLHC7Kyp5ILWwJcM+NMh1BdrW+b4Tsgv3Z8nlymnXrg7fLnB637JoOd/JhYvLqEw+V5fzKQztOtp7RVej8bKWXrXTiAJl05sZo3IxWLbXXlEQCFxfMFBqQodeBENZecJp4XtzKYaUT5y3hrWEbd97HATLEA7xgAGc+MkqM44IZTwi4WfbaVMPz289PFHCCceYZcDN5zC3mnRceFZAyafRwARekhXIDEE0Ze6sYVKVz+evPST78xwg/OeoG8/rTD5qSN543T7Er8fxZku7T994kz8+PGynAh/wAQlwzJtwt77hPfeA2s/rdlw3xV82dIe+I8/Jj90rZMfAY/FeeHCNlgFZooowAqrJ5M+Xd7CfulzTffHa8oRzQSZqAMb6h/MShzLx77sHb5fv50x+XvEgTIES5ADHP3n+zxFWayJ8ykAblJR/SqnjnJQnjHWnAT4AijRi6KQflAWiteGuapMt/wBV5LHr5aUlH6SJMaeYd5Vw86xmpD+okn0Bm48N3maU//o5Z+u2v9Y1r951N+eE/EU+Byn9vvPc0kMGYiv5gMu3wy2WPF1ZxcpwFBhtQwqaAHMvAvjrMG1S+szeQ7O0zZ7p4FQA/GHfOdWK/I3aIZlItiynUoy07TN84WDY15BgNPfkZI079MozPDtE1px8vQKdp6MWyizPzYgAnrGIiX1Y/sZ8QeyMxNYCwmtOONbq6FL0OCGKC8CfvvSKdUuhnPyAmE7OhIeCJ71jUAY2Ulw0YAUbsjE367GEEX9jFmnLDD3aVBqB8xHEh770ivOIdq6ZIo2OPpJdlY0poUH65d3jPppWLdt1Rrg923dGU/vT7Ug6WocNrWS4eY9sAN233f9ECmcolaXlitgvIxDmeAFDTFZCh94yBwmBoJdC7xljREyaM3vQbz4wzG0HKbdXSm6bha3z3blde1PJrGg+7RSKQoHi3twdyZ9MwdlVl1jzpxwUy9OzvHXqxeBAwphhSDCGGc95zj4hBnzPlYTHIgB4MPXc8IBhsDDGGnTzxUGD8ARKUiWEQ+DD+5ivFs0EcPAQYcIw3HgcMPGmRJwAFIES+eEEIA7jgXcBoky98Jk/ivTvtMbOleol8B5CYnlhFQLrUEcYd8ICXAw8J4AQax9xwmdQfQEEBEHkDGsgDrw90ASgAdJSf9JQungE2z9w3QsAY5SIdaIR/7818UsrIt4AM0oE+BVHwGzBDXsQnLwAeMgKdeIvIgzQpC+lRZp4pD+Xmggfwg7jQoPyhnKSBJyrfHhkMy/u77igrQVDWvf0qP+ZAs3S3nZJ699RPb7p6GsjAO3Y1ZnNDhnkwrhhRhkb+zEaLnOn1zkti9Nk8EeDAxoF8BxAB5LByqJUzs4ZdIkdPsBM0GxSylBpPCKAGTwrfcAQGd9mdecwtQVrQAFBh8zs8QiyNZmNCwBHpIu9sWsgmhOxDA0hix2ZAA3RAk729BoCDIycAVuh5jvIAVPHNxsfulfQBLeTD8mxWOnEMhg6lka/kcff1HXRfe6HcAT3Q8tmyuQLYODIE4EWZKCPv4BPl0434eBd1iUdmr11lB206ynzLTtcrD9jDLEmAG5ac47Xh3D923YaX1E0wdJYibTe/wBbm0Yvs0sT/bj0yPQlk2isWbZdHBmBywclHmodvvdpcPai/9OIBNuefdIQZNeQCc86vDxNDyXsMDwYcb8MDNw4WIxXFIMKCymurlu3HbUGX940rZfvz2vNPlT1ktHci6bVWyV4HCK7tWowLZEgDQ80wCHRg3AEmVBxeDzwOGHAMKKAHUMGQDeCNZ4wtd9LBGAtNCaFlGAojC5hR4IcCxFsAmNHhHTxCvMdgQwc84x35AyoYmuK9AiWeCec9+ZEeRhxwwX/yIH3CoI2hGcrI97znHQCId1ykR5kpK+AMevBAUbeUD7qgB08OYdy5eAdPSBOgQhp4TQC0vINnDCtBJyCHuPAYWqCRtOAtaZEGwA/wxTeE8R2gkDQBJ8QnD2iGJr4ljG9IF6ADncSljGpseEf6+bhQevTg8pF3PvJkl2F2g+3KVZ8PurKdp8pWttJlCGV5F6dfswsyRrJh8B9keANvBACCIXdAC8YTgw+AwEMAyNGjGRiGwvBzyCaAAZnkgFFANUMzepYVAELnHgYemXtvks1IOdSTsjKUT7p8Rz4CjsbcEqSLJ4bOJjtAs1eMgJcpD4sHBO+KnB/GYaeJYSB0ObsFAybwauBxERAz4W7xquCVwdOC50k8RzdfKUBE57XgiREa7r1JyqPnajFHh3Kuu3OoeKPYUBVwhmdKPE+rFoQ22iMNQFpUfUJjyR67CCBy3zNkRtqAJDrhHEGC9xXvDeCGOmV+J6AJrxLTIqhLNx39/2VrlfmspdJ8UfG+2LzPSjqmSuj7fN27AzLtqxfLqddNEyak5ZlJe2hp25bNAYhZO/F+U9H/+OB/3KEljOwlp/xK5jpgmMYOv1w8FI/cPkQqBg/C3decbx665SrpLd9x5Tni7cBodlUBGBrmR1CJdVEb4rGz7+vPmYYrzpbD8Ny0QPlVpx8vKFnGLy2PzOc1S8XIkUfUxdwPTW97DJ5+S3qaj502eRDuhmnemd41X/3e/a/hes92/qTbXZ6aN3fNX+/6jjTSSUe/03vUt+QBuMQzo+n36L21SnqPABmMjNLKHaDNnAY7LHjOBvCy5Jrhgs0YnSfHpOx9YkhsGund2+52XPPMKwhoTAEMMY4o8i/qS/LD8xTtPNv1jqdPvX1ZSbu5vEsggzFl7sjnVR+I94R6UGMO+ADYEKYeAOaNaIdP7gl5QBY0jsxbSXjKZTKv0xEjXc1D7zqRWOVAw9G70CB5oecSMqzzZpAtjqDgO8qh9Eo5LHmnXRDXToe0NR3oJI7mT1kABsRXcKTvuP95+bwAVMvcG2vxg6ZJPLb40GE1+3ueSbvkh/9sGi4bKDYqqO+INvBXOmS07bkzTOtDd8pCFFbaLv3eP4pnFoCz9F/+QYbnSE+O2Zg7I1SmL+gUL3xV4pf823eDY3e+TOjaIP8sy7qrk20+dAdkwBAsva4fPjy3QOZD65ylhjtvMiXf+27aQIaC4XkZcNT+5qSD95Ee9l1Xnyduft7Rix7KCb/lCw3zPAA0XHgk6GXbjLGfqRiGo0CiNZyy+8ioUFzGSOmNcEov82Dc01BBxFWnHmPKf/XzoEeBq7TimAPNxxXvmz83lckEKiZRuZcqJDfc/k8c/a89Mf2v79xwfe/eNZ7mixeCOJqOG999lyoe4Zq23nVohf9MDtY4bh6aJrQQl/96Eabvo77TeJqXHcf+zn5OFccOt581D8JSpWPHt5+RO0CyHdZTz8jz2pHXivvZBgnIPopzxU++JyszUOpiSJrKZAiAievIPPHESCUMjByUWLdc5B+Px2er5geT3m0lvWHcSOkQqMGiN7t8r11N/YUDZGdVeq1qdIjDxUR53PRqbJjHwJwGmUjJIZLn/E56+UITnrUUExIBMku+9b/Mx5WLu2x3PVUHucgHGWQYmitdeYyiB/30SX2JWfaDf5K5gLZu9M/58aTafAfIlP7oG6b24jPERkXVoYZRl7T7z+isJC6eP676wGyeN1M2bmVTwcrjDzbLf/jP4rURcPPtr5mVB+5pKgf+xjTi3RlygXhy8erQEVrD/KWEt0bzyuYdHYkOt8ttP8cDMrv3LJCpGXxBRkAGF/4VZ5wgPS3mgtx6+SAzceS1MmGVQjOUcdPFZ3Qo4KYyM/raCw1AB+/NuMSpvTZz9Bkgg0Lgf9QcGZQrAGb96Bs69pBxjnWXk3kTh0Vqmjq0pJPKNHx771Q2xt5NhzDK4Ya7/xVUaLiWW/9vz11pUH4yzEJ60KxAsqv8EGZ3eIzGEocmhq/ilD9OWtmMQ3m76mlkM6+otDj9Ocojg5ucOV3sRM1EQkA4YII5EIu+/TU5cFJW4510hKn63VHivq745c/k1GgmaZYduZ9ZcdBepvnmP8ncCE4S5gKMcIrwB9/7R/kGmpgfsOrgfcT9zQGADAlwYjZj+AwFMdxAu1t16L9Kmps5qHLwH8yKfnublQfvI3MaZD7BvTfJIYGyQvCkIzrmqzm9UvXIALqi+NFbwgD4XFkrT0tllx6ZWPlYXrhY8Z26899Egyb1yDAPM5s8ogPBcnCZIH3jYFN1yq9kng3zbtAZDNFy6Tyc2oG/CTo42aQjTlqxgMzuPQBk9JwlXECZAhnmZZx9wiEyuXTEJWea+4ZdIl4Z5sYAaP544qEyYRTDiSeGuQ0P3nSFAJx7rrsopRBgANVgRgEZ9hNgUlbT7UMMp6i6jK8/7xRZ0YQRUPeiApkuxyNbKmVyLvNd8FgoQNHl1NClk1DJk/dMYGVOidKg7wF2eKQ0De4KCkgbY8qdCarMJyFt5nowj0TTgm/Mq9H/gA8FBzzznou0uCvfuPOdrvaBPibQssqIZ+bQACZ13ommz51eJenxPZN3daIy5WHODPThYVM6iEc5+JYwysPEZF36DHCg7HoRT3lk59tTz8iV0t5Tedr56ByZJI8MQObI/cQzwx33OePrjKMDSPCwlPzoG+LO5qA9gIXGW3PVuWbt0ItlySqghcmSZb/8mZyDwyoS2gpKT+mAhhU/+6FMomSCInMXAE0MFclqlZuukAP88BJteeFRmVjPSfIypj93hgAulDh54kXiFOSyYw6UiZmah94DIOMMU+j73nK35TsbZWKIJmqODJNhq876takacFzHCqUbB5vqQf1N+5P3y8RZdB4nhLNaB4MLLcxn0TlKDBni7bNp1JU9dpj7TFoMJ8p8l1nPhL534+p/5rggP/o/zh25Z95NnLgaB5AsW3DEBGJ/qV0uYIHv+Y75lN1N8NW8uOcKyNh56DN5fbh0jrR1vDE2kFnASeQ//1FkB0K/z9W9YIHMqkMOzGhoiXkyrNxhEqsaCAwyYRhKGEkjp+A8A35YNaPegShGk06XQIaJbiceYlrH3tIhkE7PgwPJ2OeAGe26428cIMPcHQAXRpjVL0wQZRIpK2kw/hhpngEBlINVN6w2YkIw5WBSLuVmYiyGnwnOxAEMkB6riAAtpEv5WWnDM2AI7xVpE4+0AAjkA6/gHSCQ96QNHaxeYjKrpsWkV/IkDzwpABL2WqEOAB6AE74lPV2NBNCx64GJveTB5GUAD5O04QlpwRd4wDfEIV/qmfygU/MkHvTxPcvJicvFdwwpwjfmTnExMTeq/nMZVrBAZvrjsuqBuSsVRx8gypLD+dj/g9UP9NIqTzxUPJCN114oEx85tA9eIessH2WOTWX/X4jHpRSAceU5oqQxVIyts1Ea8VllUvKvu5kWltjv+U2Z8CgA6ILTxAvDBMjq044VMFN9+vFyHIicecPmk+f+XuaeNVx0ukwoFc/P739pAFOygtAxJh7IRPfqu5PxVEAGPUavHdlgRQ8rjWovOFXqChlgx3M80p8mJvKTD6uHmNjK3EEm3QJ0ALeAVjyBrDZiAu3Wl56SjiFAFy8d+8UQBw84AIO0WeGz5tIzxXPHMCcgAHmR/bvGjRTZQv+SLytG28bfIXIJDUwihl4m1zKcyfdMQpbJton5VrIa6fJBkh6eQWgm7fV3DBVAxmonvIbr77guAEnIPYAd2pjsK+W7b0TwLXkwnAqA2/DIKMNGqcglNLJsHDsBHzZPfbiDtkljZT4YPMKjSSfCrq+eBDLk+0lDqRykuTCxIoo2y/E8DPVSny59Nq25eo4DZCpPPcXkfLKv7ZGpv2WoqTrnzIyATC4Y1R2QYVIanhqEsfp3Rwe9DaUFwWXoicb50ZzpIoRxgAzfY3DZTI1lvwyPPHH39eLNYNUN7wBuGHEAAQYb48+qGL4FsGDYARXEx9ADLjDaxAHo8AxYaVo+T1Yf8R4gABAk7P9n782/orrWdeE9xv3uHffc77vnh3263Zycs8/Z2Zud7HQaTdRoYt8bRUVAQUVFBQRBRcW+V1QU7LFHsccGO0RQ6ftORaXVmEQTEzusP+D5xjNXzWJVUQXVU+j6ocZaNddcs3nnO+d81jvfhnWwLAIe3rNMgiXqGNHZHS3F+J9SDf5neQQsBEKUurAOSQf1lebN9FfDOpjOfARDrJd1MI11SNDFdhF4yDIIyEgXWkxR4sI2s68sQ9KKeZlOayRKbkgnAjBaJUnzapZDyZDsmyzfXVdbgQyPetRKgI62k1Yb5o6W+PVKx2C8UgmXGxktQci3whKD/jMqs8TGwo2Gi/JjOjxsKBeLMDcPKidKKw0eQ92PmiLAC0XWD6KmiIjDbD8Vd+lI7X7EJHG8xOe0brkXOkGAG24E3KBqF4XhQWSQ+BjgQk8/JTzP58bG/9yoeF8zd5qwCDGnJ6MBGecCGY4fTaeLv/ASc/NV+S0RVJGRpyl1oZUQN3UCEEpQmJ/rISUPBAbkMYIKbvp8Tt8qBA9qnzPc2Al2yXfkI27clHqQ7yi5oOUQfbWwLPIopUB8Jp5fO2XwzyKOKpdGoC4mROhd1cWECXDNuoREPTJIHGeSZ+kygxI/8jSlTmw/20WQxLzsF6U7zMN6CIjIj+yfmDtbV4gjTwHMGMhy3QLRB7af7/Bd8iL/UxpKMMR3n57eJ9LYF+FHhnTaEKO4R1gwU7SDc4N55c/dQOb71CNCOkvJJ824TSVqsl2tXatzM/F9pbEVbWv523pmDZBhLEfpH8baq81WSz82PLAIXKy1Wmqrs/Y+bwvI0LQw7/1/EZOCgMbUdTW/Pkr7dUFxpz/jp/OHBQNaC2S4+UpJCSVJlM4QLBCUUMrATZySCUo6uIFT2kBdIfaVgIIbOUEMgQA3dG7kBCUEBQQ/BAp8xve4wdNnDMsiCOFz1s+yuOEyjflYN6UoBBoEBFI6w3IpPWEevkfJkAQqatrzGIqAjEdFlDARBFE6w3rZNwlkyJwsiyCEbZcAjWXRtJl0YdspSeE96+f7BHRSGsd0vsc00o6AiX2U/WZfCGaYh/RVt9Md99YCGS6OlaP7If8v/2pRkdVie/UWJfzi5MLPr1thNrowBKW9PhFWCqZHSxbLUi2gHTGPBmSaN0Bbxs+SRIZl3B7TX2zE/BKnpOy272BUDP1KgFpKHAhUqD9F82rml0ralI4wjVIGAVJiFwkgw/9UJucGTvBACQl5llJAethlGQTzwkvwjrXC4o1gl4CC40udKwIDggGWQ0kR3xGAhabYa6KFDxhKRZiPvM920EKH7xC0sD6ahBOI0NyagIPpbAOBDY85CTooNSKoIYimRJH1qAG+NCtnu8S7x3YJUE6pDftHsEJ3Hiyb77I+prMdbCc/ktkugjk69RN9UllFCVrorZacrSPDsk1/XFefVWYZrMVMn7f2/0VNCfIuKx+p/n6ROLb3YIvyW3u/tWfWAJnv7xS5Hsg8abjfYYEMGZoMRkTOr0sjgjdWiGeVY/qD/hLkM2uBDBmHeh1yY+b73Pj5n8cz/Mln0qqHabIe5pX/1Xn5jty4eS/rkGXJNPkuy+M988myeXwjn/Oe6bJcWZd8Lt+ReahDQ10WtlnWyWfc2NV51fWp88m2ME3WxffYJ9kvWZe6bzKvvDIP26CuR12/q++tATJc2Ci+pSiXZpaUWIh2cexpHUSAknZSiKX5JUm/HVzUKAWkXkv+X/9NOIHjmbb0/inOt//tfyPnD/8v8v79/xqZNru6z+1ZvgZkWm5O1oxHa0CG4Jgfb5QMUBL3eH+c4EvyKb/WeeXGLz/waDbPOEeUntHqjECCQIZ6T1wjmU4/K9JEm0dAz+lHi/pvqk2cR02U7DCd84BAilIXWomKcmU5eh0cYVWnDzHAI1Me87NuWRc/Fgia7vgOFsdYpAv7zT6x7ZSEsE5RF8uhhd7tHCW8QXW+kWSCwIqO92Q8J+4RRu/qTbzpG4bASJpWs0zR9vKbojwCNinxYEgFSvRJZ/WYuVMiw/WWlk/q+q29r7h5DV27+aO26BZ69ArE4Z377CrHXH3WABn6krFWEiPz2SyR6ahAhme1dwO/FSJI6gFw85ATVhKcmwud5VF8LieitUBGlqFd7VuAPZ1urQEZLoZUeiX4MFgJ/PP/FLoB/MKlrgp9PkirAXU+KuIWf/6+eJ/KttzA+VVJRUsuhlSk5SLMs31zR0uuopvRsZjJgmwAaPoNxBVt0ICMffOoNSDj6DixbOpWUD/EiD/MSAQcrau19wkieOQjj/9by+tJz9wNZEw/Nq2lxc0L5+D13gCsXbYRXu8PxbbY7W4FMg2pyajdu8cmMGMzkPmxrtogkalL3gNWanqkJP8TfVlLPGfkIwqVg2dqtfRLRgrK+34uFCL55VwxpAdemfikIeqmuDXf63cGDXgNyNi3oDpjPD2pDEtAhmJyAhNKYQhU1KaOlLBQqZXOGSm2p9dOiq15bElFRH5p8ivTmn5ST8FlQIZ+JfQOvghSKCUq7vWJEJE/TliFou4forR3JwG2KOav8h0kFCLZD+n11Zo+2JJHAzL2zTsBZOhHJnSCVXxly5hoee0bEzXdKKl119GS3AvV9Vtzvz8hEYMHTUWnLj4YOXwGCtJaWvhaU465PNZIZG6HTUX+H//gWiCjlsjQYokm2BK4mF49CcjQkyRjgTDOBpE8NfVNCU1nXfSLoVY+1ICM45PXlM4d8b8lIEPFx/qVc4RuAYGGlLbwyvN7Z/WVgMklQIYgpiRDOKrjVzbroQSJSo8MuMfjA8Ymo/5Y4cf/IZTlOUcqhvUU0iO1dMZZfWU5GpCxb95JiUz1lDECKBMsaz/PoAH3klyGKHCyHxlz8079UW/ueWtpC6JWYtfmnfjwE2+cO5LstDWMdVoDZO6tWYSs3/zGxUDmYa0BuBR+9EHHATJtiD+pO1PS82NUjO4nfGdIMKMBGfsW1NYmSkd8ZgnIqPtCSyWaE/Pokr4apPKiOo+9964CMpTEENwTpFBnp3LE18KxXtXofsIPjFQuLu3+oegPlRqFnsT4YcIclWautICyt1+W3tOAjH3zTgIZAmlKCLWfZ9GA6wItxSzxvbPSHQEyEwPmoCzzKvZvS0RtoXNdXVgDZGoPbhNA5nFRodVgxuajJbX5NcMTUAxkKomR/z1KItMakGHAsb6fG4J9UZNffk1rQMa+BdVZE9JTyrEGyMi2UqflUcIqcfwi0xy9ugrI8NyeYIY+RKgzRl8Z9EfDoy9KgKj/89P5Q8j53T8YFI357M74Yajy7iuOaGUgQEf7qH5fAzJ2zruGcmHZQ4sj4TeFvlO0n8fQgOFxqFCs5nVX3NsLZH6uLoLP2HB8X+U8k2t1/6wBMo1ppwSQqTt8wIVA5ruHBuCS+0+/BeMtSeBieu0wQKaxQij/NqyJFtFc6fKdCzgHQAMydi6orQHHDvjMFiCjnrjOuncVkGH7CGZkxF5KXCiVye/yF6EcT2kLReE8WhJ5a0vEpkBLj3sz/ASYscU7qrX00ICMNu+s5RUtX0tesRfIlGemYYJ/lAhq6Qq6WgNkiCOILR7ExboOyKiDRvIc660AMvRdkHkW5f2/QPFXH4mQ8XIQNSDTcpJI2rxLVzWQaWqowLP79pk22kszCWRoUmpvGba811TTbL5P/TJL70qzVUvP7U2nDlv2P/0/woTW3jI6wnumbgg6Qpu1Nnr+mmgvkDl35BjCZy62ON8dHXtrgQzBzPd3ClwHZJ6qol+bSmBM/3cYiUwrEgINyHj+pHV0clnzvhrIlGRcwcxpC1022c21h/o2POqh9R39e7j0p/cZQj8Zoh69HxFxX5Kh+BVhG8puCN8crmgLrW6y/+V/aUCmlbXJHJ9oadp6RR6wF8jQZ0zMvNUuW9tsATLflWe5DsjQAY0pYLH0v72BjNqxnb0TnGL3st6d2iUuhb1t1t5z/mKmBjJXTp5C954BRg4CXU1zekGloiAd5L0Lv0yasmtAxmUbiqv5VSvf+WuQLTS1F8jEb0gQ/mNsqcuWvLYAGVsc49ms7Esg831VrlVgpj2BDP3B8Cdca9O9tp2/htXzUPDhH/HaTSJ9W5hCy+u+xeJVXbHBO3LSrv34uLMPnt1z3/GSiG9DF/F0B/8u/PSxbtrT8Zo75pd2tOS+OeyO8fSUOuwFMisXb8COTTtcBqBtATL0Uff00SOrpDJ2AZkf7ld4PJChWeidqWNxd+JIh353Jo0SQcQomWmNSfmc8UJay+PqZ9KpmavreRfL/64sC6/rFR7YuCoOXn8ZhvrirHYd73dxHN62PmtARgMyruBpe4FMdORKJCc6L7aSad+sBTIEMdTBbUxJcR2QefKwFjW7N4uKLB0rMb09JDLP60rbZXOhJ2F6PTUdOHf+ZwwURqV1Z53vQl0vassQEDAP94qyBW2jIpbD60+DUZmVrtFa0+FwiAcIZF6205r1Lszdd7WPTY0VBi/3ttAgfNYKpCSfdIinW6vPWiDzKO+KwBcNZ067Dsg8/fEHYa1ExGQvkLl2dAdCxg7AvEmjUH3rgiDc2T2xCBs3CCvCAsBghYyAvGSGn4juTOKc3rkO35VmWiQyUejP+VeFEqK0tBBBz0oz8aL4uvBwKYlMXx9SeVFaXtCZlFRwFI7A9NYadI7HgGAsw+DJtLFClMf0X7NSUdzlL0q9VLRSBWxkADRGTqV0iEHbWD/F5YySejd4nIiwyjLU0hyGuJf/GXfn7jQf1C2NMGq/7If6+uOR7agY1E3UwQBtLJd9NLRZLzUS/ab0yFz/9EEl+YymuCJvaaYhAJoleoqgiFQA1QefE/1sKDcohrIs2VbmFeWybaojOypWm9ZHWlGpVIzf7RxDGSJom17pVfaPUjHD+LE+2b8HRSJdjJ+sT46fvs3yCMMQmE7FLz/fK0a/r3yQfzwJr8C3luQAACAASURBVEszET5tPr7oGYCMlDNoqrwl2qbun662WHjLFW2+m2dos7n+se1ynOiB1YhGbY2fXkpIfhNlkPYq3jMav/oyUbYRPe/kNtdHfpH0lAFBVfyi7p+l8WP7ZTs4lwQPcE7px08612O64E9Znz64ndH4qfnT3Pg9rFTmnxw/fagH0b/W5rvpfKjQj5+6Pv2YiPFT0YghTQSNSjIMUYXFfNCPk7nxEzwnx4RzquKWKEPQs7FCCYTKtUiuL5I/6fpBn5c8bZaepvyip4WcD+o5LNYTOR/uFQieFW1T8adYE9kX9k8PrsSaSGXv4usGP0Ji/NRzWPZPPd9N6akfE4675HGjNVjygH4NFrRX9U/Od3P0ZJoRb6nHT71mVGWLfpMfpYRdzHf9+HF+yrYJHtfTwoie6jGR809dn6p/hvluhp6izer67hW05AH1Gqymp2o/eq2qT9BI1eZfa4pFP9lfMX4ma7BoQ2kGdA/1pw2NFQifEI7Mg/uU/aeNUwhJK1uu1gIZ4grii5otm10HZKgnc2/VItAhnj1A5l5WKvz7d8Xdm+dRfPkY7mdfFNIb376fo/L6GQFkti2NwMbo6SKd1wMbYrBn9bxWFSzJnAxVTz8Yr/VMwoio5QO/RGmfzqhThSWojZoi0hjsTwKMl0XpqBz6lYgrI9xI6wfy8bbVKO37Ocr6d8WPB7YoC3RtCaoDRqC8XxfhTK/o0z+JTYTMxDDujNDKhYRMRE+otYtnoaT7h+JdRkfN/uf/iRp92HsGsLzjN1hEg30QNUUEEXyRo8S3KPv6U9Qtmw26HKfEhYsanV0RtHy/b7Mo/0nyTmHN8uxSMiqH9RR1sK/sc/mgbob+vSrJQNWwniL97oTh0Ok3G8bTYf/4e7xjrTKZ6T9k4khBi6oRX+OVHkCy7aQZy66PCVXyPqxEvb4+0ujZhSSRzslTNbyXUJauDvwWOv3i+P3uDUp9/bqA92IisL6pY5vrK74u0jk2sr7a6OmG+urmz1D6x/rOHxbpXKxJS8YFujdplCGOEZW+S/t1ET+j/k32FmVUDO6OlwVpSn0XklCm7x99mbBt98ryMf/9vyOv6weoHNgV4QPGInDGchzbHI8Gv4GiPtG/+lJU5N1A7ba1KO/fRZT93ZblSpvry0Sbyvp0RuWQHnhZeE2k/5J20tA/9kkuCg1LI5T+DfwSP587JNK5Ud4e1UekM/LvG/3iL+gp+7et2eLg/nRf0TbyhFF9cj4smGmor3FNtMLj/brg6clEkU56ivHr0xl3/YYY6vtxf5xCT/JL/EqljMYK3AseZ6iPkb7Zl1+unTLMv5rwiYb6GpaEi36QX346rTgIa2L/RvYWZZA/3+g3SM65Mn3/vtu6wlCf6B95fOCXkPNF1De4uyijNjLIUF8jw0j06Szm8E9n9ot0UZ93X6U+/6GG0CR0hin4pU/nZlcMjRW4P8NP8DL5RdbHSMlifendCer6Hq6dr9BzwBdgVGjSoul2Dm6zvj6dhQNC9u/Nw0o83L1BtIvz71HsIkObH8z0V+g5pIcIHsoynrO+Qd1EGbWzJxvyivHr0xml/buKCNaiPj2/kOfujB1g+Ghg6AlBT9a3aYmhjAehE0R9jEP3IvuiSH9+87yhvvsz/Q15BT31ayLXH1Ffdb5Yfzn/yJ/yI4VRoznOLfoXFiD6wfn9/MY5UcavjImn7x/bw3L5e7hugWH8nh7bZaiP/aIxhro+8pNc89USarafbeP4MUo3y32RlarU17sTavS+kpj+aENM8/gd391cn89AZfxG9hbjybykJ+nOceU4MI0/8ruhvpvnDfWxfuZV9+/RxsWiPtJI7jGk3232j/wyqo+hPs5PSU/uLbI+8oOsj+5EXjP8SO5lJXhtn85GHoVZH3mg8JvPcDYqHE1sc00xTn3+CbK7/R13x/YH54cs21lXW4AMfcm4HMjcDpthN5A5Fr8SU0Z8jbiFIdgwdxooXk1cE434xbME4WrzrmCW72CkHdmOlbMCsTpikrj+pPo6MkdYSmSeFqXjOb+ciJIZYr6mGL+W3cCv/CLgVyfTakvw4naOSPuVUgeZt64UzytuKXkZpl3mrc5X8vLLkl+HTJd5y27gWc4llH7zmfjK5KZZ1PWvImaNRP1sa/WkUSKN95TS8BiqwruvuDKoIB2O0aNwY+wisbEJIMTYFIO7C3TMTYuRlLkQlg3qJibv7bH98SAsQHhX5cbxLPUIyrlJ1pcZ+sf+GPqnooWgEaUdpAX7Rxqxf/wykP3W08go74Oi5rz8KjPJyzJeShrVluB5ZZagnShD5r1f2FyGKq8Yk5IMZfzM5VWPyZ1cw5gY6uOY6OtjWYa2WRo/2TbSSNYn+0d+uZOL1/WlyE+7iA/+2A/71m7E9wXpCA6KxpL5a5CwIUEEHhW8pW/bsOEzkXP+DF6Ut6QnacC8Lcak/KZI5zgY2qHvn1FeU3qaGz91Gfp+kybkV1G27B/HWp1XNSYGerI+/XxQjx+fG/iFX4d62hn6x/lnSk/WZ2H8jOaUnkYWx89cfZzD+vrI67LNRvVJHlDPd/ZP0t4Sv6hpZGlMZBnqvBbq43ojeEA/Jr/cK8Az9lnOP3UZ6vpU/RN5yZ9m8vLZCzWNzI2fXAdM80r+ZNvM1aem0d08w/wz1Mf5J8dPzQP3Cpr7p26brE89JrJt7J+6PpZRminKMaxnlviTZZgbE319Rmu+mgfU+4PsH9umWqMkv6jnFPtvdvz0ZYg5bI6e5uozHRO5RpkbE+ZVr9eSnpVZYk/9meVbouf9QrFGFZ87gW7dfPG4Mle8M3lcGG5fTjGivYEXZB/auHIfNrc/M80WIENBSfWiRa6VyNyJCANjLdkjkUnavBQ+vTuh5MpxbIkJxarwiULisnNFlCBAQ+E1AXTY8SdV2eLZ4um+AsykyC94PepVE0wcLXGAuJHXFDf/6Iadv7rS5jTey3STvC9N83KzN5eX9TSU45fKLJR+/anhC4RWJVIcSYkM49jQlJTxnNheelHl18HdoNEop6RoUZgIxscv59qYUBR/+Tc810tkSnt9gruTvQVAqZ0/Q0S1Le75sXj/efZF4Tqe+jksV0if+LXI9nLjMtdmmaamkbp/vJf0oJiX+dV5+UyWoc5riZ56GhmVYak+WYal+qwZP3NttlSfbBv7I/us7l9dKV7VluDSsWNCJ2b1is2oyr6O0Okx2BW3A0sXrMXrRoW3CB4fl2fj0899cOpgkvI1xHLVNLKiPkM7LI2fLENNI0v9k2Wo85r0z1CfugxztFCXoc5rrn/qvJbqk2NtSnsnj59T+2epzXI+qPlTTaNW6MnN5ll1vsU51eocVtenbpstY2JLXivra7FmqGlhrj5THrCFnuQ15reG52Rea+pT01M9frIMdX2W+ifnn631maORuj71nFLnlW2uL8PzB0V4ejtHWdckPdVl1JaItev6+bPwen8YSq9fxrN7hRgzNhy1JdnKuq/utw33zgIydYd24PviYtcCmceFhag/lmgXkMk9d0jox7DDqfvjEDlhuDhimjT0K3Bi71o5B4uCx4nNufTqCSGpWRYyHo1F6Yie7C0mvhrAyHuWxwGU/911pbSEOjI/X2oZKZRnt4wk3Bi3zHBsQ4kM9WDqlkfiee5lcVz0aOsKERahYdVcPN4TaxBzU2xbt3qeOEZif6gD8TBumTha4v8fk7aJuDi8f7ghRhyNuavf70o9R/ccQO/egVgcvQbXTp9GzNzVuJB8DNTwV9OgsTRbWDMlblVE0epn2r1mnWKOB+TXrrlnWprGM/bywJvGCqv2wpTDR+H1z9+AvrGe15Ri9Ogw/FpTYrSu2dsGc+/ZIpFxuUM86sgIfzJ3CuwCMuwgpS9U9g0e1Uco9TJt+7LZ4n+oz0A8ouJiQzn2r1+IHypu4cK+zSCYoa6MJcTHdDouMyJgYyl0zvqZkQLJung2qj4flenuvPJ46on+/Nid9b7tdW1esxVh0xeA4e03rIhD3Np45F1JxfRpC4x4rSTjKrz+c5AAPG87TbT+OWeTlRIjjZ7OoadGR4WOZvdCM/vXnq278PEH32Jb7HYRKNLPNwJvHloOSeIofW0BMo+r8qySxhCL2OVHRgKZH+vu2g1kSBAeG5kSxlyazNPaM+YxGryGfOiufQ7d1U7QpXV2/MdyrnWFrqGgRZtl+7Tr27kYUfKyc1OC0I3p0y8IRdeuoOpWOgID5hjxwuWTJ9H9qwkID2lWoNR44u3kCWeNqwZkNP5wFi+pyzHaC80AGJl31ZJYTJkcjUXz1qA08yqmTm5WVpZ5nHm1Bci4NNaSBDG8PnlY5xCQcSaBWJbR4NVeh+7yX6B7kApdzTXHf/fPKeXVta/TO2fTTCtPWUif3C7ADxZC18+cFoMrJ47BZ+ws9PxaiQJ9L+8G/MbNNpIO7o3fg+Ap8xE8ZQHoe0ajrbZJtcUDGpDReKQtHrHnudFe2AqQiZq1DHu27EJE6FJcPH4CM1wcQ84WIFMZ6I+arVutksrYLZGpGDkSD7Zs9mwgk9YJOmeJyRpLoGN5GpB5Kzfo2JVxWLlIbwpuMvEnB85F1U3la4XHS1xYHpXlwN93Nl7UlKKm4CZuZ10Hy+CxE8FMQ0lLaaM9C5L2ztu90WlA5u0e3/aav20Bmcqb6eDHG9eqnMupIuL12qUbMTdC7y7CZA10Vj9sATLFX3TB3blzXQtk8t97T1TCwE6WLJfYaGcRwJpyjAaPEpm0z6BrcFI8HB5VsTwNyLh1TK0Zd2fkmTZ5Pib4K1Zz6vJe1JbCZ2w46opuoDTjKh4UKBI5pvuOi8AvD4qF3gzFs8sXrkNq8nHMDl0qFgd1Odq9tmGZ4wENyGh8YY4vHE0z2gvNgJIhg4OxcfUWUNrMmHHrlm9C794TsX7FZpeu7zYBmS+7uh7I5P3rv+LBhg2gZvHbAmReXFiPZ/Gj8Wy7P37e4o3XeSeaB1UDMs20MDMxHJ147f3+qJEhoP6LaTseleWKI6RHZbdaPAuaFI2S61fEV0yXL3wF4KFkZun8tTiy50CL/KZla/+1TUwDMhoPuGIdaA3I3M3OwIefemPsmFlCP4b1515Ohdcf+mF3nOLc0BVtYpk2AZluX7geyAj3wVu3dlgg8yItAW/uN7u8J5Gb7mTiWcI4vLi4Eb8cDseL83ovt9y4NSDzVm7Mr+lWvbYMQ4YEo/+AKXh619jqreJmOsb7ReJXGbpBBeJ4FLVz805EzlqKXt8EolOXcfjlfjH2JewRynOuWgy0ct+ezU8DMm/PWHrSvGwNyFDBN2beavTpOxmjRoWIdZ1H5B9/6o198Xtcus7bAmQK/vxn9wCZhmPHOiyQIVBpuq24wVcz4IsrcXgWPxY/bx6BV9mKq33xXAMyLmVw9Ri46/7JnUKhmJuVeh6UrlDnpTj9ilE/zxw6gpDgGBFu4k2jscfK0weT4O83G1SYW7M0Fh93GiuUfwuvXUbghJbHVO7ql1ZPx9kcNSDTccaqI80rS0DmZV0ZRnuHobbwJqj7x2Nz2a854ctx9vBRw3+Z7syrLUDm3vJlro1+/fTRI4GU6HWPtt4d6miJXg7Pr0VTtXllzDc1+Xi2w1/keVOn0q/RgIxLGdyZk8XasqjzwijWs8OWCi+982avQMrhI0b9XLZwHbbFbhNpXBzUZVfnZuKjj73F+wQvAwdPE89/ri7COJ9wPLmjmeqr6aXdt9y0NSDTkiYanzhOE0tA5kH+DQN4oe+Y8JnNriJe1pWDQMeV9LcFyKgtpNu6t9tqSRZMW+8OBWQeVuJZgg+ebRuHZ/uD0XTPGNA8P7MUP8d9i2f7gvHiclzzoGpAppkWquMVVzK9q8s+vHMfunfzx98+HIkD2xOxfeN2bF2XYNRPSlZ4fqxrLDcytWbbXteX47PPfQwO8MozlcCTfMb3si8qgelc3Q+tfMcX/vaioQZkOu7YtRfPWFOvJSBz88I5TJ44T6xxP1UX4WGZsXqFNWU7ksdqIFOeZZW1ksQh7ySQ4ZHRL/tn4GXGbhhJXRgN9XIcflo/EE/X9MarLCWqshg4DcgYbfCOMLOnvBsVvgyJ8bsFGDmXlIxLx09gvt68mm2koq/3qFBQwvKqtrgFkGGeMaPDsH3jjha0WbFwvUGS4yn91drheZumBmQ8b0zehnliCcgkJx50uYl1a/SzFsjY4gyPYObdAzINZXiWGIRnuwIViUyJEl5dEv914Wn8HDcSz3YHoqlaZamiAZkWm7WkWUe8UozK8+H64iysWRILHg3xqOjbb2caAMvlEycxLWi+6PfzB4WGdHV/qVNjzmfMif2HMSd82VtFM3W/tXvnbMAakHEOHTV+NKajJSCzec0WYXbdXvSyFsh8V3jToL4ipS6tXe0CMtSNoaOaJzU16HBHS4xWfThcSFx+Wt8fTVXpRpvNq5wjeHF2lTDDfnlte/MzDcg006IDHy0lbNgmjooairOF+eGruma9lzeNlZgYMEd4uuREp0+FDXq/CozhxcXB2gUg7fRpBOtBkLXvaPmMF+N3gR4akHn3xtwdfM216nVdy+CP1AdsT9cQ1gKZRzfSQMvo7zIyrDpisgvINKakiEo6pLJvYzmen4zBsz1BaCpNbbExvS4+D2m59CI1tvm5BmSaadFBgQwdP3n9dbgAKjfOn8WsmYtb9OlubqYwxWYk2PCZi5GafEzksRXI0FsmLaHcsWhpdXTczVADMh137Dx93jUU30DC+gT8qAq9MmVSNG5dMD6FcGc/rAUyDaePGTBGa5IY+cxhINMRHeLRh8yz7X4CzLx5kGvYbN7UFuFF+g5x5PTrsXlouquKq6QBGQOd3Mn4zqzrbFIyPv7rcBFKIH59AhI2GCv2yrpmTluI80ePiWOl+/kKD9gKZCpvpQvTbFukOLJ+7frubG4akHl3xtqd8/rZ/WL4+0bA6y/DII0QGP/N2ztUmF67sy3quqwGMsePCiDzQ1WV6yUyREMdEci8vHlAOL6j5dKbB3mGDZpm2QQ4vx6Nwi8HQ/C66KzhmeYQr+MvOPQHE7c+QYQQ4BHSjQvnmsdXJWWiArCfT4QIoNbUoIS0txXIPCzLFibYdJCnnsjafcfnI2eOoQZkNH5wJj/Jso7tPST8W82dvQJXTp4Sa1BN4U0RVuV5TcsjJ/meq6/WApkHcZsEkJESl7auDklkBJApyXCq+fWTKmNzaNP/r+st27kbKThZiLX0pqEUP20YJKQxOhOdhzf1xWgqv4Lnp5bg1+R5aCq71LwJaRKZZlqoNn1XM76zyqdPF1+fcBHhmt4sv+kzSVgjmSv/bk4GvP48RCwE8rmtQOZZdbFwPPW4olniJ8vSrtrmJXlAAzIaL0hecOaVUaxTjx7FysWxOLbvkFi7i9KvCB1AZ9Zja1nWApn65GSU9OhhlTSGOMQuIFO7e7dAS0+f/GgRxNC3DBvdWkcLLx7FkC5/QU3uZZFv29IITBvZGyFjB4AA5sbJRMRM88H2ZbPx/EEREtdE47vSTItlWgNkfjk0S/EjsysQP8ePxZu6IqPyfj0ejSfLu+Gn2CF4eU1xhCb6oAEZIzq1Nq6e+Ox2VrohKKSfbwRGjJhpsT/kI4YbYCRr2RdbgQyViP39InEvzzK/yrK167u7mWlA5t0de9N5/6gsBwyZYppu639+tA0dFowfKnPEMfqOTYrRyi36kAlUfMjYWqaz8lsFZGz0IWM3kDGIeX54bDeQeVadj1CfgRj8+fuovnUBRZeSMXFID/x8Nw+7V83FmtmTETsvGLczz2LzgpmIWxiCUztUsY/MSAW4ARHwCKLXZbSIfk19GAIUOSg0s35doIjdZBr9yPxyIAQ/rR+Al9dVAbQkkKm/aXhfvqNd228xogKvpH9jWTa4GMj/6uv1lDMiHAHTFs5dLWKNqJ+b3u/bloiS61cNZZGv3jQqx0ymeS39p+MpmnVbeq6ltx/feArtX9aWgD9PaY/WDtfwJHXm6PLBEn3LMtPQ8ws/EQ7F1nXGtMyLx44jaJICWOjjirGVmIfO8IL0zvBM33HXf48EMk++e2g3kCEwuXI4AWsjg9BYlI596xZg5wolPk1D4TWEjRuEgtQjWDkrEOuipoh89QXNnlPNEZ5A5qc7uWAArBd3L+PN1c+ga2je6HQNpUIK82tyNF5c2CCOmJqqs4yYSwaMfJmxR3hzNdTTkI83Vz/Fi+o08IxRfklp1+J2oUVTQxkK01LRp1egsC56XV+KuRHLsGjeavCZelz4f3/CbsyPXCGeVeek40F+hlEedX7e6x5WoKmh1JDn6e0cUCpjms/S/6b6UgRNnIu0UyfBe5ZH78CW8mvp7cNH7U13frjx197t0Op3Df+9qivBo7JscZRdnnkFXKdMac31KXZlHKJmLcHEgCjcz8sA3zPNZ81/lrV0wVrErYkT682BbXswb/YycX8u6QhmTFvQYn20plxr8/CDrzX1D2uAjK3O8ByWyDx5WGcXkCm5chy9/vZ7HN60BN49P8aBDTHi2ChhiRLAqjbvCoKG9zIADB4pLZgyRoAZAh4CFgPAUElmmE5Jz6v6cry+n9ZCIsN3mqqu4dmOAHG89CrfWBojnlemifAET5Z0xavc5OZ69BKZ1w+uK+XXl4kB46BpP/fTgGNNq6OFUavEuW/RtUsYPnw6xowOFaBBPSbMu3LRemxdF2/EO+o8bd2Tr/jl3FY++Zx1hk6PwZmDSaLOjLNnkHc51er3ZTna1f285U6a/3KvAPy5s06tLvfxFIFF3uUL8PpDP6SfOS3WAlP68wNncsAcXDt9CtOnLhCBa/meaT5r/vODaYJfJG6cTxHg5fLxEwgJXgjdw3KcOZQkPvq4NllTlj15XtWVGq2xpvu0dUCmSPiPeZyT41odGXm09GNdtV1A5nHZDaTujxNHRdSR2bt2PqoyUuDfv6vQq1keOkEcK5EIaUe2C5CzKnwiKJGZN2kUuKmYEkiAkIZy8dUsnpk5WjL3jmnay8xEPIsfg2d7JqOpTHUsoB0tmaW5Kf3c+X9+5EoRViBx626EhyzByJEh4vfLA5UUTg90I0KX4IxJQEhb2mrP0dLCOasMzqfoRTh2lSp2lwqA29IOLa9rRP/tRVftaOntGk9zfMQ4bh/81xDsjd9jdg19crtAhDr5taYEIdNikHlWZS1r4zrxXXmucPT5U3WhqCv/6iXDcdLRPQfANclcG92VZhWQqS4Vir6Vvr6uBTJ0hEeve/VH9tsFZNRES9q8FDxKYtrZPbHiSGlFWIDQdSFyPLl9jRCx3Tq9DwQ45/dusjgQzE/xvyjfgtWSum5z96/zT6Kp1EywPwlk6lS+ZWxkMnP1aWn2L2Q0oaaPhKqsdHi9P1RM0qmTo1GQprI204/ReL9Is+nW0t9WZV+Wu3bZRuyKU/SsOnUei3XLLfOute3Q8tnPL55IOymy98S2aW1yDq9FzVqGqVMWYMGclWb3rvSUFINOC+O/EXBYoj3jvhVfv2LxOU2tpR7Mm4Yy3Mu7IfxZsbykXfsRM3e1xXct1enMdGuAzI81VQLIMHqAFJq0dbXLakkCmbpDux0GMs4kkjOAjMX2aECmXSeA6bgwcqv3qBB8X5UvlHA//mw0Th9MwsrFG3Boxz6jtlJC4zcuQsRVMi3H2v/2AJn4DYrTvQcFN+D1HwOxfOF6o3ZZW7eWzzkbiifSUQMyb+/Ykt9e15cjcHwUrp46ZYg6bcqHK2LWY8s6xUJyecx60FmnaR75n2BkyJBg8bzk+hUEjgrFwR17Dfn5sbRmqaLc21RfIqJb+/vNFs/3bNklzLFlWe1xtQbI/FBzG/nvvSfCILUFYORzu4AMve1RIlO7f7sHA5l06K51NgywUwaN5WkSGefS1E6pFrX8KWWRDuvoAOqHqnwc3rmvhUVSXdEt4UPmZZ1lH0Rt8Yc9QIYLTOyKOPGF1b9/EBZa+CJrq27t+du72WlA5u0dW85bBo8NnBAFOsak2weuUer5TA+8I4bPQE2BYg27beN2g5WROp+8Z9iTbj3GizJ4HxY0X5TL59TB69N3Muhqgv9f1lCBuRT+vrPBemiGvW75ZqP6ZbnuuloDZJ403BdApmbrVtdKZIiCCGRq9sZ7LpAh4Ljwz9DlBkOXF+L4L3cqdBf+Bbp6YysndzGAVo/xgnfqQJKRwzpJH8ZQkhGrZVr2xQsOxz2yB8hQJ2dx9FrRTh4zhc6IaddFRNJDuxrzUnvSQwMynjMWzuYDxltTgMV1Me8JZPKvXjRaA04dTBIKvrLulMNHMHvWUqM88hldTQwaPA2DBwejrihLHCE1luUIoMQjJUpq0k4rBiw8nXihd0VCf1Z0S8HI11vWWZb2yHpcebUWyAh84S4gU70s2nOBTEMJdEULocudBl3eVMd/LKc4BrpGmtKamXw1V6GrMY6kbTafuXedkfbgInS1Gebb5ozyPawMmituWrOlRX95fjwpYK5ROr+KoiwsDtaOkT1ApuDaJXzV3R+TA+eiJKNlu6ytW8tnZr55GD/aO0YakHl7x5YWSAx3Inlj9ZJYrF3WrCdHRdyvek4Q1kwyDz/EqPsn/6uvp2l1FLIEkWFLhZGDzJcQuw1e7w3AtthmB64EMtKnGvUGy29cw6bVW7AtVnGOpy7XnffWAhkGprY2zhIFK3YdLfHFxtOn0Jh2ynOBjDsXOioWX/4rdLf3m2VAtzBKxRborn4EXb15h3BuaYMbaT43YoVZpbg72deFR1155MR+E/BwEjtCA3uAzN3cDLHAXE9JEaJlnlWrHfg50h7t3bdjA9SAzNsxjqbzkUq59B7+UOWgs/JmurAoetNYKY6YeveZjJSDSUbrUsXNa+LI3NQpHl2K8AgqK/U8li5cJwwJQmcsEu8SpPiPDhPHR7Idan1RKhunnT6N9Ss248C2RKP6ZH53Xa0FMlL3xdqr3UDmyaP6VkGMf/NGWwAAIABJREFUNSEKnE08Dt4vNe0wMaoSobve7PdGOD9Tb+rVx6Ar1yNxOugrXgpdzjTo7p9VdG4oPZL5CUgkGCmPVY7GSldblgTJ93i91gW66iPNZamfvWX3UyYvRPq5Zs+7kn61peUYM3Y2XtQ1e+GdF7kayftbD5ch37d0/fV+AZpspOGPd8uxe9sxMR7PairhOy4cjyveDaBpiY5auvH69KKhEi9qm3lVo48xfToqPdJTTmOSGcnK2DFhQjp79vBRREYoSrnqPj6uKoO/XzSe1xj7SovfsA3TZyie7Tet3YMxY8IQM9e8FRTLa2qsxC+1Ci3nz43F2aQjWLMkFsf2GgMndd3uuPc8INNw3+OAzJuGcjTlBENXMEs4ABIDc+8sdNmToMsOgC5vBnQN+hAGNWnQ5UxW0nMnQ1d3SwEA9dnQ5U1T0rMDoavRm7o1FEKXH6akZwVAd0+/MTaWQ3drFHQZffQAogK6/FnQ1emDX94/izdn/o8CMrgRli6DLuUfoMvyh650FXRXP1byP0iFriAKuovvQfdA77/m8l+guzUWurSu0GX5KEdXRUsVAFS1WwE8dw4r/1l2enfoqk8p4MhZfSuaB132BOiyJkB352AzSCpZrqSRFlWqUA4EX8zLX5kqpETVLuiYl+nFypeEGJ+7SdBlBSp0LYw0GbeJSrp63GrT0JQdhIAxo1F+zB+6Bn3ICI5bwTT8cMUPPsO/xdMqPchpLELQhCnI2T8GurxA43Ez9C0QursqAGjo2wToKpUz5V9rytFUxr7p+2DUt53N6eq+EVSWBkOXG4imgtnw943A/cJ86GovQJct+zYdOvIWx88RniSvEhizHPKkoW8cN5U5p5m+iXcItG3pm9G40SpCv/CK+WZn38izNYorBkETOd9a9C1axZPW9M0ST1oYN7v6FqTwqqW1xKhvRcqczw5A001/NN09rho3W/u2sY35FqAciZMv+LPUN/KORZ7U9y1vCnScZyxHrJPBSp/FOqlfs7i+FoQr6eQnrkd286QL+pYf2uztnbyWY2ncLPRN8mSLvnHcAqArDERlWjxGj4pC0u5D0N1Z2zw+93fh0O4kBE2cj+CgeUjfMQy6vACjdfJV+Q4EjxuCJZEhOLxVMZVuaqiE98gpqDruDV35JCSt8cGHH4xFfGwidA1XoMuZJNYYXV7zWvKm5hqauK6WBGJ56HAk7TmGFYs2IWX/TujKQs2PG/ct9kHdN8k3Trp6HJChiRSlLq392GjBxE4iQltlEci8zo+GrpRIVf+Vw82hcB50BRHQlSxtlmzwOKgwCrqCSOiK5kNH82q2k9IQbgJML5zbbKUkJCkxSjoBhwQ43DSy/ZuBTPFi6C78lwKGGsugq70BXe6U5ucELBkDoEv/BrqSlXhz+QMFYF3rBl3WeOgueykbGtuS9gl0dTeVNqX+Ebqrn0B36UPFY3HmAOhyJkKX1hm6u0eVtgsgc1JRSDb0LdpC3+a03TduTqRlwWzo8iOhu3emeTzLN0KXz/TZyuIox7hqR3M6wZZMp1QqP0p5VqFyDFd9UkljHQIc6MdNALtIhd7qcau7jp9uhGPM8DF4nDEfukbVuBXPw883I+A3yg8PS5QN8WVtIfxGT0TtpXDoilXjZmPffq0pRVPVXoUO7LO6bwQK+RGW+0aAVrYWkwLmoTjzBnT1V/R8FAld8RIVT2aoeNLacVvUkifJ+5bGjRI/c+PGY1GOcYu+HWzObzRup5R0MW5rmuebetxc1TfyiTN4ksBc0sIlfcuFrihaGZ9C9XwrUdaigtloyg1HU3Wqfp5UQMcPAcFLnG+q9dPW+abuW7l6vjlp3LheErRzXTXtm+C9COXDrEY6FTXlSQ/oGw1CxFo/WxknuQdY7Bul6er5ZtK3okh8d20mBvf7FhtXJuBVfQV0VXHNPKaXlk8LikGXrt5oKlgAXRHXkl2qdfIQgny84fXbzxETqej6VWbdgI93EJq4H1VE4dr+cHj9fhCOJB6BriEDuoI5ynxQzbc3tbfwKi8KuvJIbF4QiJ1x+7Aoej0uJh+Crmp587hxf+IaLfY3c31zroTMGiDzuDBH+JH5LiPD9VZLlYH+uB021aOATLseLWX2a2aIHEpyFE11wSRCf+VT5TmPofJmKlIWgpebw6HjV8KVvyvKyZf+G7oHeodul99XlJUzB0HH8q98AN3Vz6G7NUb50jn1P6DL6N08CQhk+MUlwcNbeq0uKIbvuCizRz0U1Y/3n4f7+YqErbYwC35+UXjZ4NiEtOdoyXQcQqYtRNqplmExTPNp/x0bq45EP+VoyfgYoSO1X2urMa9uXn8AMfPWtboG0wQ7+6IEr8bvk56hM5dj6MBpiI5UJDIHdyQiKnyFoczyW9nw+vMQZJxNMaSZjoP6aGlP/EHErtyM6MjlyHDAa7BpHfb8twbIPLqVLqyiqfDrch2Zoq6dUTZ8oMcBGSpl2kNgh94hok7rpIj0Bbo1aQPFq9SL4bP7F6DL8oPu5hjoKIbnl31+CHSV26C7MRKKeFAvZaCkKNNbMR0nYqb0guJCqW9DEa487qFI9+rfoas+4f7+uxkwZV+6AGrimxszKsnRb0NZpnK0lHs5VVgNmctrS5o9yr6m5TNMAp32maZr/1su5u8KTTRl37dj7O/n3UDGmdNCwbc0o6Xuni38XF+UhczzZzEpUJHIUFk3aXezIUljSTY+6zJOWCJZKlet7Ju856AIJBk+c3EL829L77sq3Sogk3HJjUCmSyePBzLc1LhQMDZTaz/mcWjgKIqksq9aROjmzV0cy/C4yZJ5uLvb48L6Ug4fRUSoeV8LHEeaX9M5FO+P7z2IORHLHRvfh5Ui9AUXB0f4ZNG8NdiXYD7eiiPlau923M1QAzIdd+w472gduXzhOowaFQL/MbMQHWlZAdeWeUoHeRPGRykO7fxmg9aY8n061wudvgiPK/MMafKZvKqBzIXkY2Dog5DgGBGQUuZpj6s1QKbx6hk3ApnPP/V4IPNjZZYIOHkkbhmObllu9sdnjKj9813LTGH1gDcUWGQsq8uwFwBIhVF73/fQ9368nY/XJgBiX0IiVi7aYJHW9HgpA69tXBUH+pxxlP7OkMisX765VffjjrZRe7/jbYoakOl4YybnGUMEeI+YidkhS1oFFTK/LVeuewETooSX3oDxUXh611jKb7ommpatBjL0TUMJdvCUBQavv6b53fXfKiBz8bh7gMzTHx6jqAMAmcaidCRvXQGGFm/tRzDzfbne+sVDN3R3MZqn1TPBX4lTwnYxvhKPjQb0nWwUX8S0zfxaSU1WLEH4FUJTR9M8tv53BpDZvWUXls5XLLl+fVCCmNnLkXnO/ki3tvZBy+95m6YGZDxvTFqbJ9s3bkfI5GiEBM3HiMHBOLqr+cintfdsfUagEhgwB6nHjourqV+ZtspTAxk63gsMiBJH7DwCa+tdVz63Bsg8vHEed6MiwZiOLtWRefLdQ9Cr7/1NKzxaR4ZA5sS2tqN9HotfqQEZDwJwnMQMaU+xbecvfA1SjGUL1wl33t7DZ+DmBcsAgGJUqYtC99yVtxz3uOwMIHNyv+KZkwsF9WVG9A/CFAu6Pq5cTLSyPWfz1ICM54xFW/OCUpKBg6biQPwenDt8FD/edq0Enh9hcWvjWz1Gt9RmNZC5m5OB0d5hIubSo/L29WNlDZChJfSTh3VWgxiCHbsc4rGS1syu5TM22hKhXZGuHjyWrwGZjrNIqPkhPeWM2OgpTvX663DMm70CDSXZ6Ns/SJwZMy/HWv2O+n7J/LUiZD0Dpvn6hBt5vFTns+XeGUBGKik/qy6G96hQvKgvh8/YcIP0yJb2aHk7Jm+bjpsGZOwbx+qcTIvz35TGzvrPeEaWjAycVYe6nIVzVol4SmuXbrS5r+q9kN6FRwyfKdac1vRq1HW76t5aIEP3LtZKY+wHMlY4wyOYaQ3IvK4vQ1naSTwqaY4PxLTSqycMMSJIzDs3zuG7UoVpOemptGuJyOrBYx4NyNi3SFiir7vSGW7+yx7jceXESfTrO1kEXaSuC5XqrGkDJ/7+bYkoybiKCf50suc4HZwBZBjojfFRiq5dRuD4KNGuc0eOia8lZ7RRK8PxcXY3DTUgY/uY0V1/127+RrGF3DFuq5bEguuQO+piHayP/Ty0Y6/Ndar3wp+ri9G3XxCGDg1u9xApVgOZ6hLXAxlrnOG1BmQel93ALN/BiJ7sjYBB3ZCdckBYF4WNG4RwvyGY+u03eFKVjRsnE7EiLABrZk8WoGTniihU37pgcVDVg0dG0ICM7YuEuyZpa/UQsHh9+C1mhy3FysWxmDltIXr3nQxGsW7tPfls85qt2LV5J04fOoLoyGb/C/K5PVdnAJnnNSUInjIfe+P3YNbMxYa+jBwZgtRkJZSBPW3T3umYfM5x04CMdWPH4IuhgXNBHY/G0mz07x+Eb3pPRN6VVKE7x8Cwrp4HPJ65deGcy+uR/diyNh5ev+8rPuhkmrVX9V7II3rGderXPwgv6yxLsq0t25F81gAZ6sjcnhmEJzU1VoMZu46WfrhfgTtRIajZvbnVIyZLEhlaCN3OVHQcTu1YiyUz/IQuy7KQ8YJJEpaEg6AlafNSpB3Zjr1r52PpTH9c2Le5VSZSDx6JrQEZ6xYJRxjTFe9yk/cfF4GP/j5ShKXn/05dxoFfYtbUx0WPYIbBImnhZM07beVxBpBhHeEhi8Fgb2tU4mIqIzOgpK0KfW21WXvu+fyvARnjMVIHe5X8++ROoTgWmRe6VESxpxUOzZwLr13GgIFTMWzYdHz4iTeqc5ul+/JdZ1y5r9CZ5bTJ0VavQc6oN2nXfhF0loEkbS3PdC+kbk+ffkE2l2NrvW3ltwbINKQmC6ulx0WFLgYy1SXI+/2/OcWzb/CoPrhyOEFIXXglIYouJWP2+GFCKrN1URgIbFbOCkTO2YOgSbUlYnHwnt7OET4/uEDcz75otbJvfUGa+DrihqX92ocGL2qK8LgiG4HjI3EgYTe8/nsIbmelYc2SDZgxbYGI59PW2LxpKMW++F1YvnAtIsOW4PLxY3hdX+LwmFJCyGPNtupv7XlTfQkWRq3EF938sS9+N9hW0efybIz8diYaim+K/62VoT1rH950Fd1/upML/lxVfkcpl/Pgye08YV3TWHwTqUePImbeKrHW79iYID4AOI+DJs7F0gVrsDhaeZZ+5hSS9+xD4tadGDd2FkKnzMe5pCNibjmj74whtprrz5RovK4rxosHRW4Zq6aGUpzcf1BIpu/lpONlTbFN9XKt4pr1/EGhWFNGjQzBgAFTxD3TnEEbc2WwXqqIWNqjbQEy3+XluBbIfH+nALn/9FthuSQVe81dLUlkZCcXBY/DuqgpotMEKjSV5rP05J2InDDcQAxaFUUFjBBSmg1zp4kBkmWorwQyv9wrEF+2/Lq1RSLD4y6+o/3alwb0ikmPlg/LsvFNn0l4XJErRMkUJzN+Vlvjwzwph4+AXiypmHcvzznjSr4if7VVf2vP2Taab3r9oR9uCLPr5v4E+Eeh/EaaQ+W3Vrf2rJnWnkQLKZHxpDa5qy3qtZt1UifO67e9kHXhHGJXxMHr/aFi/o4dMwvF15XgvVGzlqJ7Nz+9VWJz1HAe21Kq+XU3f70ei+3jrW4P79mm6pwM9Oo9EU/0Fkruo00F0s+cxpc9/IWBg631mu6FpM2338502/piSkv53yYgk+XiWEsEMlm/+Q3urVlk19ESQYN3z48xqPOfce3oDqEUnHf+MPz7d8XFA1swcUgPXD4UbwA1hzYuFlIZ6tLwiOlBjj4WkYkSJwePKFESzRYgo/mRMRbxShq6+3o2KRkzpi0UY1iemSZMsG1tA0XP334bIhRrX9Ra/jqwpVzyFfnLlnfM5T2+7xC8/jQYd03E4GEzFoF9N/eOluYZvOmKcZBAxhVle3qZ9AtVnn7FcFxDkOIzKgRrl2/CgqiVCPSPQs8v/bA4mkFJFR7YHbcTXr/rg+JrCrCR6fJKyyKaLcv/tlzri7ORtGMvknbuww29ewc63rTHasiWei3l5fpnb19M98Ipk6IxZswsu+hiqX32pNsCZB5lXHatROZxaZYAMvbqyNTlXxVHSTuWR2LT/BkG0HI1aZvQlzmza72B4Jkn9ghwQlCyecFMcQxliYCmg6cBmY63AdBvwtplmwzjb2msW0vn11vnzj5CSbi1fLY8cxaQuXb6NDp1HScUFNX1L12wFjs373Co3+rytPuOwfvvKpChvhs91n71yWgc2J4oPNdS8lKaeRU9vw4UztvKMtMwdMAUPK5o9rrO2Gl/+/so0KTYHI9z7tNppnxG3y/VWc3u/WW6uWt4yBKMHx2G+RHL0bvPJPBdflTl6MOdmHvHlWnUF6LjTHvqMN0LCRIp9bWnLGe+Yw2QaUw7JRzuPrzpYiDTeO2cQ0DGmYRRl2U6eBqQ6RiLuXoMqQh7ysHAijWFN+H1n4OwOFrxoqsu3957ZwGZ21npYqElr6rbwsWcsZjUadq9c/iXsWme3XcwnpqJ9NdZY/OuARkCkZP7D4sjIz/fCFTcSheS07AZMQLQkK40OaaEkvcvTKxsfqouxM7NOw1SHNNxIPjw9YkwfCiETI9Br899cGjHvlbn1nfluRg8OBjPa0pFPlpMblmfII6nqWxsWo+n/zfdCxfOXWUE8Nqr/dYAGammwpMfa33J2GW19H11aatHSrIhbLQ7CWY6eGogw2f71y8UEqDYecGgNIh6D2yf5tnXORuGo2P9sq4M/CqjXosjZVG/xutvI7Bjk/MkHM4CMvzKokjdtH/pZ86A4l/TdO2/47y5LXY7xo0N90javmtAhgFdv+k9CckM5hq+TIzJ5MC56NxlnCGm2tzZK1oNQdLWnPAdFyG8eXM9oUPMi8dPwHtUiEXww/IIdNTHOOeOJKNb13FC166t+jzxueleuGFFHGZOs+/IzZn9swXIfFeepQEZEl8NZKgsRZPvmGk+whHf6ohJ4BEX82lAxvHNwhnMzlACBDLWmllbqvOHqnx80mmsUz3mOgvIWGozTUd9xsxqoYdzv+Cm4SvR0rtaeuv8S6Xvjz/xbhHXisrVzggo6gj93yUg8yD/hnD+yLg/I4YGC6eVpB11QaROCv9TcZcgxF660ldT2qlTwkiAoIblMC3FTMw1SuvmRixH9y/9cO1M84c3j7Mo1V2/onWXH/a20dXvmQKZuLVbQemUq+ttq3wNyFgh2jUdPDWQkQTevWqu0LUhkKF5GtM1INP6RiBp5+orFWFpbeRoPT9XF+GrXoHivN3RsuT7rgYyPPrw950tFl9ZJ/UAOv19JC6fOClo8rq+XIRqkM+1a9t8+6DghqAracgvf0mz2sKbwkFYpy4++L7Ssrdwmd9V13cJyBA0bl2fgMM798Hr9/1Qlql8SDqbtqsWx4o6qBA8fSrdNlTiWOJBI4kLQ57QwzY3d/qp4pGXaTsIfqjTZpreEf6b7oWMPUepTHu33RogQx2Z2oPb4HKJjKOefV1FTNPBMwdk6BmYnoLLr50yDKoGZNreEFw1ZupyqSNC82R1mj33lOhQYfjJbedtUK4GMuwnlR8L0hSLPAbOJKjzHjTNIIKnafqw4TPwykRvwB4avSvvHNiWKJynsb+Ma0VdCN6viNmAhA30T7IEN9zordWU7u8KkHlZWyYsCQkgqcRLPZhn91yjt8TwJOuWb8KF5GOgbghpTmmv4nRSWetojdSz01gBdCitNx0X/mesNu4p5p55eprpXtjUWAFnWXA60ndrgAwDUtNPHVVUXKoj82BTrFD2lbowlq5stCOdtvVd08EzBTKv6kqxJSYU25fNxq6Vc7SjJSukXLaOgSP5+cV8sx03ldba7g4gM33qQoM7cioFe3uH4teaUowZHQYel506kASv94cZSW1aa7P2jEcKC4SOBGlB/mJAUt6TpgQ1a5bEgrG92otW7wqQ4VEP44yRztxQaQlkCUA4OhbZqecRNnORkEAQrLI8BqClxJPziP8ZdT6tg0pbrKGP6V5ozTvuyGMNkKkKDnQPkKmOiUHe73/XpsKvJwIZghg611s83Rc/VNwSTK1JZNpfIvPLgxLQikFxfNf+7TGd1O4AMjFzV2O/PqSC2h9GzLzVoP8Mntd7/XmIWTG4aXvf1f9P7hYazHXv5mRgxPAZBh2j5QvXY/vGHWgozhbSGdLo6J4DIrp6e9HrXQEyjJfGIyV30JmWRwRNHPvLx08Y6hzvFymOswigxvmEWzThdkcbXV1HRwcyhR994HqJzN25c5H3h993OCBD5mHYAsZuKr7cHKRPAzLtDxzuZGfA3zcCFIG6epLbU747gMym1VsMyqcUjy+er5iPUxmSpqGBAXMweeI8g5KkPf14m98h+Ov7zUQETZwneIjSFqOYVknJWDp/LRK37saCOStFHsbr4ZFee9HlXQAyjSXZGD58Oggy3UVnglav/xqM2yofMqHTY3Dp+AmhE8VjRkcUit3VD3vr6chApnz0cOFHxuVHS3dnzULxF106JJBhGATGb1obGSTiMpFRNCDT/kDmekoKgqfOd9tCZ+sC4Q4gQ18yC+euFjSgg7x4vVicbfUeFQrGSzmy+wBi9Of+tvbhbc7PAHuMJcPQD3RitixqpVDmpaWM7Hd9cRZ69AzAwEHTRDgIplMxnIEH76vyyfzuuL4LQGb9ik2gVNEd9JR1MJq814cjxZGSTKOH3n0Je0SwyfYEr7I9rrx2ZCBTNnyge4BMpa8virt92SGBDPVm7t48L0IdaObX7QdgqrLSUa6Pn8IJvTd+j3BL7srJ7UjZ7gAytKyhngzbyTN++rKQbb5y8iSouJp/9aIInCfTtativkuAUlukHBXfunAe/b6aYNYjK01tGcJCTTceeYwYMRP1RZYD0qrzO/P+bQcyVJgdPToM1PlyJt3aKovm0xtXbzGS8B7bexArF2/AmcNHsHCOogTcVjkd9XlHBjJ1yXvA3+PSG65V9n2ck4PvsrNERZYUfZnuaToyZMrTO9cJp3gHYxcZ4jJpEhn3A5qACXPRvcs4nE1SjvhWLIpFol4/xBMXj9YiujqrveWZ6SBdWJ6/XxTKb7Zc/GuLsuHnG+nWTcFZ/XNVOcFB80Gnd+ry39ioyB41a5nhWE9djqvv31Ygw2NSmjTzR90UV9PRmvJvXjiLiNAliFuzVXgHtuadjpqnIwMZA6ZwtUM8aRL1Q3VJq1IZTwIyHNgjcctEBO196xbgeMIqq4HM8wdFYKDLRyUZ2s8JNMi5cArjRgcjbnUsJvqHCZpO8A3B8cQ9HkvfmtzLwsGiK3kg//IZeI+civKMC/h2eBDKr18w0OO70kzwV5uXhoH9A5B1/oThmaNtelbtPDN1dy/8jM3Tt38QqCzuSN10lsZNzpEy7Hn3bQQyVKbt1GUclsxfi/j1CWD8NHto4+x3aEgwZHAwvuzm10Iq5+y62rs8Dcg8fWq1OOdJw/0OA2Q4uajge+NkIk7tWItziRtBgEKGa0siw4jbw7/8GwIHd9d+TqCBb7+uGNv7c0HLUT07iav3150wYWA3j6VvwCDXt411jP66M/z7f4HR33S2SAvvnp0wrm9Xi89t4VNGoQ8a3supGw0VaKW/FkcXdCrwZqSkWGwfHZ4lbNhm8bm19RenXzGYB1v7jjPyvY1Ahn5iqHdEr7qDBk9DSYZrHN/ZQ3+6d1i5cK2R7ow95Xj6O28DkHlckWM1FrEr1pKUyDz98YcOA2Qk4zHe0vwpY4Sy74+Vypl4W0AmbNwgXDq4FXLR0a7FDtHiVV0JmhrKIK+kp/z/LtP2Za1CF/XVHD3eNJQL2pl7ZmsaHUT69+/aquMvWx1p9fomEHvjdzsMLqgz9PU3EzGgf5CwNpFzWF5pXj1s2HSnBIR8cqdABBvkVZbvjqscL3fU5eo6SjOuIGTaQqGMzsCO0ZEr0f2rCW6lp6v72FHK78hApnRgHzxIWAeXB42sGDkSNVu3CrREhRzDmVZJhtG9Jx0tkQE5uAwYGbcwBLbEWorwH4rrx9rPaVZHmTxaO92va+QozRsKrwnJDueGubLWLtuIfn0mGxyJmcujTqu8mQ6vPw02eNNVP7P2/tKJE5g1ORoERFQSJaAJn9ny2Gfe7BXYFuu4NEa2K3BCFCiZkf/dcX2bgAyP5oYOmipiFHHcqB9DSzx30FGrw3jt6chAJveffgt693U5kMl/7z3cX7lSABnGQ3AWkOFZ/dk9sYbwAfwypSTkQY7itp0WRz/fzbM4MUwHT+3Zl8+oY/Cw+DqyUw7g5PY1kAqcbUlkCGTSk3ca1Zt/IcngGbgqIwX8sj2zaz0KLx41yscjLUubhJx8NAkvvdrsuEmmq688FmN/mCb7dTVpmzgmswcwkhYM03DnxjlwM0vZvQFFl5qtZNR1m96zLaSZabq5/2wr6c3+cRzP792EE9tWi3E1pQuP/EhXWQ71Uiz1jWWy7czLzSDtyPYWvMH+cLxleW1dSY97WaniCJLlk0Z856c7ubhyOEG0m4CWfGlaFvtyYd9mwRMlV46bBb6S30z7zfzkH9My5X/SkAFPWT7bJdPNXclv/Jl7Zi6tNu+KRSATuyJOHLesX74J3OQZudtcGeo0xnOhH5dpk6MttuOXB8UImboAd7KNx4YWWUnxu/FNn0mIXxVnCPL3uCIXo71D8UtNM92rczOFwzNnurmPCF2K04ea+Y/9oidYurdX99GZ928LkDm4Y6/wnPuKuoh7Drgs/IAzaf82l8U1hpaWntZHrueW8IJMz/rNbxQgU13q2qOlnH/8x2aJTFWexYZZ2oTMEZcgZsboflgeOkGIuvPOH0bS5qVgkEf6fCFYWD9nqiHQo7kyOHjqTYKee7lpMi83kZWzArEqfCJyzx0yGmBuyq0BJHoCvnZ0h9E7Pr07CTDEslkuo2qzvdyIudFxYyKtKfDBAAAgAElEQVQjUbF44dSxYlFnG7hRyrazTh5vJSwJN4AIPufGyTw0D5cb8bSRvUHAw3RufJOH9cRnf/z/wHZQ34f0k56KWaY0LWcbnt7OATcsucGxTB6xzQn8VrR954ooHN2yHFln9uOXewUGxWbZTjoRVCuEMh/HRT7ntb4gDd+X3zRKYzqVqod0+Qt4PEdpWK+//V7QatP8GWKs+J4EaIlropF5Yo9oA9vM/ASRvGdZXPRloE/SfMzXn4p0gt/u7/+LaCP7LQHIpKFfCaBHOrPv7IMEE6Qz+8pyyTNsxyzfwSKEBWk9tOtfBdjic/JL5/f+EUtm+GFgp/8W0jyWxZAXbBPLpxXcNx/+UQC1Ph+9hwMblEiz5AOWT/pzzHidN2mU4EvJq9O9+4q+cqw4dgSWrJc/0mbb0gjMnThS0JL0YTpBoTwaZR75DkNv0Gs1+8v2SX7jf/IVeUTWy3LYnolDehjqk/XSj820yQvwolaR1IwZEy5i5PB5fXE2Uo8db/EOn9ENfPnN65gdthQrF8UieGrLiLsMCeA9bKawzBozPAR7tu4WEc8HDJyGkInzkX3xYouyp09bhIPxiXipjzNF0JEY79yv/a3rtyNujbFi6rSgBQYHe5I22tX46//qqVMYMDAYNUVKEF6NPsb0aS96qOd5e7XBtF5rgcy9NYvww/0K1wIZIqba3btFJd/fKXIKkOHXePRkb7GAcaPkJssN9vKheGyYO034faH/F1PCqP9z4PiVzsWbP4IhCWSYj5sYyyYwIWiSmyKBDL/e5XvqKzdxbmwZx43P/Kd++w24UW6Mno6RPf4urvGLZwlwM3NMfwSP6iOspKhI2e3P/ywkOtywmJfKw5XXz6D/p38S99wgqYTMfnID5XMCopCxA/Bt9w/F5k7aUIqk7u+wL7wMG9XYbz4TdVIqxPZS4fPigS3Ys3oeRn31EQZ//r6gJ83PWQeVl1kvwSE3XbadgIBtHD/gC/T9+D+ExIbvTxnxtfiRLqyfY8I2yrYQYJEWrJP0lem8UhJDMJe6P04ANvafgIX/KQFhH0d0+0AARQI6to9ppC/bx7HiPa3GWCffZbncyL/8738SQI/5OQ4ce7afNLt1ep8ADASXoT4DxSZOQEnJCvlq6ohvRF72iSCBgJAgi7xAOpAmkt/IRwQpTGM+gjiChZyzBwW4YLvYf44Hy+r07/9XSOc4nuSD+UGjxXHmx7/7B9Gfnl6/EzSWX0zhfkOwY3mk6N+4Pp1BIETgzLZznAgEGeiU4TUolWH7OYYERAWpRxDuPxRU2j28aYlQ3O3x/r8KfmPdpPeKsABBa47pgiljjIAMAZxfvy4CeEu+L08/i8GDp6D02hnU5l1GTc5FhE6bi/XLY9FYeBUzpi3AV70CxBjId+5npyLj9FEMHToVdXmXET5jPrz+ezA++GAIju3ZJ8poKLiM/Cup+KpnAPIvnUDStgREh82Dz5gQ7NyUgIkTwvFjxXU8LEprMRcPxm9Fp7/2w8gRwbiQfBy9vh6P8vSUFvlke2y9sv07YzdhysQo0Vb+Tz2aBK8/DRDtI7/ZWqY1+Slp48+avJ6Y535WKr4dEYyDCQloLLzSYfvhibR1pE38gCJocKQMvsty+NHGvdWWn3oPUN9bC2Rqdm8Gg1NLfdy2rnYp+xLINKakKECmutQpQIbeduUmxS9MggF+4R/auFgs4JTK8FhCfr2riSPvSWhuCtyIJwz8UmyslAjI51z0uVlyQ+PGITcSbhjMb+7HzZlf+9zMZDm8EiwwPzdQbjbUu1kUPE5s2tx8uXlyw+fmR8kCTb/5Rc53mZ+bETctMknkhOFC6sQNnV/R7Ac3LIIX1sENkRIfNZDhe9zMytJOCoDGe35ds/++/T4X+bnRLZnpJ+jHthBUcSPm8Rc3dD4nkKE0gW1nW6n4SQamJIR96vfJfwoplm/fz8VYsP0Eh+y/pMeAz/5L9IEgghIvmW565UbMvJSmUCLENrCPlAjwvWUh4wUP0HqHDM/2rIuaImgjwQb7KMtlG9hObvTckC8fThCggXSV40H+IT/wHdbF8e/9938XZZK2BCEEenzOcSAYkOXLK0Hl1x/8QUhGWBZBH8eX4JfjyjaShuwDJULkGb5DKc7mBTOF5Ih9keNP3uaRqSyffSA/sEweXVFaRVqwH9zkCPIJ6ghmSDsCJilZYX6CfoJNgiv2l31ne5jGOsgban6T9fJKgMgxZr8Uy6xuGPHN1/iiy1BMGtIdAYM4j7phRO/e+LJzP/Tu9Bk+/GgovugyDOP6foHAQd0Ej04c3B39uvVCjy+HIGhod4wdPBwjBvnAb1BvfPbZEFHW8J5fotPn3hjZfxCChvVA8KhemDn6G3z5+UB4vT8II3r3wcTBSnmmc3HK8K8QOKQ7+vXoCy8vbwzrPUCUYZrP3v/s4/hBX+GzTwbCf0B3TB7aHZ0+7Y8BPfujW5chIo30sbd8c++xPNJd0t5cHk9OI828+/TAZ58OErztbPp4ct87Qtu4ljsyJuRLfqDxY5SnDNwv2/pRym3u6F2uOW0BmUd5V8CgkQ2pyaBVdFsARj63C8gw1tL3xcVOBTLcELh4s8PUwVBvlAQ5/Krl1zo3C4rzJWHUVwIAis/5nMTkpiclMgQI3FS4KcgjGPkuv8IJkPiOuR/BgamODL+A5VEPNxkCDQIDbtaUYpCBCBxYHyUE7B+BCkENwQR1UnhlGyhx4Fc+3+FGlbRpqQAkfJ+bPBWTudkRcMk28ziDEgTSim0e1PnP4qiExxA8/uBXOPUp2C4CREp8uLGxjewPQcfs8cMEzVk303llmwggWZ+UxvDLnm2QIILHUJRokW6U+hAgcNPl2FBKQdDJL1jZVnll37hZy/8cU04W9p+AgtICAkxOQG6wPCZh+3nv9dv/IXhAvssrgRDTJUBg2WwryyT4kzQb3esTQQ+CEbaZQINSHI4FQR2BEMEDAY45IEM6UspCMED6kH4EqyyD/1kOaUw+IB9xnAmsKAVjvrgFIeLLhpIWtpmAiUdtko/Zf/Im206wTX4nLfkuQQr7RzoQqPAZ8xF4EgwSlBNksi0cB0qTKIVhPwz81qezkBBJflPTkGNKetAVAfmIlmTLFq7DxlVxRnPhh8pc9OkzEV26+CD38gVEhC7ClZPHDe+8aSjDnIjl2J+wB69qS/C6noBc+fn7RYLOyMJmLsaBHYnQNSjz7EWNUh8tXLz+awgaS24Z1Wk6F5vqS8XzrNTzeFatLJimeez9/6K2GK/rSkVU5NMHk/CsulCEhGgsyYKvTzjuZlteH+ytk+/xg4Q/R8por3fJK4wuvXDOSsE37dUOrd6W+xbXFh7JO0IbliGP4tVrhiP3bQEZqSfD648ND1wLZCQK4tVZR0sEF9y0uRFzYaXeB8/1GeCRIIJfwfyK5WYhJSmmBCWQkZsDn1FXQgIZlmWaX/7n5iaPmWSa+soN3xTIUGLCQWE+HmNws+OV6JWAi1/F1OshQuUmxWMKfj1zM2c6mYx95Pvc3LjxcVMhYGDZ/LLnxskvbH75UzeCX+eyXWRQ9o2bPPvNIyXWxX6yP9yYqTdBSRKPcFg++0C9Cm68BClsM/U/+Pzmqb3iyiMf0pd5KZnhuGyJCRVf+JK2PMJhe9hulkGQSBDE9tI5G9vMq2yrvLItajqyfXyH0gNu4DyWooSJ48zFne0iACNdeDzHNsqyeGV7CCCoM8T/PAaUNGMajwP5Lutkn1kP9YPIFxwfAkPSjuCLUhVKTeRxkroe0pj1UPrGfpJXOBbyWI5jzraSFmw3QSrfZ1kcB4JZ1sPxIm9w/JnOvMzHYyQCUl5JN443fwSUBGSsmxIe8hfLZHsIFlkegRPHkm2X9bNsjh37TX7jeLHNkt/UfSN9THVkAvyjkH+1JRBdvyIOl06cEm1etSTWyDvqq4YK4TdEHaRP1kOgEjxlgQjO+NRM4EDGQ/IUp2mHd+5H5KxluHHhAkKCFf2eKZOjkXu5pd6O7J8jV24Uzt4sHGmPre8SpF481rqhgq1lavmdo2Mj12tPoqctQObJo3p3ApkCpxwtkdhyUZabHRd/bmx8xg2IX5lcoC0NDPOrQQ7Lk0CG7/C51NdQ5+PGb05RVdbDL3BuEvK/dnXORLOWjgSxlERYm1/LZ/34ENgSyHBukG6HduwVcYde1Zs3x5a0PbH/sJDA8P+WdQkY0itQSC7MWTbVFN6E1/vDEB7S8thOlucp1x+r8uE7LhydPvbGyf2KBVPkrKU4pb93dju52XjihmNNPwlQGUX6Vwe9KltTl5bH+jlNWpnuhZ5CP1uAzNPvH3VMIOMosU0HzxTIsHwqL1FMT6kPv8gpTSDYaQ3I8BiGX9808dV+zTTIOLYT+Wf3If3oDiO68H9Oyl5cO7Id2WcSkXl8l9Fze2hIIEmJhT3vOuOd9qzbUvuvJ+8UdLb03Jp0zgEeRXFulGdeQ+8+k3Anu6U0zXRuVt1KFxG5d8Ruw/DhM5B14Szq9EEbTfPy/8hvQwzAwNxzT0p7XJmP6FnL8KhMsR5cs3SjU/3VqPvqbCBDU/nEra73eVVx8xoGDJwCBmdU90e7tw1wuIpepnuhq+qxtdy2gMzDG+cNOjJPf3jsOiBD3RjqyDypqRGVfF+V6zSJjK1EMc1vOnjmgAxF+9S94MZIfQyK6nkU0BqQoX4L9S94xKT9FBpQf2P66AHw+sN7mDHGmDYzxw5Etw8+QFTAcHzz2cfw6f+VQ3RjXdQraU/a0zSbOjft2QbTuicO74MeH32ISAf4knzNYzbOJcbGWbd8k1Ub0+uGcsTMW43J/lFWRTZ+VJaD5yo/MKZz15P/70tIxAIXRUt2FpDJv3IRS+euwqCBUzBw0FRQj8iVNN26PgErFylHqK6sRyvbPmBkuhd6Ch3bAjJU8qUxEa2W1Cosbd3brOxLayVWJJV9nekQz1Fimw6eGsjwGUEMdSV4REULKB4v8Xyalk2tARlH2/W2vh8euhIrl8SZXTAnTIjGswflmBi4ANV5mn8JV/DAk+oyTBivmKM7o/xxPuFmdWOcUXZHLiM1+ThCp7f0h+OMPjkDyFTcuIaePQMQE7kST+4U4taF8xgwaKpNwPHG+bOoL1ZCtpjr14u6MqN5Hjg+CtdOKzqC5vJrafYBEGfRzXQvdFa5jpZjNZDZG+9aIPM4J8cYyJiEJVBrHbPRjnbclvdNB08NZKgES2VbKoNSUZVKrjxWYvlt6cjY0oZ3JS/1BqZMirbo7XV26FLErt6CyYFzhbOzjk4Xgl7ylyf1g3os48aGo7aVI5222vuGVnOTo7F8wVoEBszxuD621X53PK+4mS5iOtFr7amDSci5bFlPz9b2OAPIrFkSixUxxtIRzs/YleY/MkzbSO/IH306WnhvNn3G/9dTUjBsSLCBN6iwPWpUCH6uLvKo+WCu7e9qmule6Cl0sBbI1O7f5logQ0mMQSLzw2OLx0oENJ4EZORAUteFegHUebA2+rV8V7sqXxnLY9YLb6etbeybVm/B3/8yHEm73w4laU8EMuTHSYFzkXPJ/o11X8IejBgxA716BoijJY3HW35J8yOIJulDGEfo/aEgbzuLTs4AMt6jQsGjJXWbGkqyFR2WckXPR/3M9H7P1l2YF7FcWGklJx40Kod5gybNw2efeONC8jHxbG74ModiaZnWr/1vyXOO0qSjAhnqyBBf1B7Y6R4gwyMmmkepJTCm954EZHiERBNUxieiuSrBjDR/1SQy1k+kS8dPYMjQYLwyETWbTjxav3j9dTh+qva8eB+mbbXmv6cCGQbqO3PoSIvNp60+paecQdC4CPTtF4T7eTfwXXluq8q6bZX3LjzfuXE7li1Yi0XzlLAnzuizo0Am7dQpoWxtzlpsbsRyMBxEa+18VVeOsWNmoa4oC1dPnkKIyRHalZOn4DMmHCUZV0UMLN+RIZg5bSHMmdG3Vo/2zPo11hm06qhAhhii6PNPUZ9yzH1Ahg5rTMGL+r8nARn63iBgocMw+gLRgIxtEyvvykVxRMQjo6RdxmEIzE08Wr5QDG/uWUdM81QgQ38uVLy0haY8Guk/IAin9h4UG5gt777reRnRmUExnUUHR4AMpS79B0wROjHm2sO2enuHWTz+5TsM1EkTat4zcjnv1T63hg2bDoIZPj+5/zCu6e/N1ael2bamupJeHRnIEEP8WFPlWiCj1h5mLAQ1cDG99yQgQ6bhBKVfGnpEpYKvdrRk3cT7qboIH/x9pLBo4VFGY+m7p7zrqUAmMX43Fs0zjsHV1gLJL+qje96OI7+2+urs53ezM0Cl6NaOVW2p0xEgs3bZJqxcHNsqqKLDuuyLliOrb16zxaBLQ10Z33EReHI7H1dOnMRE3wiXKTnbQiMtr3XrtJpOHR7I1N11H5D5vpU4SwQ1ngZk6A2X0bXpHZieUakMzMHXjpZanyh02T5o4FT87SNvTJvsPCsZ9cTz9HtPBTKpyccQPnOx0Wb2sCxH6DC8qDG2NCGNqSDMo4Tq3Eyjdzyd/p7Svie3C0SE78eVzvGf4giQobfkzLPN3r7N0Whx9BrEb7AssWO08uxLzUCH3oyPJh4Ux1Xb18bjyR0lQry5srW01tfN9qRPRwcytsRZonDFZvNrtUTm+zuWvfp6IpAhY9GVPy2XGLeGx01M04BM6xNyYsBcXD55Uig5nth/6J3cAD0VyFTeSkfXbv6ImbMKdORGfqYprdefBqM6ryVYuZ2VjvF+kU6TKLTnYt0edTc1Vgggcyf7ulPmgb1A5pcHxeIYqC3pKI+B54QvM9tW6kbR+kjt32fTmi3o0XWcx4SMaI8xfhvq7MhApvbgNnyXc8s9EhlaL7XmQ8bTgAwXDFoqMUggQyAwlpFkWA3ImAcyVCDcsmYrBg8OBhdOSa938eqpQOZ1fTkObEvE170nGvx6JG7dDa/f90XqMSUGlXq8ju8/jIgOECpA3WZPu6dUMuNsilPmgzkg8+x+MaiE21q/yzPT4O8320ifxVz+omtX4OcbYbasLeviW1gfMfSE17/2QVlmmtl3zNWhpZlfP9uTLh0ZyOT/6T3cjYxwPZAp6dEDVYGBrerHeBqQoYUSgzcyHAEVftVMpgEZ8xOREZAD/WY75KdETeeOfO+pQEbSdHH0Wuzflij4mj5EfHzCQUVg+VxemW/7pu0t0uVz7Wp+LqjpEh25wiqFd/U7lu5NgUzyngP46rOxbeowEXBEhC5tcxyfVRdhtHcYeNxo2gYeMRLoqNPzrqQK3lEr/Kqfa/dt84cn0KgjAxlaLVUFBrgeyFRNnIjS3r07FJCh87uFU8dCuppnROef7yrn3BqQaTk564uyhJn1z/febUmMXJQ8Hcjw63r9is1iU6JVTcrhI5gYMMdok2JfqKxNaxbZL+3akvfbognpHLdmq1NoqAYyPOLxGTsL4cExIvxDa+1YOGdVq7ov6nfJBzxuZBotj6qy0kVwUF+flpIaboBU+lW/r93//+29d3RVR74m6rXeen3nj5k78+6s6Ts3+M2d9+6bnhv6dnA7te12aOPUxhhsDJgog8gCBIiMQeScMwgQSIBAEeWcw1HOOoogCcnGNtF31u0382a+t7461NE+WyefI+kcqbTWUe1du3bFr+r37V/9qsp1jIx0nfkzkal4721UfvDB0BOZxg0bUPzXf+1XRIbA4oGR5cnXUJFyHYakSND4l/6KyAzuqNyDYs8zwTjSndIX0vd1IhN5/hLWr96B1tIcQWB4IjFX1/TWmuxmWIc03Pxs0hLwhGdfqFN/zcPFE+e8dvaSlshUZqVgwbx1yE9KwJyZ1pd4P+2swdrgUIx7ezY4veRMHXLfm7NHzuCBsQKv/PZLvDfuK0z8dJHT7zuThgozeAwdyTrxZyJTNeljGF54YeiJTPvFi2L3vTtFyXbJjK+tWrIFLEVkLDthd3UhJkxYZCEEbdXdWPH3dSLDDe6Cl27G9fOXzXYPPHqAG6bJNqImhscQyHvlWuLe2fpIun5dEA5nw9sL97itAo/aTB9UNMzdvGan0Ijw6ImHrYNXndHYnnu99LhARsPPhIkDHhsKMhEwO0ScWM1DP+3lSz1zDxu+Um/+TGRq589B8fPPDz2RuZuZKYhM+82LbhEZVjINbo9uCkLy5YGlgS0FieCUT8IF0xkh92rycHZHCIriLotOR00K/WyBRd942rOWbL1Df0VkLDvt3m0HzcLQXr2NpWe+TmSaCrOEcF29fCuoMWDb0F2+ZMCOIuz4WXBKYiy121CUlfuyzJwe7JV6pFaYWhnmk20jj/SgIS9XFWnz/6C1Uiyd5yZ2Wn9H19nxMeAO0DGXr2KFBg+O3lPPLcdFf6oPvSz0lbxTuUH7WXu/jsQb6DMah57I9N+5g444xxmypZHhpnTBM8YLAjHzg1dxO+yQOC5g+nsvC+IS8PEbgsycCl2J2LP7sCv4K2TfOAuekySPFbDWMGw8uckdn3cZMoRxr7WwWj8Smd7qXJcGB+37w3HNZZ8ciG5dDMedyoHzUzifHbJ4s9f2BeFBcO+8G4DaXNMeO8NRNn9Ig7jyZQNIblo4fdoKfDJ+IQzpJgNO4oQ7s8q9QNauDBUrnPyhvn05j9y1mqc/c7zxNJ+hm/bi2F6T8TWXxZdnmNoucO5aUMumjT/91k23NGrcAXhewBrs/Hof9nnxnCht3tS1b5EejlVaWegr7eMMkeFqaO02L85cu72PTG9zlV1W5eyqpb2rAxG2Zz3izu1H6NKZouNWpUVh2bSPcGnfRvGMm9dxE7ueqhyLjq1vHA4sJDo07OXZSlxizVVK+nD6exKZO+WZ4h2+6+rvx07TgMY0XX1Xhn/cbjqJuyApHhnRt/D0WZwyrzyw7fXXpyNo4Xq8985scJM6lnfGl8F48ZcTsXX9bvzYVe12Gaji5vs8RDBo4QZRZzJvyq0QuOLXsy/WhcTdJ58sxCuvfYn7TWUCB2zPgFmrRJsSRxS+ufGxeNLhPk59sfzDmSfWdYchV5w6zh1wZd27mgf23c7yfPz8l5Pw5bOVgSSh3zUb8LSjSpzndObQSdHHmQb9Du8+gtANu8W1s+nx3e9bDMJuiodLynHD2fdVONflgS/UGccqKQuHOz/2CL7PERlHu/oOIjKdNSiIuSimlKRWpTg+HBNf/7k4zPHElhVCG8MBl1NC8ye+I1SunILi9NL2ZbOFS22OFO56lxX4TX2heI8NaSxMcprIdJSmiffIYl39tZZm49alcEhCQ0HhbBxSrcyy/GAsw69fnCwM8XhfkpKAs/uOoqemAHNmrkRM+FVR9uLkBHGy7Sd/CBSbXXVV5oNCrD7P/TI8bOUAWilOQi5MihPCztkyjIVw/XUF4PSSL5aVGCIR5nJabnDGa/oRh7nxMfjwg3lIjowUq9DuVObjUavBJ8vhi3WrzxPr9V5toTCabivLBvuNPoy9e7YJCSbdkOVbcGjnQSyZvw7TPl+Kret2CX8+O7TzMDav2SHuGZ7jAW2gLhw9LfzspaF9JrDRVo7AgBD8wz9+iuLkeDxpr3Apz9r41LXr8mEk6oxjFceskUib5Fkvm+W93xMZqrp4UOOxzcsEccm6fgbT3n0R9dmxotDccXflzE/EdUbkKSz6fJy4Zkfcv2aBWDpNWxnuyMtGkhWjdUlk2HDSb7imlsROqn/5e0SFhePYnmNoLXVtmir91i0c3nEEkz9bCto4cOXC7Ws3MO79uVj61Vq88foMTPhkkVh1IMt2+eR5LNWcVLt+1XYc2jVgbyTDueKuXhGKkOWh5vpz5d3RHpa48uWpJdY/cbMhZPC5S9yt9Y0Xp4BavdHeTsNRPuJg+rRg1BdkulyfPGU6Jz4WT7tq8NlnS3G/qRS7vt6Ln/3VOIsDPHlQozwOhCuO2g35WLJgg3kZtavl3LJ+N/7rfx2Pe3XqyAFX684fwxOjWlnoK2VwlsiU/O3foiPS+ROw3Z5aatq3DaX/+Hd2p5eYaWsVSE3Mz/7sf8NX438HTi3lRJ0TX5Dc42X9vMmC4FB7w8bgcQJcMk2tDH+cZiK5sRYviYyW5AyXsS9XG0yetEScT/LeuwEuGcpuWrMTH78/Fzs27kXkuYuiXCQkP3t+HHggIMt58cRZoRK2Vmbpx4Hvq9nun4N06uBJfPLJIq/M+8s8jSaXuLKnMvWFshanJIIrU/R5Yb5dWeWif1/dD7Z/CJgTAp4i7mrdcA+a374+Q+zlwz19+H5xUrxYOq+N605lgThKgmc6/fyXn4G7NfOwT70BsPYde9cXjp7FS69+Ce4EbS+ceja4rf2xTvSy0FfK4CyRKfrpT9GyZ4/TtjJuE5mWI3scLsG2RWRo60I7mLLECORHh4HTOqxoEpSU8GNivxfek8jIgx2/ayoR01J9tbZPXtY33nARGS6ZvHzyAu43GvC9sVxMz+QnxDkcMLhC4ffvBgzagIqrIv7w/jwxt+0sAHmY3fjxC8Gl0/p3OPW0OWQnbC25bC3JwZtvzVI7+HbZHsT8gcjo213d225PT+tmwbz1SLx2fVBfsxcvDfZp0PvO7wPEjtkHdx4R75ummwbnlYdCnjhwEr95cYrYDiFg9moLray9tPTPqAWixk7vr+4H1/toqBO9LPSVMjlLZEr/4R/QsGrV0BOZ9pvhgsh0JETY1MrYIjJDValsPK22ZqiIzCPdaoXAgDWgRkSWK/nGDbz/bgACpgcLFTRPHI4JjwCN92QYutwPQnvyrHwmytFqMv6Vfs64XJnA05D1Yanp+dmfvy2+6vTPeM/prKN7jg16z1rYseqniMzoHPDdxTM3jIw8a9KgOhsH9/FZOG+9mIL+2X94y6zR0Y5Z2rhIdF7+5Wfgdghv/G4mZs8waXC0YZy95rlpasfesYNhvyYy5ZmoePst1EyZMvREpistxuFeMsNNZB61VeLbhoFdS0lkbhwfbDOg7/zXjlSVmYQAACAASURBVG6zuSKK24ZfPHke3MOB78VdicTbr01HcfJtFCUliFUGnC/ntt/aeNsNeUiPihJbjc+cugIffhAoVMoMxwEt7vJVQWS073h6fevyFXz4YSBuhoXj1IGTeNhmyvOcmavE/hTU2CyZE4ImzanI3dVFGP/xAvMSXU/zMFrfV0Rm7AgBZzAcun43zhw6ZdHnHb0XsiJU7LDLlUmfTFiE/oYyMV1pi8hwM0Me4NhcnC1IDG1kHKWhniucEgP+TmRqJn8OnunozNJrhnF7akkSGePpAz6jkeF27IeeqWvZmCQyF/duQHdltt0fl3/bWtrNvRuozWgpyUFffalQ8R7adlAI/9+9PgP7tx8CNTJyrw5rA8nbb80GjXN50Nuvf/kZpkwOwsu/njwke3pcOROG2dOC8dZbs8AD6Din/tEf5osBsLumGGuCvga/JmU+zx89i0WB68330l+5lgOiIjKW9THW8XF0z1HssHIop6164QcD9/SRR0bI0+RJYmwRmQ5DPmbMCBZT7ByHtFpfW+kof4VTYsDfiUzr2VMwHj489ETmbnEGagNnwpemlvobSoWlP7UobEwuxY44vFVsvJdwfi+iTuwQ19w3Rv7kc9rgaAcBDlRfh+zEgrlr8fYr08CzbHZ+vR/bNppOFKaaNjs+Fr/49WTxtUR7Hu372mup0qWNCrU4fMbVC1Jjog3rrev6vGy8+dZsfPRRoNmImHFz1QKJzePOatTkpON3b81CnhP2PN7Kl7/Go4iMEhBa7F46cd4lo34a+XL5tDYOXtsjMnw+lGOEPi/qfvRg3N+JTF9Hs9MkxiONTE99iU1NjNx+eLinlngo2qSJi8FpHX2n5BJpSSj0z/T3nHrhCp4PxwUI4zxDRjKoVeE+Hdo4OO/8q998YWFEV1V1DMXljqez9Gl66/5+Ww7Si1fgSVchQtfvs2r7smLpZsyYuETsK3L1TNiguvJWXkZTPIrIjJ5B3hu4jLsaiaBFg4mJtbhp5Et7OB4KqX/uiMjow6t7hUNnMODvRKbXWDc8RKa3sdzniMyPnTWYNiVokIaB2g8uYfz0k0ViPwZHQJg/d62wMaFRrzwO4DcvTTVvJa59f/Pandj+TMX8pLMS0bkzcbcpftCAxXcedJTgh/Yi87N+YwZ6W5Lx9NmGV9p477flCf+nXVVguJ6WJDB+bRhr1wyfWRICQ+U+m2G5KiooYI1apWRnlZK+bhWRUQJEiwlqMefNWWOzj2nDGktyMHHiYqvaFUVkFK60WPHWtd8Tmcby4SEyLu/s64LQ8KQxgxZsROS5cIsBJi78Otas2Ikb5yLFlxG37LaVBueuP5sYhHvVlquGKjJT8KBlcKejEfCD5gH/+Ly5FmRFptPdkohLGR+ivPKQSLuh9gKuZ09GQsF8NNaGIb9sK7qbE0AiQiJ0u2ABHneU47v2fERmTUJc/le4lTtDEB/G2WdMx5POKkGOeP+goxhPOk15NlTuR0nFHptllHlS7kC7OaoLEhlHYdRz5+vT3+uqPi8X06c6d3Bk3JVrCFrwtVX8PG2vwSMrp1z7e/2o/I9wX+iswWPjCOfBisx3avl1eSa6Um6J5dfOHh7ptrEvz1qqD16EtogzNjUzwz219GNXFULWz8eaNaYBpi43G4aCy1i5fh6WhExDW9dezA1YiSunwvG4qwDpxcFILVouNBhSU1KXk40PP/0C6aUrxPNvjFnmAaiwYgtSipYhpSgIJCays5ZV7RJ+9L+WPVmQCj4jueCP1y314biS+QkMlQfEfV3tGVzNmoBCwzYY6yNxMf19FJfvRFbJWsTkzUFU7jRBVL5tzUZ0nukMKj5n+nznZu50ke/kwiB0NkYjsWAhvm837SFTWXUUkVkTRf6pnfnhmT/drJI1oswsuyzbow4D8so2DyobiZIpzSAkFy5FR+PAEnND5UEkFy0V5TY2RJjrorbmFJKLliC5KAh1NWfM/k11l83+sg5YL+2NUeZ4igzbzbvnsn5Ndb0MuWWbBKlj+G9as3TtZiqztmxpRc6XjflkOl1NMea8yrKxfM31JlL80FiF6qqTIq/JhUtQUzOwlN5W2Vhfso5MZTNtRub9sgUhvSgY91pMUxey3UxlIz4GNqYsf9Zu2rKxXk3tthTOl+2mV8vGNiBW77eazlPTYjKtaIXQSDKfsmzsa8Qk8UN//sztVrgETXWXzP5mTDrdbvbLllkWjBuJQZj46Xw8bqvB/Y5sG5gsQmHNWixZMQfBawPwoMt0mvVjTX9LLliCu40mDa7HZasewGSzRX/bb66Ljkb7ZWM7DO5vK8WYkV26zvyRxvEyu3QtUouWIb14leiXbANt2cQ42Ww6qdtXypZf9rVmLGG72SvbcnAs6TeaNpl0p2zm/jYIk6dN42HhElS72G6lFXvMZ/FRU882YLuZymb6SOfYnlq4XCPf5Dgp2825ssm+5S3XWSLDRUR5zz2HHoPBKc2M+0TGWIeiv/hzNH4d4kNEphqnT+xE0OLV4GnAv/inydi4fgOWLQ9G+IV96OuIQfjp8whZth1PuwxCSFFQGeuvmsF948JVLF4UjPbmq+I5p4PYiJzWaW2IBIVWU91FfNdm2piP00IcTOlPzcqt3Onmzl5asRcFZQNb/hNoheWmQyx7WpJRU3MKN3OniYGAg0F97TlE5UzDnaY4QWaokSGRod/37QWC5CQVLhYaGoKXAz9JTVj6OEFEJNjkgM5ytdRfAYUCn9HlfXNduMivJFnOlK2p9qKZ+DAuCn4Ki6baMNwzDsz9U6vE+mF4Xss8UYMk/OsuobNxgDRwkDD5X7YQSpxaa6q9JPLJeudAyLgetBeL/LMM3itbmMOyPWgxoLsp0WrZWH7WA+tDW7ZvhrNstdYxaWq3gd1+qe2z1m7Eo7V2M5XtopWyZQ1fu+nK1tl461kZiMmBsrmKSXfLZmwIR2N1OCZ/vhhNhTl42FFiFZM/dlXiu64YTJs+Fzcjj+Jxl+mjhv2trfGGwHZd9Tn0t5g+ljiWeLds1jDpYrt1WO9vFOoD4+Fl0S/ZP7VlI56sjZN6TLrXbt4oW4kYQzh2a8cSe2UbKLOnZbttp7+5UrZ8U1+ouyzaQztO1lVdEBjzpGxy/PaW65NEJv8nP/ExIlMDQ2oSxo9fhKlfrEDour2YPnU1xn+8FF3lpqmB/IQEzPxypVnA6hto05pdOH3grM3n+vD6+9i8ADx4ZgdDULFjyzBk0pVVpt08ObXEsPyRTBUYQgUZoWYkNm8OkgoXiWkmfvnE5M0UWhl+4dxvy0dJxW4x1cQ4qIWh9qW7WaMhqtwnNCkyXeV6rmL9vtlyVZuqU8/r1N/rcO6cENyOtL27L7dr2L/pCMa9G4j7jQPjgLbcT9tq8Mho/Zk2nLpWeHMFA087/Htqadg0MvfaGoXqx7c0MjXorsrHRx8uxqYtwciqWoj9l8dj5/mPcLtgPhIKAnEzKwCHIz4V17zX/45dn4QrSTPN/jTeLas0Lbl2BkhUzdsKzy8urWEvmf+jDtMhl087q/Dw2TU1JbSVkemRDEmtivTjVIqWJGn9aUtDFi79lOv5IKiMfT2vw9GGw9CNe60uAJDl5B5TEz9eYPegR2Xsq3Al8eJN19+Nfbmty7BMLd3raPE5IiMb74GxCp2t4UgsnC/mpR92ZaPPmIp7xlT0t6bjQVeWuOa9/vd9Vya+bU83+8s5TmdBRoJBmxVnw3s7HEkQ1dPejnesx6eIjBI4+j7AzSdXLLG+BJtLrqd8EYS6/Ay7fVERGYUrPa68cS9loTfi8mYczk4tdaZGwfDSb9BbWzu0NjJ9d9pR9sIv0HJ0l8/YyGgbj9MuWaXOLY+011CcE6Wxob0w6tnoH4wUkRn9bexqPy5OThD7TPE9Ehft+zzCZMaXjlc1KSKjcKXFjbeutbLQW3F6Ix5niQz3ouPK6CE/oqC/545NAjNSG+JpG49EhsawnlY+VxspIqMGG0VkFAb0YwkXFEyYsAgfvxuASyfOWYw1W9btwoEdhy389O/zXhEZhStruPDUTysLPY3Lm++7RGTqS4aeyHzT2z0kRKa/rsCi8+vv2UC2KlbbeLaIDJd33mmKtRmHPm5FZNRAQ0woIqNwoB8beL98yWZM/niBcLXPA2avRkrUwNJw7TPttSIyCldaPHjrWisLvRWnN+JxicjUFg49ken3ApGJPbsPE1//uVlIhAbNwvyJ72Dd3M/xQ0sZok/vwcb5U3D10BYR5nToKuHaqlBt49kiMlwqnVNqeYos7Vq4IR1XDmWXrgftYqSxrSIyaqAh3hSRUTiwNu7wmJK7NcWYNGkJBg6CrMDkyUEwlpr2xLH2nvRTREbhSmLBm65WFnozXk/jcpbIdGXHwXjuCPrv3HGKzLi9jwx33OMSqTtFyTY1M8y0rYJ3lKbhy3EvCSLDznzr1G4ETf1QHPS4eeE0nNwajNClM8UJ1nSPbgpC2tUTNuNjOmw8EiBeN9aFDZpa4uZBpj1JLHftfdhRKnbCvZb9Oaqqj4tjBuQKIhIZbh5nqxzKf2wMRMSVvYNBFQ7GBg5stfP0acEoS0sW40RraQ4+m7QED5xYVv2wtRz82YpX+Y9tXLnb/hyrpCx0N46heM9ZIjNsy687o6PFqiV3T78mWcmPDhMaF1Y672+HmbbvL44Px+rZnyL7xllBZrYFzcKRjUvRU2X/C4dEhidePzCWo7ry9CAiw43AIrI+RU7pRtTXWu4Vw+XNcXlfIb9sC+Lz55qXQrc0XEFyQZCIU349KddgntsfK3XBKU5qZcZKeVU5ncf447ZyhCzfglMHTuBJRwWSrl1D4FcheNJe4RAv9xuLwZ+qb+frW9WV47riWMUxa7jriuSJctgWCXKVyAz5qiVJZKRhrzVXr5EJP7AZO5bPwf41C/DBC3+LKwe/xh9e+hmSLx8FyUrMGdN+LSQ41M6wMh61VeDgukWC6FAzQ82NrUpiBXJQeNRagdqqs4OIDJcmk6hw+sjaEmVOR/E4AO3urNTIpBQuE+ehyK8n5Zq+IsdSPXzbUCQGhbFUZlVW53D+pL0S4afOY9H89XjaUYWTB45j85qdeNxeKbQt9upREhl7YdQz59pB1dNAPZHAcMwaiTrxBpFp3r9VKEqGfNVS68njIiFrBEb66YnM3YostBWngP60j6Hty7u/+BtBZNIjTiLg4zdQnx0rSAxJDgnL9WPbcW7nGuxZNQ8tBYlYEzDJpoqfFSjVadamlu42J+Bm7pfILlmLikrLFQXcQZcHNfLMGtrLyKMJlI2MUu0Sh2pqSeHA1gcU/Q0ZyZg2dbkYszaG7MRF3SomW+9KQWPrufJXuHMHA/4+tcSNdgv+zb92yj6GZMdtGxnjoQMiIUlarLl6ImOtQc7uCDGTD14vnvye0MCwIageizwSKogLtTWcfsq6PnAQoT4+Ehm+Q39rxr7tjTcQlTNFHMjIc4+0799vy0VM3mxxHEBCfqAiMlZOLtXW11i7Jq7sfWmMtfpQ5bUUsH11Jc/sYiowf+46u7v5autOqv61furasm5VfbheH1pZ6Ev1R05gjSvo/eqWzEXRX/7HoScyLbt2ikMj9RnQ3jtDZLxZydrG0xMZrkzismueZno9e7LF9BHzwFVKPMMoMmuSxcnGSiPjeifyZpv6SlyKyCgc2MMixx5ugJcdFyPc7hrTAZH23uEzRWQUrhxhxJ3nWlnozvtD9Y6zRIY8oru6YOiJzFDtI+NJBWobT09keHx9VM5UYdCbWLhI2Mpo0+JUErU0XKHEAxvlOUaKyKiBhjhRREbhQDteWLtevXwrNoTsxKLA9RbaXmthpZ8iMgpXEgvedLWy0JvxehqXK0SmZzg2xOMRBVrti7VrX9LIsAHqa88JjUxdzRnwJGlto5C4iOPkay/hVu500DCYzxWRUQMNcaCIjMKBdrywdn3ywEn8+ucTcXTPUYuxxVpY6aeIjMKVxII3XUVk+vudUufw0Ehr5EXr52tEhuQkq2Qt4vPnoaPRctfNJ50VyC5bj+SipSivPASeRk1gKSKjBhriQBEZhQNHgibx2nX87M/fdto+hvEpIqNw5QhX7jwfHUSmzCku4pGxb6+xzu+IDFcmFZXvENNHTbUXzV9N37XlI7VoOTKKQwTRKa3YgyeKyJjrx52ONNreUURGCRxHmDakJ+Pnv/ocPbXO2ccwPkVkFK4c4cqd5/5OZHggdd3iwKEnMoaXXkDlx+/ZJTO+ppGpqzmLuLwAGOuvgrv8SoA87igHl2bX155HcflOVFcfx9Mu02m2SiOjBhriRBEZhQM5Xthy++pLcOvSFfO4Yiuc1l8RGYUrLR68de3vRKboL/58eIhM2Yu/Rs3sqX5FZO40xYvl1dwQr063sy+PJIjJmyVWNNHYlzv9ElSKyKiBhjhQREbhwFtCRhuPIjIKV1o8eOva34lM4b//MzTv3jb0Gpniv/k/URs402+ITJ8xXWhbkouCkFmyBr3GFIsvp29bs5FcuESsWOI+MpyGIqgUkVEDDXGgiIzCgS0hY2y4ipKKXebpaFvhrPkrIqNwZQ0Xnvr5O5HJe+45tBzcO/REpugv/iMa1i33GyLDYwe4tDqnbKPY3ddQedCCyNAQOLdsE0or96KlfkA9rIiMGmg4qCgio3BgKVyqwbPbeC7b0aRfIb14lcV4YhnWdt0pImO7bpytQxVucB36M5HhydckMh2Rl4eYyPR2I/8nPwG3EdauUtJf+5qNjAR8c304qHWR93RpJ8MN8WLzAoTmhhvk0V8RmcGdRFtvY+VaERmFA2KdU851tWdwK3cGTqX8VvxOJr8yaKra2X6hiIzClbNYcSWcPxOZO0XJ4OnXPdXlQ0tk+rraxLRSW8QZvyEy7Y1RgqQkFATiStZ4VFefsCAyXH5dXnkQkVkTkVK0zKwmVkRGDTQcQBSRUTjoM2aInb+PJf0GZ1LfwIW0d3A+7R2cS3sb3c2JFuOJs0JHERmFK2ex4ko4fyYyUiHCveqG9NDIe22NdgmMzIgvaWTut+aAmhhOG3U3JwwadH5oLxaamN6WZItnisiogUYRGYUBYoAfO9xMMzxzvCAvF9J+j7Opv0NE1kQ86iizGDecFTqKyChsOYsVV8KNBiLTf7dziImMsdbviIwrINCGVURGDTTEg9LIKBzIcaGy6iiOJb2AUymviaml2wUL3SIxjE8RGYUriStvuqOByPAYpCHVyPQ2lisio06Hdnvw9maHHa64FJFRAodY4+rH82lvg+e1ZZaE4FDiz1FgCHW7Lygio3A1FGOYPxOZlqO7wA3x+u/1Di2R6Uy55XDpNaeXRnJqiZvbcb8YT0HCowy466+n8aj3/XvAUkTGv9vPG/2P00ecRrqc8SEedpSKMYEkhquX3I1fERmFK3exY+89fyYyXETEVUvOamPcPqKg+eAOkZC0hbHlOiIytZnRaC9JtRgEqtKi0Febb/ZjmPuNpi2/f2gpE6pYWw2obTzaw4RnfIT04pViaSSXR7rzu5n7pSIySvukppYUBsA9qE4kv4zultvm8cnWWOSsvyIyisg4ixVXwmlloSvvDXVYcgJbfEH6DxuRkQnJhG259ojMzhUBWDz5PfErjg8XA8OmBVOx5Iv3MfODV9FSkIi4c/uxLWgW9oXMR3dlNg6tX4yeqhybg4i28bgvDO1bGmvDPP7dM1qSLXuNHWcIR1jRSZt5tPeuN57day1GaGYo+lqdP+/FG+mO9jiURmZsC5yyyn1iGkm/I7inuFdEZmzjylP82HpfKwtthRkJ/1FFZPJuXcC8CW8JUkJi8rC1HMmXj2LhZ+8KAhB9eg82BH6Bg+sWoSwxAvvXLMD2ZbORfeOsXYLAxqPWZiQaiGk+7qzCxzdnIrkiclAeWpuzkVJ+Ff1tJeZnPcZCJJdfgbE52+wn837HmI+7RpNm6q6xAFmVN1BaGz8onAwv3UedVQhIWIJT+UcchpXvKNfxYEpcPe00nb+l6stxfY2mOmptiBSb3uWVbfJ6n+LYx99oqi9VlpHvHxyrRlIW2sLAqCAy/Ppg5YYf2IyJr/8cG+dPwZw/vI6KlOs4s301Tm8z7Y7ZWZaORZ+PQ2NuvNDGHFi7ELuCv4IhKdJu45DIPGo04MfWKjEVwK/ohy28r372q8IPzWXi2QOd/4MW6V8m3pfvMBzj4XuMV/ozXvrz96OxCj+21Yi0Po8OQF+bpTbk+w4DgpJWYV5sIGbEzcejjip8016Kj25Ox8L4RdiTtRNhRSewOX0zHnZUor4xDUFJK4UfAXE4dx/eu/YZ5sYtxKLEFWLQq29MB8lRb2sRfugox3cdBnS25Ilnx/IOYmf6NvzYUSPy7HHZRP3V4JGx3Fzmp8ZK/NjK+KvxWOP/xFhh9ue1rCOGMYWvAd+V/o+MmvYxjkC7PSsD8yHzZK1snO583DJQBl8sm8SqGZN2y1aDx5r2GWi3GvhH2dinbWHSW2WrQXdjMs6mvYmb2TPwkO3fZsI8xwJHY4kQJJoxQ7aPeSxpq8GTpnLcbygW49pAuw1H2arFuCUx7+o46bBsz8bcQeOk3bHEW+1mp2xGL7SbH5Tth6ZSPGygzDLJPikD3Gk3iRFn3O+aSvC4vdImMXeGyJiMfX85xDYyvd2QVsW2ppSkv3ZqiQyRGpYti6cLd9m0j0Rhc6LOIWjqh4g8Eoq9q0277TbkxCHg4zfMlXFyazBC5kzEsc3LxLuP2irMz7TMj0Qms+waiqtjwWv+qPXIqriBjIrrKKiOwaOOSuH/bWspsiujhH9u5U1832YQ/j+0G5BXdUv48/k3rSXCn+8VVccK/8yK6+g2Fgj/xx1VKKtNEP4phgihkelpLQLJS31DqiAZMo851bfwQdQ0POyoEP4z4xdicfwSxBvCEZyyBuNvzsTJ/MOYFhuIj25Mw9VikwZqR9Y2HMzdJ8o8KToAa9PWY0rMXEyNnYfA20E4mXcIDHOu8JgIczTvABYnrhDly/GwbIbaBKRXXEdGxTV0NueKMrNeq+qSkV5xDVkV19HamG32r29IE/6so8aGdLO/sTFLxMF3KmuTzP6dzXlgWPqX1sSb/XuNRUILZa/dvFO2a8iuvIGu5jxz2lV1SYPK9kNTGerqUoQ/81pXn2oO32qjbIzTYdmqYgR5ZZ1qMelK2dg+xCrrTOLe1G7XRB1aKxvL0NyYaQ4v221w2bI17ZZoDi/LRlyU2Go3F8rGMrAfsg5YBtnfrJVN9jem3WEFk/qyNTSk22g3e2W7gdKaONzInoyw9HG435qPPmPJACZ1Zct5NpYMbrdo0X9MZdOOJTFizEgri0Bn40C/GoqyVdR61m6ybPlVMeD4yPbRj5P9rcWadjOVTTtO8h3tWOKtdnO1bMU1cVZlgPNlGywDhrds10U9Mk3+ejXyTVu2fmMx0kojBMYGY3JAvlm2m/WyybScde1prp0hMuQPPfUlQ09kJFFx5GqJDIU5VagkIa1FyYKopF09ga2LZwhty53yTEx55wUkXjwsiM3ZHSFCKF8/th387Vk1DzQEXhMwyWz8KwmCdJ90VgnNx4b0zXjaZZoG4MAQGL8IAfGLEJK63kwsGhvTEZiwRPgvTgoGyQfj4TTOoqQVwn9+wlK0NGcJ//sdBkE2GM+8+EUw1Jl28mSa1KR89SyNN699jgcdFUKrEpy4HC1NmWKX4CvFZ/Dzy+8hssRETu63lyGqLAwHsnbilYhPsDd7F3Zl7cDatA04kXdQxHm6wDQ9tC0rFCtT16KoJgYTbs3CZ9EBGB/1JRYnLhPxkQCNuzEVtI9hGc4WHMXbEZ8IkmNZtnyLsjU3OVG2jK8REL8QX8XNR2ZllIifaezL2Y2AuPnCP6ZsYNXGhcITCIgLFM+0tkK3ysLw1TP/g7l7zfGkVkaKsExja+ZWPHnWbsW1CZgbv1C0w+rUdU60m/tlmxe/ANlVA2U7lLtvUNmeGKtwvuCYKa9xgbhQeNxchhul5xEQayqzZdmuWS1bia5s33eYphYGY7JQpMEpRi0mte22MmWtqCNivLz+GSa7qrD5WbuxbJlWysb8sk1k3wkT7TZftJ22bFGlF6yWLa1yoGxbMgbazZOyLbwdhJZn06zsb7bKRhswicmMyhvmMkhM6svG/mDCpGW72S7bdcyNW4Tg+HdxPu1VdDXFijRKauMtMOm43TiWBIv20ZaN2tOQtPXCPyB2Phgv2+FJV5Wwb5NlS7co2x4TlnTtdrbQibLlDPQ319stA4EJS0VelyatRE+rCZPdxkLwnuMhx8nmpkxRBm3Z5sUvhKHOZBjNsklMciwZqbKx3mW7Mc8Lbge5VDaJSWfLtj/Hcbud14wlFpi00W7EvxwnKYfM8k1XtsB4k3wjBtlexJi9drNWNjk+eMsdFURGWxklCVeweeE0HNm4FFRH8RmNfmnwe27nGlPH7qgCyQ6fsQKoscmPHhh8tfHxWjBGTm2M4AqLT6Nno+uZbYvMB0kLtSyf3ZopyBDvv2krwYrkEMyNDcS+7N0or0vEVwlLcbMsDAHxizEzNhDplddFWQjuKbdmYlbcfCTQpqYpC4sTg7ElY4t4vj1rG3Zn7TSXm/Ht0tzLfCjX/blrofYfQVyptnO/7dypu8baUziV9GtUVQ8QVnficfhOew2etNpWxTt8X2HSPO6putL0kc4ak8mDj+HDZ4hMf989h8unpKZGr5EZaqCRyIj5564a3Cq7iGW3g7AkKVh8OfDrYUnSSlBDwZ8z/nyHYYNuB+FI7n6nOgzDH9JoHKyV+akGXNToyDBSiyTvHbnad2XYb9pKhdZGkiDpr1xNJ9fUv7P1QiJDfDkbXoXzrL5Hsv46G6NxPOkFseHdUOfjobHc7pYSQ52+it9/cWqv7bSy0F644X7mDJHpTI1Ca9iJIZ5a6u8Hj9nm6ZSSsNhyR4LIyC9nkpBVSavBaQ9nfrRTuV1+FbfL4JgA9QAAIABJREFUrwiX9/K9E7n7hWGuM43+bXsZaIjrTNihCEPD34YRTH8oyuQLcSoiMzoHfD227rflgWcoReVMw5POodeUqOXXYwNXepwN9T2JjJSFQ52WK/E7Q2Tk9i5DviGe8dwRr2yI50oFOBNW23jBKSGI1thuOPV+Z5WwreEyam34tuZcTI01GSJr/dX12BmEFJEZ/W39tLMK0bkzcS7tLfCQ2eHo34rIjH5cDQeO9GloZaH+2UjeO0NkmnZsGJ6dfVsvHBMJdSRE2NXKjKRGhquAIp6t+nGm4WibMuHGNHBV0MSoabhcdMo8kNU2pCoi48Z0jDP17i9hFJEZ/QKHR5ocTfoV2hsHDIiHGp+KyIx+XA01hqzF789EhrM9PKKg/84dp6eXfjHpMJ7jP1fUOO03w0cdkaEWZkfmNmHfcq7gKLZmbFVEZoyTF+0AoYjM6BY4tTWnxc69hsqD5n6vbf+hulZEZnTjaqhw4yje0UBkegwGp3mJW0TmTmaiIDLtNy+OGo0MgcGlgtNjAzE5ejZyq26ZBzSlkVGDjSIyoxcDd5sTcDzpRaQWLTP3eUeCwlvPFZEZvbjyFkbcicefiQxneqiRGXoik50qEnJk8OtPU0sEC48P4M653EmXu+ZKACkiowYbRWRGJwa+by/ExYwPEJn9GR51GMx9Xvb9oXYVkRmduBpq3DiK35+JDBcP9TRWOK2Ncfv0676uVruaGLmKyd+IzOn8I/j01ixBZvZmD+zLooiMGmwUkRl9GOB2B7F5ATiT+jr6jRnDTmIojBSRGX24ckQyhuO5vxOZXmPdMBCZu11+SWQ4cOVU3TSfSaQHVHFtvCAyH1yfjCzNLraKyKjBRhGZ0YeB/LKvcTKZO/fGjAiJEeNPew1+5E/Zo6k68CIGFJHp73eKCXVXZDskM76okTlXcAwzY+Zhc9oGGGpN22fLQYTHGcyJnY9ZsYEorU0wdyxFZNRAq4iM5xgwVO4Xm8xlloSMuJtSFIQTyS8hPOMj5JSuH7H8pBetQnrRauSXbcHDjlLzmCPHJOV6jruxWIeKyDhJZHpqC/2SyFQ3pGB+/GK8GTEBv9dpXpoaM5BSfgUhySHi7CPZARSRUYOJIjKeYyAyayJOpfwWEVmfjviPebmZ+6XY+G4k88N8hKX/Xkxvfdeer4iMF7UScvwei66/Exka+xoPO7+a2q1VSzSuKfqrv0Rt4Ey7ZMbXNDJ3jPkISVmLnZmh4AF9nEqqeHb4I8FeWZ+MA1nbxcFwx/IGlmEqIuO5EPP3wUQRGc8xEJk1CenFK5Ww1gnr6urjOJv6O3zfpoiMv48TvpJ/RWSc1MiU/fKf/I7I7MjajkUJS7E8OQTzbweh79lp0QRfR0surhWfwca0jdibtQ1Nmm3+nSUyWsM9AkkehinBzefy2l33h5Yy9NV6PuA5ygvzz9PKtfl83F45yE/7vLsy2+q5MUyLz7RhHV3zHWvHwTNfjvLuKG53nisiMzRE5klnBR50FIufO+3i7js/tBeZVynxKIIHHSUiD1y5dM+Yiu/bC+zileGshblnTMEP7aaThmXe+ozpuN+WazM+RWQ8x5asa+Wa6tLfiUz+n/zJ8GhkDK+87HdEhocs7svZjWnRAfgyNhDr0jaKU6gJ/riyywhKXIbQrG3YnLYeGZUDu3s6S2Sa82/j6iHTidTZN84i9cpxPGqrAMkH04g+vQf3G4tNp3Q/O4CQwloSHoKPz7UCvL+uALWZ0eL9ezV5iDwSiot7N6Aw9pJ5YKRg568pLwFFcZdF/IyT8TFdEhKZB8bdXpKK+PMHxDNtegzH5yQsPJ2cZZADA8tREHPRnC7f4zOZBt9h+N7qXHHGB8MzPvoxXzK/8j19vhhe1gOfJV8+irqsGHP8jIs/xi/zLsPLPMh6Y17ktcy/p64iMp4LG5NGJtiMKbZJStEyXMv6HFE5U5FcFITHuiXQJBglFbvEO5VVR9HdbGnX5k67tjZE4mrWJ+hsNBn5FhhCcTVrgphm4u6+2aXr0FJ/xSKf2nSqqo7hSuZ4XM748FmeBwh/evEqGOsjLN7NK9uMupozFn4W8VUfUxoZnZZKWz/q2vW+xzGRY5av1R1naeSqZnsuZ3yaQ0Odstd1e/k1Xyx/9RW/IzJs1ID4xUgwhGNpUjB+d+0zRJWFmRv7rrEAoembsSop2C0iQwF6Yfc6tBYl48rBr9GQE4f0iJO4vH+TEOYJFw4i6/oZ1GTcgiEpEmWJEUJgRxzeKu5jzuzFzZO7QMLCvOZEnRNCmwSJ91KYk1CQ0NCvrThFpJkfHYa4c/txdkcIGD7qxE5xX5FyXZCr8AOb0ZgbD+aB17dO7Rb5JPEiaSDZCNuzXhAO5oHlyLx2WqTRUZoG5pHPmSeWgfcsW9KlI+gyZIh4ec94SDSYPst4aP1ipF09IQhW6e2roi4YjoBmPph+VVqUKA/zJjsfy0LCRvLHemR+GSfrjOHKk6+JuEgWGR/LyTCMK/HiYUVkfFAwWCMyUbnTQEFfVX0UYenjQO1FoSFUnHnUVHcJlZVHcDL5ZaQWLUdY2ruIz5+HnpYk0Fg3IX8eqAEhMeF9UuEiFJXvEP4NtRcEdtlHOhtvimXWJBl893r2ZHNafE4ylZAfKAjI3eZ4lFTsgbEhQsSVXLQUiYWL8G2rSaPY3ZyIc2lvo7EuDN0tiSAJaqkPF+mXVe5FScVutDXeEHEkFy4RhIgErKk+HBWVh5BUuBg11SfNeWP6VYrIWNQH60T9PKsDfycyxX/9V2hYtWroiUzx88+jNnCWXXZlz0aGwpGCmwJIgpZf2BRg8j1+pVPIkhgwTGdZOr5tKDKHl+9JV9t4ts5a2pO1E7Ni5mFh4gpsSNuETM0y62N5B/BmxETMjA3ECTdtZPJuXcDRTUFCqFJ7QFJAgU1hy7LcDjskhDqJBwXvqdCVQvDzWUr4MUGAJHEhYWF4CnJZRgpwkhXWhawTkhoKb2o9SD5Yf4ybBIr1ybT4jOFuHN8B1j0JAvNKl/mj5oR5ZDjmgySELtMgWciIPCX8SCZOb1tlzjPzzTIUx4cLUsNwsWf3CdJD0kFSw/ywrZkf5vv6se0if8wXf0yH5WT+5BQUw5MUkbQwfpIo+jE9ScaIC+aHZIp1wjAntwYLsiXry1uu0sh4NrCyHawRGe7jQo3MrdwvkVAQKLQvUTlTQCJCLQmPDOB7xoZI3MydBkPlASQXLkZG8WoUl+8SBIVEiPGkFwWDxCirZA1i8uYI7FLDQ2NexkOyk14cDBKaxIKF5ukshg9Lfx+38mYgv2wrEgsXoqxyH65lfw6utOL7NTUm8sGjDK5kfWLujyxXXe1ZhKWNQ2djtCBERYbtCM8cj5i82YJkMa/MI8tBA2MZl8SmIjKeY0vWpXJNdamVhb5UJ5QF9jQx8llH9I2h39mXGhmqfXh4pEzYmisJib4iOWXw5biXxNf6zA9eFYKP2oxFn4/D5oXTMO3dF4VgpIClYNq5IkBMM+xeOdeufYi28WwRmR5jIXZnbAXPU6IGRjsFkVoZie1Z2zE5OgDXSs6ZBytnp5ZYzm/qC3F4wxKhGaAtC4Uzha0kGZWpNwRxoMaG1xTgJB0kL9R2UBizfmSdkdxRoPP+bkUWjmxcKoQ2w9LvTnmmEPAkB/XZsYIkkJAwTpIUXlNLwbRIGkgCmCcK/9yb50XeSBBIRDgtRW0QtSSsexIppiE1TPRnOMbJ9OhPYnJiywoxtUUSRW0Nydu1o9tEmZgeyQzTIrFhvCQunLoiKWPeSKJIgKiBkQSN5InpMS7WBwkYyRrrgumTADMuEjVOv13at1GEo0uiJuvPW64iMp4LG2tEhlNK3M+lqe6i0JKQkMTnzUVvS7IgA5ziicz6DPfb8oSmhZqb+Py5KCrfLsjOzdzp4HRQacUekGRkla5Fa30kovNmCgxwSTOngBhPTtkGscy6uHynuJbYSCpaLMjP485y0F6GWp/Syr24lTsdDztKhEamsuqIiI8aIGpkSKgYZ1bJWpEXaoMYH/NfXnlQPDdNly1FWtEKFJfvQEXVYcTkzRJTWExHpq+IjOfYknWp3NFBZPrutDutjTFPLb0TcBZNxk6XXuTLPfVlbhEZCq3Fk98Tthiceji3c42YfgiZM1F0bgrpVbMmCAHJL/A9q+YJgqMV8NYASyIj7CY6axCcHGL19OtlSauxKmkVdmdtR2eLpQEe7WSWJ65ATFkYHnRUmAcaSWRIehz9mC9qkiRBogCkXQjzRn8+5720WaE/CY/Mu9Q4yXRkOXlPskdbGMbJnwxDQS4NYBk3wzEepsFr+WMa8hldxk3ixXd5L/OnzbMsB+uVP3nPPMs4pMupL1k+GZZxyzzJ9GS++R5/zBfDiLbrqhFp0J9+slx0mVeGlfmU94xX+vE9Gb83XeaNaXszzrEWlzUiQ+JBgU9tC21TuMMuNSdclsypGhoD3y6YLzQlnKKhloMEgi6niDobb4mpGhIcTkWR0HQ0RglCQ1zwR40JtSskEd8Ys8B4DJX7xDM+zzdsFeRDhs8t2yTe4X43NOg1Ea0BmzSmw7SpMSIp4jQT3+H7dElMpFaIaZVW7BXx55RuRGzeHBSUheJpp8l+je9IIvNda77ClxNj7FjrN+6Ul2OVHIPded/Td2Rf0rvOamT67na5xEfE8usPFlxAbYNrDIhE5p6x1iUiQ3sOflFTKAVN/RCT3/oVxr/yd0JgUfPC6QEWnF/lCz97V0wzUENxbPMy7Ar+SmgTaI+hrxx5z8ajUH9qrMSyxFWILBkwVpVh5iUE4WDWTmEnc0+zaonP77cbsD9rJ3529iWhsZHv1DWm4YvoufihuQw/PCMRkkxYc1k++pNI8Jo/XvNHf+mnDaP35721n3yXrnwu/bRxSD+ZrtblM3mvD6eNQ+ZX70d/vqdNn9f6OPXvyXsZTuvKfMg4ZRoyHflc+mvjktdaV8ajdfmu9t6VaxI3EitX3lFhJYZZ72WIyJyI9BLnll9rNRbsh/KexEb2S+7ULa8duVri4Ciss89lnmyF1xsuM5y185yqqo/jTMob6G3IwA/NA/1K4UfiR7muYoFjFccsV9/zNDzT5cekrT7hLJH5prfbdSLzefAVFJc3u/QiiUxfR7PTRIYMj4SE00QkLOvnTRZfuOd3rRU2JZwi2LJ4uqgATjnMm/CWuTI4VUNtDadoti+bLYSotYoikWFD8JmtqaXb5VexMW09dmSGol2nkUmtvIb58YtwPHc/2ptzzOlLjYy1NO35SW2DvTDaZ1KroPVT14PVzsSSq/XCdzypX+KK+HI1XRV+oP2saWRU/QxoZNQ+MgNYUbjwrC60stCX6tJZIlP+29+iIzLSKU7S0dmN12acxHMBm6KQnl/r1EskML21taieMAF3C/OcJjLayuTUEbUxtLOg5oXGnGRytJehvcWsD38r7D4ofEh0uOqFZIbTTBvnTzGTFW2cvNY2ni0ik18dgzkx87AtMxQPOgaWTfL9q8VnkFRhuXSS/s4SGZaBtiAyX7Qx6akaIES0P5GGyzKMdCkoaSsi76VLTYS0kZF+jlza40hbE21Yxu+MMGY4SQipRaM9izYed69pz0P7GNrrcAUT7Xhon8O8Mk2mw/RaChKtpkdDYBoSU2VKUsJw9KNtj608cbqL9kc0vKaNkK1wjvwVkfFsYGX9KiJjvQ7l1JIiMtbrx1HfVM8H15tWFvpS/ThDZHj8kSs7+3I2ibNKLhOZ7oICkdCdrHS3iAwrlsKH00k0BpUVzf1N6EdDT/qxMaid4TWFHY1BuYRYhte72sazRWSmxQYitSISXyUsQZwh3CKuS0Un8cmNaQhOXI7E8qvmZ84SGdpskHhJA1UKazYcCRivafRKbRQFKwU4BSuJDuuAQpwEhMKe73NFEctHo9YDaxeKeGgYTONYhqWxLsOSFJIQ0J91xHhJDI2FSeJ9rj5i/Lyn8SyNZml0S7UjjYH5PuNhOnT5jPExLhJITu0x/8wLp+1IJNg+FOzMP8Nyuo8EjukwH7RlosEtCQsJCtPg+/TnPcvBdmQYvs8f36WBMOPWak7Y/iS8XLnFsnHFFAku80v7KuKIeeQzxkfSx3qW9lTMD+uP5WK9sT4YlmVjmsyH3FeHceoxJe8VkRk8WMq6cdYdSSLzqKNMLJU21l/F445yYbeSVrRcLLnm5ni0g2msDQP3mqJNDV1ny+VpOEVkPMeWp20w2t7XykJfKpszROZuVZ57RGbTsTRciS12WiPTGR0tEuquMLhNZIaicrWNZ4vInMk/iqnRc0BC09pkudtst7EAm9I24lDOXtS7sbMviQyFMYUrhSUJAFfykIDRpbCnRoLPSGxICih0SS5IHEgsKLS5MogaBNYRNTj0o4AmEaEgJtljOhTEXIHE8Jx2494uFMaMR2o1SHgo6CnQSZCYLsPyfUmuGJ6Cne9IosK8M2+MWxIZpkciQrLBtBgPiRjLyzwyz7zmqiISCYZnnmVe9G3OsvE5NVUkVkyHpIaEjmSGBsvMO0kMw/G5JLl8l2UgKZSEjO+yrpkXhiceWK+sI0lwWPdcWcVVYywL3+HqJ8bFFU/S4FifV0VkPBc2I0lkSFT2JfxMEJaqKu5Z8x5yyzaKFU1cks19ZG4XLBTLpKt1+7zoseDte0VkPMeWt9vE3+PTykJfKoszRKa7tsglIsPZJM4qPecqkWk9fVokRIMca8uupR8zPZyVqG08W0QmrPA4bpZcQG/r4P1obpWFYfzNmQhJXY/zhaY9VJh/ZzUyUstBDQUJAZcLU2tB+x9uMEetAIUqhTGFLwkMhSkFP6eQSDR4T4JA7QHT5nQVBSw1NBTkJEvU6jAM65fxyCkXajooqJmW1MiQiDA888BnJBvMG1eOUYhTgDMtCnbmjXlmPHyPZIV5lESG+ec9iQLLxTww79Sa8F2SNV6TGPBdvsc05WomLRZIdEKXzhQr1khGWHcsI/PGvPCeZIZpMA7miVN1cuqOJEfWC/PAOEic+D7TJxlieiQgDMf8Mg6SM2phWB90ZTuRALHuiSFtPuW1IjKeC5vhJjKmow9KxAZ1XC2UWrRMEBVuihee+TFi8maKpdxc+UQyw9VR3KPmm9YsqxiQWPC2q4iM59jydpv4e3xaWehLZXGKyNSXCn5BhQlNWRz9zETmaEQRjlzOdviCjLBlzx4U/fSn8Eciszp1HebEzsPypJVo0Ghd2NhJ5REYf3MGPrzxBcKLTLva0t9ZIkPjXpIKkhJqKqSmgRoFkhuCi5oBfvVzzxdO5VBYk1zwGd/ltAmFPKc7JACpfeC91NIwboahcOW1TI8u/UlieM33ufcMjzggIWL8JBUyHeaBGguGYxoU7CQQjJP5oR/D0E/mhfmnP+8ZjpoeloFxMh2my/QZju/Rn3HJ96XLZwzDumE8zJ+MR8bPsPRnGoyX19q8MBzrhVNerAs+Y/m4czLrXqYlw/E565D1zzTpMhzzx3pjXuU7elcRGc+FzXASGU4N8cgDbn7HZdfcS+ZGzhfCTie7ZK3YZ4Z7xXAJ9TfGTNHuXP7N/WeoneFKIj0GhupeERnPsTVUbeOv8XJM45jla/l3hsj0NFaAxr53MzOd4iTXE8uw5mAynkstNGLF7jinXiKZ4fHaNPb1NyJjbMrCgttBOJK7D1/EzAVXKcmG5hLr+LJL4BEGk6NnW5AcZ4mMjEu5o29gUkTG8zYdTiLDPsjDG2n/Qo1Lfe15QWi44y+PMaBGhrv7Xsr4AP3GTNTXnhO7+Zr2f5kp9q0Zrn6siIzn2BqutvKXdPyZyPQa65zmIuQju86mIyymHM/VtfZj2uoIl14W2hk/m1rKrb6FdyMnYnnSKuzM2g7axEhgplREYsKNaeLogqW3g3DMzSMKZHzKHV2DkyIynrenicg4t4/MUPSf+605grQwbrGRXs1J8xlK3EmY/t+15aGh9jwea/arGYq8aOOsrjmhDo1U5yuZZZEWG+5e+zORudfW4BIXoRKGypjnnv7zH8U6bDl15LTrZ0QmuSIS6ZU3sDVjKzanb8Zj3cqE0/lHsCltkyA5O7K2m4GlNDKeCzF3O6SvvKeIjOcY4FEDPPzxYUfZiPy4KR430dNuSve0q0rkhc+4gZ1crcSVTcOVz4qqQzib+ibU8mvPMeYr48VI58OviUxHi0tE5rMV4TB2fYfnAMCdYwr6e+74jbEvB7DZ8YtwKHcfJkUHYHLMV8ImRgu4/rYSQWSCk1Z7ZUM8bdzq2r8HKUVkPG8/amSOJ72IC2m/V79ndRCW/i7OpL6Gs6lv4Lv2AVs0NV54jrexXIf+TGS6y0vgrKEvlS4vTTmOP/73/2EiMtPXXENOcb1TTKgrMVGcTMmDneQKJWuuL61aIpEJSlqNFy69i1P5hxGYEISc6ltmrQtBX1mfhHUpaxCcFAxONcmOoDQyalBRRMZzDHB/lpKK3Sip2KN+z+qgqGwn+KuoPGyhKZJjj3I9x91YrEN/JjLNu3ag4E//1CkuwjMiqYThn9DIuLIEm4nw9Ou+rla/ITIEM/eNuVZ8Gn2txWLDu4cdlmdCHMjZg9XJITDUxqOzZWDViyIyajBRREZhYEgEYnsNfuRP2YioOvAiBvyZyDSsDEbx8887RWQSs6qwKDRmgMgk5DQhZH+CUy9z+2DuJePKWUvD0VG1jWdrHxl7+aANzcyYuQhJWoXb5QPb8isiowZaRWQUBuyNHe4+47YCcqsEd+NQ7yls6jGglYX6ZyN572j5NY8naFi6FIYXXnCKixy4kInTN0oHiEzf/Sd4f/55hy/3GAzmzWq4TMralJL086WpJUeNl10VhbUpIQhMWIrQjK0WG+YpIqMGCkVkFAYcjSHuPFdERuHKHdw4esdfiQyPJ6iZMkXsI+PMoqNZ66+horF3gMjwigcv8QAmexHIc5bo9jZXjxoik1cdjf1ZO3A4dy8+vTkTF4tOmlWdisiowUYRGYUBR8LDneeKyChcuYMbR+/4K5Hh8QSVH3wgyIw9HsJn3T29YrU1DX35J2xkeOGMnYw8Z6nPaER3femoITJaYBzM2SuOKZB+isiowUYRGYUBOR5401VERuHKm3iScfkrkempL7OrSNGSG3k0gWAxWiLjip2MYETVBaOGyEQWnxUb4n16aybevT4ZxbUDp2wrIqMGG0VkFAakkPCmq4iMwpU38STj8lsi01jhNJHR2sdYaGSctZMhienvu2eXxNBOZqRtZEhOZMM6cruNhaiqT0J1fTK4n4w2fF1DGqbGBlr4aZ+r69E/GCkiM/rbeCT6sSIyCldDgTt/JTKuHE+gtY+xIDK8ccZOhkSm726Xy0SGJyrzYEE2HN2jm4KQdf2MmSBUpFwXfjypmGHailPEyc08uJD3pbev4oeWMnN4PQC0jbc8OQSRJc4TGX1c2vv6xnRMjplrM11tWHU9OgcmRWRGZ7uOdH9VREbhaigwqJWFQxG/u3E6WrV0r63RKY2M3j5mEJHhUiaqbLRzUdauHe0ho9fIZF47jX/46Z8g/MBmcSLzlHdeECRl2rsvgsSFJxR/ofPbvXIuki4dAd3sG2dxcN0icUKyrUrUNt7XGVvw4bWJ+DJuvse/STdnKI2MF/c4sNV+vuxPIsOTyX05jypv/icUFZHxvzbzh37GsYpjlq/l1RGRuZuXKVZFc9Nda7xD+l2JLRY2vSQw8s9s7EsPR9NLcmmUo6XXeiJTGHsJawIm4dap3Qjbs15oXljJJDibF04T9xd2rxMVn3DhIDbOn4JToSsReSRUPN+5IgCP2y03sNM3EonM/cZi0O1tKURtbTIqaxM9/lXVJqKzKVfEy7jVb+zVAXH1qK1Ctb3Cv1cxQGEjtX1qXBl748pQtTnHKikLhyoNa/FSRtv74HNEZDpjogSR4TYvkrRYc/XTSuQuFkSGHgGbokCLYGsRkMjw19NY4XBqqSotCpxOktNHJDAkJgfWLkTMmb2CtHDaaNWsCYKspF45LvwMSZEImvqhaIjky0cFydm7OhDndq4Rmhs9gZH3rEBOPXFgeGwsx4+tVfjR6IVfaxWeGCtFvHLgUa5pAB4r9fBdU4lq/2dCd6y0+VCXU45VTEd7PdTpqvjHxtjFMWu4ccU07SkcHBGZ1rOnBJGxxj2kH7eIoQmM/m8QkbG3eqn8t78VRIbrval1sfcjkbly8Gsc27xMCIEz21cj4vBWRJ3YidClMwVpuXlyF6htoTaGBIek5PL+TYLY8Lq7MhvbgmaJH6eX5HuSvChXqWYVBhQGFAYUBhQGfB8DjohMy4F9Ds9Z0q9WkoRmEJHhBjOvzTgpNpyRLEi6JDINq1aBO/DZIzH6qSWC7PjXy4VWhV8EX43/HTYtmArayDTkxKGvNh+zP3pN+E1/72U05sbjYWs59oXMF4bBtI85uyNE2MkowPo+YFUbqTZSGFAYUBhQGNBiwBGRaVy31uE5SzyBgCYw+r9BRIYBbG2OJ4jMymCHJMYakempyhEaFhbsm/pCJF48bDFV1Fudi9thh9BZli40MyQy8pqambSrJ+yuWtJWmLpWHUhhQGFAYUBhQGHAdzDgiMj0lBbDnqGvfhM8LZmxSmSMXd/hsxXhg+xk7mZm4m6R/Y3wpKaGmVYg8h0QqbZQbaEwoDCgMKAwMFIYcERk5MyPLXfxtmjkGDq0/MV8bZXI8OmyXfGITRu8017fnXa3NDIjVXkqXdVxFQYUBhQGFAYUBkYWA54QmeLyZnwefMVMXPQXNomMLa1MX0ezzxAZTj/pwWnNz54ltf59dT+yYPeV+ufyQl/Ji8qHf2OSy2H1behoTFL48+8217e3t++t4cNZP0fY83ZeZXyeEBl72hiSGptExpZW5l5bw4gRGa6C4ionbiS1IfALLPnifXBpNivqXk0eQuZMxOLJ7+HwhiXCj0uy969ZgPkT3xHvWWtoWcnKHXsDB/HATRoQwWa0AAATwUlEQVSXTvkACyb9Xmy8SBzEnduPuZ+8KfylnRZX4QV++rbwL4i5KPDF3aYZbt6Et8BtAxSGxh6G7LU5Fy2snv2p2E5C7oXVX1eAlTM/EVjiKk6+z8UO3HKC4Ym3hZ+9KxZEpIQfU5ga45tx6vFFUnw6dJWQfYs+H2ced64e2iIwxe1MaIPKD3quBCauOL415SUILJ3cGizkIfdv4/JsffxDee+IyFRPmADj4cODTFocaWMcEhm9VoYJNe/eNiJEhoLk9//0n8S+M9xT5utFX4KDwvp5kyH3m+EuwPRjY3K5Ng2K2dgcHJZ/+QextHsoG0rF7V+CjESG2wFwZ2lu2jjzg1eFMJn6+9+gOf82Lu3bKLDEwWPOH15HesRJMXDMeP8VsUP1rA9/C5Ia7k7Nd4d7YFB48228kdxyg09+ZPFjiuMUV2IeWr8Y7SWp+HLcS6jNjAGFy4t/83+IY1j4MUZMcjXnF2//Gl2GjGEVNgpTvo0pjjHXjm4TMo3YIuklQeAKYGKKK3y5ZQk/9hnubkWW2IR27VefoSjushjHKA+5apjHBA1nezsiMsXPPy9WRettZBxpYxwSGQZYFBqDxKwqwZKYUN3iwBEhMtypkAJj65IZ4J40bBiex0R3V/BXYjDYsni68Fsx/WPRSCQ2JDNsLG7MFzxj/LA23HCCRKXl2QDEr19+Pcee3ScGAtYnBwNqYah5oaZP1jF3qSYGSZilHwcUnhcm75XrWXuMtvojEc69eV58SUtyQs3x6W2rwI3E+GHGDUP59Sx3R+VHGldyjra6UOXxTt+gFoakhVplSUpIXIg1bR2TOHP7E+7pRozxGUkFxyxtuKG+dofIOKONcYrIdN17IFYw8aCmkr/92xEjMqxkamWoWeEXMpkn1WO8375stvDbs2qeGBCoTuMAoYiMdzrMUAN8pOMvS4zAp6/9o9DMkMjIjRclkSlJuCI0ezKfJDLElyIyCl8SE/Zcaln4scUwAR+/gTvlmeKaAoY4oj/HMn5Bk8jIuBSRUfiSWNC7GZGnMOmNfxLavvO71g4iMpIMU7tHzR/HMspHfyMy1o4jIHHR/9m1kZGBj1wtxNHwHHAfmdp5c0ZEI8OG5JcxWSS1MyQ1VNmy49OmgfPMZHxSjcupAn7N8EuaX0DB08erqSU132wWEnJgYEd/8+//SkwBfNtQJOaSeaipsTBJ4IX2DHJqiWeDlSdfE9NIFEacWuIxHJxeUlNLSuhITEmXKvzZH74mxiB+KRNH1Lwc2bhUTA1wOoB4Ynhqi6k1Junhjue0aVBTSwpTEkvS5XQ4j/t5+x+fF+YTHLP4IUYsEW/U8nHWguFoI/Per/4vMR1OmcljgEikKQ/lGYcy3uFwXdXI3EgsQ8iBJElD7LpOERnu9svzDUre+B2qPv14xIgMjeFObFkhSAs7PO1fpEpNkJUZ44Uf1f5sGLJSGgPTkJPGdmzc4WgwlYZ/DEBS40JjXc4Z84uFbRd//oAw4CUJ7ihNE34kzgzHXak5xclw1NTQ2Jc/Diaq3f2j3YernXim3MTXfy4WJlB7R9JCgULSwilLLl6QeaFmhgM98cbxijijTY18rlyFLWKAH+zUsFD2ccELp4voL419iS1ijB9axN6yaR9h3dzPcXHvBhFOGvvyYObhtulzRGSatm5BZ3S0MGPhDBB38f3+0T/bJTDyoVNEhoG5Ec2xcdPRcnT/iBEZfWe2tozMmp+1Jdn6uNS9Gii0GLCGIz6XKlttWHWtsOMqBqidsfeO+uhSmLKHD2vPHGFKvjNS8tARkenvuWNesbT1RAqu3q6SPMWh6zSRYUzcJC8+OslniIxsGOWqTq8woDCgMKAwoDDguxhwRGT6utpMi4ocbH5njdW4RGSo5glYdgR1uY7JDDOtQOW7oFJto9pGYUBhQGFAYWC4MOCQyHQ0i8OqeTwSFxm58ucSkWHE5UUGrFy1x6FWpj47VhEZZVyrMKAwoDCgMKAwoDCA+uw4u7yhPeoqDsxej/jsRlc4jAjrEpH5f7/5Bnd2bMWlM+E4feSs3UzRQpoMTP1UHSgMKAwoDCgMKAyMZQzcQurVo3Y5Q9pvXsG1l8e5TGL4gktE5kFqKvKeew4PDVkICdmHzOgouxmTJ2ErN1PVU7mqA9UPFAYUBhQGFAYGY8CQFo+Lf/ciqt98c+iJDDUyJDL3Lp1Eb10JFi/d6ZS9jGq4wQ2n6kTVicKAwoDCgMLAWMdAe2k6Fi3dgaoF81D5y18OPZFhCkX/9t+iY5Npn5bClGRs3nAQzMhYbwxVfjUgKQwoDCgMKAwoDLiGgdCvDyM9Jk7wiqJ/9++Gh8hUv/wymqZ/bjbeyrl9G5s2HPQqkWmLOIOOhAiLOI2nD6A2cKbFrz54kUWYruw4i+cyvD6uxq9DRLjm/VvBePnTh1FgdA2Mqr5UfSkMKAwoDCgMuIKB4wfPIOKCaTPR+0k3UPLnP8W/3LnjMplxyUaGsbctXIjm6V+YiQyXbsVGRGHfzuMWpEJfGBIFEoamHRsGkYbqaZPElBWnreSPJEQbB+8L/s2/RtkLvzD/Kt572yJMZ2qU+Zk2HImRNi6ml/+Tn5jTYprW0qN/4b//M3Oc+vRInBrWLTeTofabFy3S0aaprlUHVxhQGFAYUBhwBwOUNfKjm+6domQLWUP5pX3uThrD/U746TCcPHLBgkv8y7ddLpMYvuAykeFL/62v1SJxkhmuZDq/7SB66kvQ21iOXmMdusuLUPQf/oMFYSA5aLsShp76MhGW4aWGhCRHNoa+oYa7kkm8ZL4IEv70GiASF0m8tG7rxWMWIKv8+D2zpqhuyVxRxlGnAarKM7W9sU60Pdufv3ttDei70273d6+t0eId4oe44G+4232o0+uuLjCXTZbRlsuwnuaHGGWfklimFlIbZ8vRXWairiX/2jC8ln2A8TA+/ceBPry6Hz6BrRdy5g+qZ32y/WY4Kt75HQwv/tr8q/zgXQsc3i3OQN2iuaidP8fc1mzzUTdO+fCiA7ajvl+xr2lli7zWt4v017rsq9p+yL7PNpVydiRlbEz4VezcdnwQj/jnu/X4X//rf7pMZtwiMn/8oVesXOo5vg/ty5eg5o3XwbmtnP/9J7gYmW3eZvib/n40rFoF4+HD4gyF3tpai2d8bvHr7RYCTwjB5mqTIKvKs2gMbcP40nV3RR7ar1wQJO1ei0l4y7JVT5ggDtw0vPCCGZSsFz7vv9spyty4dRMML/0GZS/+2jSgBM4UwmeoysjBjtokKaDo6oHPTqUVbvK6p7YQvc1V6OtoFnmvePtt0c4sk/zdzcy0aFueoaH/6cPI+rLmSjIkCRKFf3dtke9hoyoP3fWlgpj1dbWK+unvu2dRF9bK58iP23dr6+CesdYkiGoLIQUZNZJavJBAawe20n/8O5BIa8OwjbUYkNfaMLxm25f8l//bIj49KeIAKXHEAVg/2Orj9PSeHwwyTQrh6i8moXn3NjMpJkFu2b8XhldeNv8q3vwdGjdvhJY899SUojXsBDoTruOuD443LCfrkx9SnbcjRbuz/7EvsGzaNuZ1zZQpFnjriIwU4w8P/ZU/jklazHFsls/oFj//vIiXfZb4ldjTpsfxir/6lcsF5iUhb4+6ZBaWzDd/+o87T9t+NLzPfss+xBkC2beK/+Z5i/5JsiHrUE9yrNWBHAv4jn48YN+X6UjMlL/5mkV61siUtXQ88UuJuoEtm4/gQVvlICJDpcj/9y8/Dg+RYUI/pCWh4F/9K9S+9ZaYbuo9fBiPcnOx+UACDoZlWXQSbYdx91oI/K5W0XmpzRlJIUZB3tNYIQZD5svdMmnfa794UZAALekpf+VlkQbTYpoEpwQgXTnVpgesJBx05RSanqRIIceOI8OzQ2kBKomM+JLjoPXKyyh/9dVB5dUOgPKag6e2fBxctXnnNcNqw3DQ1IfhvTYMr2UaZvfVV9B2OUxofzi4c0Ct+uTDQXGxzNrysU706bEutGF4LQcSvT/T6W2uNmudvEFY9GW1dU/CyPIX/OmfmstAAc1tviXZo2CmgJYCprsyR5RNrxUiKZLvUMBLoSX9hNtcJeKRgp6CiYOetk60A7Ks16pJlofMWiNOek0n4yUh4rsSm3Q7U26Ztb33OlpQ+vd/J8qe/yd/YsYEP5q0dUZMSXJdFxgowtHVhulKTDTXocw3cd5dXmJRn20R50V9Eg/acntyTbJnDV93SjMG5YnlZHm0ee8uKDB/IPTfGTirRhvGm9f8+NDWKetWn6fGDRsG5b34r//KjCsS/DvZpq08ZH1LV4tX4rZmxhSzFonjUNWEP6DlyB4x/lrgU6cJ1j4jViSmpaslstqw2msx7j7TDMs+pHW7K7I9woEcf0gu2HfEh0Fxhrm/atPS5svRtdV81xZa5FXijhpZLX75cSvbgvkyvPqi6IvaMJ5cUxNjjcQ8aTGg++geNEz4A3qOHBweIuMolVPXS7DpSJJFh/NmZ9LGJb9U2bjmr1SCT9dwblW+nC55NlXGTqBNe7iv77U0o+N6BNqvXkTj1+tQu/ArATK9QJFf1dIlWPVkx1Z9sHOyA7E+h7u8fUajeVDm4NgcGiqEkL6epWDSunrtjiSGDSuDYTx2WNRbV1qiKJfEyZ2cRCGYOHjyx696/rQDCK9lx5Zu6d///aDBWw7wngoTvq8VFNR2kbBQYGnrgcSwdtYsUGgwvENtp1776eG9EAiSND3Tnmr7nPyS1GtlOHhryQmvtbZnxB/bxfDSC+Jrn+S5IXiFwEGPwWBRB9r68PRa1rsWd8SjNl6ppZA4oNuyb4+ZBFJLUr98kVnwynLqPxBazx4ahCnG1W0oFhpamWbLnj2ibUm0pJ8/uqxHfRm09c06lz99nZOYyn4uiaierDYsXSoIPfsJ+wTD69MbiXqTZWQfrfzgA7Ava/PBsurLq30+VNdSZmo/euR0Pj9ySKzlNBQ1NvoPQMoSYrtm9lQhf5ydqqJNDKeTpCaGJio9xw6g7t13hFKEfaDx00/B/epc/XNrasmZRKJSa7Fid5w4O2GoGsTZePufTVlJNu7I/aa32wJwzqYzUuH67naBXzmSqZvtj2yQOe0XufwaZ52wnkaqDL6ervzypXDhQKkXqhxEtQKO13oVP9/Th6Fw1JadhIRhqGlhnBwAraWnfccXr/V9jF/FEp+CJD+blhS485JWc7jqQZJWawTSTKA106x6wUvskKRL4a0nqcNVjtGSDtuDfYQkhn2m6Kc/BafxteVjGBIhhmO9e7POSZr08XGckH2dfZkkhn7aPPnydf+9XrMWi3aOsu9S29OVFmO2uSr+z//JXE76az8CaYcltfmJ/8/fI/Wv/zN6jx3B//zjfzNTCM7kNE+dir7Tp8F96tz9GzIiwwylFLRgybZodHQqAenLoFV509lquamt4IAmhVPr6dOgUNPWLZ9xINX+KNC0YdS1d9pC1aOqRy0G2PckyZEEg642DK85ta/tn7zWf7RIzZB2Wlf/0ULixP6vf1ef3mi+59hWGxyM8+OmIvaLebizZYswP3GXrNh7b0iJDBMurOrC5yvCkVNcPwg0o7kRVdnUQKowoDCgMOCbGJAfHfr2IdnR/0hKtOGkZockh7aAJEmcRtKGUdf9KK8x4svVEW4dAmmPtFh7NuREhon23X+CgE1ROHMtXzW2m1/7qmP45oCo2kW1i8KAwoDCgCUGbiSWYfqaazB2fWeNd3jdb1iIDHP9x//+P7A3LBeL1VSTInOKzCkMKAwoDCgMjDoMdPf0ioU+IQeS8PSf/+h1wmIrwmEjMjID2WXtaqpJdeBR14HVF5nlF5mqD1UfCgNjCwNyKokLfYb7b9iJDAvIqSaqnUL2JyhDYEVqFKlRGFAYUBhQGPBTDFALs/tsOiYsvTxsU0l6ojQiREZmIj67Ee/PP48LNwsViP0UxOqra2x9dan2Vu2tMKAwIDEQm1ZhkuHRBinWR8QdUSLDEnMebfuZLExbHaFWNikyowitwoDCgMKAwoCPY4DTSIFf38SyXfH4/tE/jwh50SY64kRGZqautV9MN9EYuLi8WQHZx4EsGbly1deZwoDCgMLA2MBAbUO7MAnhNFJR9R0pvkfc9RkiI2six9CBz4OvCLaXnu/gkEkl7BXhUxhQGFAYUBhQGBhSDFC5QJvWDxZcQEJOkxTXPuP6HJGRNUO2x71nOOXEeTjF+McG41ftrNpZYUBhQGHANzDAjWw5S0Llgi8SGMkXfJbIyAxyyonzcO8EnBWW0ZybUyD3DZCrdlDtoDCgMKAwMLow0GTsxNHL2fhk8UVh7sFZEl//83kiIyuQBkUXog1iiRe1NBeiCtTSbaVOVaRWYUBhQGFAYcBDDHAJ9fXEMmHSQaXBkauF6Lr3QIpfn3f9hshoa5JaGq50YoXTcvrI5Wy14slDIKuvqtH1VaXaU7WnwoDCgD0M0O7ldGSemDqiLF1zMNmnDHi1Mt/RtV8SGVkoHntAW5qjEUVCBfbSlONmYkNDYXXqturI9jqyeqbwoTCgMDBWMECZKInLazNOCrsXHhvEqaPhPE5Aym9vun5NZPQVoSU2NBRmY5HczFpv2kV4/4VMYTjMBuWPc4FjBcSqnGrAVhhQGFAYGJ0Y4NSQlGt0Kes2HkkSso9y8BeTDovFM6OFuOhl/6giMvrC8Z7kpqKxV1hcn75RKgyHSXL4ozqNDax+qg4UBhQGFAYUBvwVA/xgl3KNLmXdzbQ6Ifv8XdtiTa7r/f5/+FDZUfqFOWkAAAAASUVORK5CYII=;" vertex="1" parent="1">
                    <mxGeometry x="210" y="30" width="562" height="405" as="geometry"/>
                </mxCell>
                <mxCell id="12" style="edgeStyle=orthogonalEdgeStyle;rounded=0;orthogonalLoop=1;jettySize=auto;html=1;exitX=1;exitY=0.5;exitDx=0;exitDy=0;strokeColor=#000000;endArrow=classic;endFill=1;" edge="1" parent="1" source="3" target="4">
                    <mxGeometry relative="1" as="geometry"/>
                </mxCell>
                <mxCell id="3" value="UI data collector" style="rounded=0;whiteSpace=wrap;html=1;fillColor=#1ba1e2;strokeColor=#006EAF;fontColor=#ffffff;" vertex="1" parent="1">
                    <mxGeometry x="70" y="550" width="100" height="50" as="geometry"/>
                </mxCell>
                <mxCell id="4" value="Tickers Collector" style="rounded=0;whiteSpace=wrap;html=1;fillColor=#1ba1e2;strokeColor=#006EAF;fontColor=#ffffff;" vertex="1" parent="1">
                    <mxGeometry x="208" y="550" width="100" height="50" as="geometry"/>
                </mxCell>
                <mxCell id="5" value="Data Collector" style="rounded=0;whiteSpace=wrap;html=1;fillColor=#1ba1e2;strokeColor=#006EAF;fontColor=#ffffff;" vertex="1" parent="1">
                    <mxGeometry x="347" y="550" width="100" height="50" as="geometry"/>
                </mxCell>
                <mxCell id="6" value="Data processor" style="rounded=0;whiteSpace=wrap;html=1;fillColor=#1ba1e2;strokeColor=#006EAF;fontColor=#ffffff;" vertex="1" parent="1">
                    <mxGeometry x="485" y="550" width="100" height="50" as="geometry"/>
                </mxCell>
                <mxCell id="7" value="Predictor" style="rounded=0;whiteSpace=wrap;html=1;fillColor=#1ba1e2;strokeColor=#006EAF;fontColor=#ffffff;" vertex="1" parent="1">
                    <mxGeometry x="485" y="630" width="100" height="50" as="geometry"/>
                </mxCell>
                <mxCell id="8" value="Define dataframe" style="rounded=0;whiteSpace=wrap;html=1;fillColor=#1ba1e2;strokeColor=#006EAF;fontColor=#ffffff;" vertex="1" parent="1">
                    <mxGeometry x="622" y="630" width="100" height="50" as="geometry"/>
                </mxCell>
                <mxCell id="9" value="Viz generator" style="rounded=0;whiteSpace=wrap;html=1;fillColor=#1ba1e2;strokeColor=#006EAF;fontColor=#ffffff;" vertex="1" parent="1">
                    <mxGeometry x="758" y="630" width="100" height="50" as="geometry"/>
                </mxCell>
                <mxCell id="11" value="" style="endArrow=classic;html=1;" edge="1" parent="1">
                    <mxGeometry width="50" height="50" relative="1" as="geometry">
                        <mxPoint x="480" y="430" as="sourcePoint"/>
                        <mxPoint x="530" y="380" as="targetPoint"/>
                    </mxGeometry>
                </mxCell>
                <mxCell id="13" style="edgeStyle=orthogonalEdgeStyle;rounded=0;orthogonalLoop=1;jettySize=auto;html=1;strokeColor=#000000;endArrow=classic;endFill=1;entryX=0;entryY=0.5;entryDx=0;entryDy=0;" edge="1" parent="1" target="5">
                    <mxGeometry relative="1" as="geometry">
                        <mxPoint x="310" y="575" as="sourcePoint"/>
                        <mxPoint x="218" y="585" as="targetPoint"/>
                    </mxGeometry>
                </mxCell>
                <mxCell id="16" value="" style="edgeStyle=orthogonalEdgeStyle;rounded=0;orthogonalLoop=1;jettySize=auto;html=1;endArrow=classic;endFill=1;strokeColor=#000000;entryX=0.5;entryY=0;entryDx=0;entryDy=0;exitX=0.5;exitY=1;exitDx=0;exitDy=0;" edge="1" parent="1" source="6" target="7">
                    <mxGeometry relative="1" as="geometry">
                        <mxPoint x="495" y="585" as="sourcePoint"/>
                        <mxPoint x="457" y="585" as="targetPoint"/>
                    </mxGeometry>
                </mxCell>
                <mxCell id="17" value="" style="edgeStyle=orthogonalEdgeStyle;rounded=0;orthogonalLoop=1;jettySize=auto;html=1;endArrow=classic;endFill=1;strokeColor=#000000;entryX=0;entryY=0.5;entryDx=0;entryDy=0;" edge="1" parent="1" target="8">
                    <mxGeometry relative="1" as="geometry">
                        <mxPoint x="584" y="655" as="sourcePoint"/>
                        <mxPoint x="545" y="640" as="targetPoint"/>
                    </mxGeometry>
                </mxCell>
                <mxCell id="18" value="" style="edgeStyle=orthogonalEdgeStyle;rounded=0;orthogonalLoop=1;jettySize=auto;html=1;endArrow=classic;endFill=1;strokeColor=#000000;entryX=0;entryY=0.5;entryDx=0;entryDy=0;" edge="1" parent="1" target="9">
                    <mxGeometry relative="1" as="geometry">
                        <mxPoint x="720" y="655" as="sourcePoint"/>
                        <mxPoint x="632" y="665" as="targetPoint"/>
                    </mxGeometry>
                </mxCell>
                <mxCell id="20" value="" style="edgeStyle=orthogonalEdgeStyle;rounded=0;orthogonalLoop=1;jettySize=auto;html=1;endArrow=classic;endFill=1;strokeColor=#000000;exitX=0.5;exitY=0;exitDx=0;exitDy=0;" edge="1" parent="1" source="9">
                    <mxGeometry relative="1" as="geometry">
                        <mxPoint x="595" y="585" as="sourcePoint"/>
                        <mxPoint x="490" y="420" as="targetPoint"/>
                        <Array as="points">
                            <mxPoint x="808" y="490"/>
                            <mxPoint x="490" y="490"/>
                        </Array>
                    </mxGeometry>
                </mxCell>
                <mxCell id="22" style="edgeStyle=orthogonalEdgeStyle;rounded=0;orthogonalLoop=1;jettySize=auto;html=1;strokeColor=#000000;endArrow=classic;endFill=1;exitX=1;exitY=0.5;exitDx=0;exitDy=0;" edge="1" parent="1" source="5" target="6">
                    <mxGeometry relative="1" as="geometry">
                        <mxPoint x="320" y="585" as="sourcePoint"/>
                        <mxPoint x="357" y="585" as="targetPoint"/>
                    </mxGeometry>
                </mxCell>
                <mxCell id="23" value="Site" style="shape=cylinder3;whiteSpace=wrap;html=1;boundedLbl=1;backgroundOutline=1;size=8;" vertex="1" parent="1">
                    <mxGeometry x="228" y="480" width="60" height="40" as="geometry"/>
                </mxCell>
                <mxCell id="24" value="API" style="shape=cylinder3;whiteSpace=wrap;html=1;boundedLbl=1;backgroundOutline=1;size=8;" vertex="1" parent="1">
                    <mxGeometry x="367" y="480" width="60" height="40" as="geometry"/>
                </mxCell>
                <mxCell id="25" value="" style="edgeStyle=orthogonalEdgeStyle;rounded=0;orthogonalLoop=1;jettySize=auto;html=1;endArrow=classic;endFill=1;strokeColor=#000000;exitX=0.5;exitY=1;exitDx=0;exitDy=0;exitPerimeter=0;" edge="1" parent="1" source="24">
                    <mxGeometry relative="1" as="geometry">
                        <mxPoint x="545" y="610" as="sourcePoint"/>
                        <mxPoint x="397" y="550" as="targetPoint"/>
                    </mxGeometry>
                </mxCell>
                <mxCell id="26" value="" style="edgeStyle=orthogonalEdgeStyle;rounded=0;orthogonalLoop=1;jettySize=auto;html=1;endArrow=classic;endFill=1;strokeColor=#000000;exitX=0.5;exitY=1;exitDx=0;exitDy=0;exitPerimeter=0;entryX=0.5;entryY=0;entryDx=0;entryDy=0;" edge="1" parent="1" source="23" target="4">
                    <mxGeometry relative="1" as="geometry">
                        <mxPoint x="407" y="530" as="sourcePoint"/>
                        <mxPoint x="407" y="560" as="targetPoint"/>
                    </mxGeometry>
                </mxCell>
                <mxCell id="27" style="edgeStyle=orthogonalEdgeStyle;rounded=0;orthogonalLoop=1;jettySize=auto;html=1;exitX=0.018;exitY=0.148;exitDx=0;exitDy=0;strokeColor=#000000;endArrow=classic;endFill=1;exitPerimeter=0;entryX=0.5;entryY=0;entryDx=0;entryDy=0;" edge="1" parent="1" source="2" target="3">
                    <mxGeometry relative="1" as="geometry">
                        <mxPoint x="180" y="585" as="sourcePoint"/>
                        <mxPoint x="127" y="551" as="targetPoint"/>
                    </mxGeometry>
                </mxCell>
                <mxCell id="28" value="" style="rounded=0;whiteSpace=wrap;html=1;opacity=30;dashed=1;strokeWidth=2;strokeColor=#000000;fillColor=#F0FF1C;" vertex="1" parent="1">
                    <mxGeometry x="194" y="530" width="263" height="110" as="geometry"/>
                </mxCell>
                <mxCell id="29" value="" style="rounded=0;whiteSpace=wrap;html=1;opacity=30;dashed=1;strokeWidth=2;strokeColor=#000000;fillColor=#F0FF1C;" vertex="1" parent="1">
                    <mxGeometry x="474" y="530" width="120" height="190" as="geometry"/>
                </mxCell>
                <mxCell id="30" value="" style="edgeStyle=orthogonalEdgeStyle;rounded=0;orthogonalLoop=1;jettySize=auto;html=1;endArrow=classic;endFill=1;strokeColor=#000000;entryX=0.5;entryY=0;entryDx=0;entryDy=0;exitX=1;exitY=0.5;exitDx=0;exitDy=0;" edge="1" parent="1" source="6" target="8">
                    <mxGeometry relative="1" as="geometry">
                        <mxPoint x="585" y="575" as="sourcePoint"/>
                        <mxPoint x="672" y="630" as="targetPoint"/>
                    </mxGeometry>
                </mxCell>
                <mxCell id="32" value="Text" style="text;html=1;strokeColor=none;fillColor=none;align=center;verticalAlign=middle;whiteSpace=wrap;rounded=0;dashed=1;opacity=30;" vertex="1" parent="1">
                    <mxGeometry x="490" y="390" width="40" height="20" as="geometry"/>
                </mxCell>
                <mxCell id="33" value="collect_tickers_data" style="text;whiteSpace=wrap;html=1;fontColor=#141414;" vertex="1" parent="1">
                    <mxGeometry x="197" y="617" width="131" height="30" as="geometry"/>
                </mxCell>
            </root>
        </mxGraphModel>
    </diagram>
</mxfile>